<svg width="20" height="20" viewBox="0 0 20 20" fill="none" xmlns="http://www.w3.org/2000/svg">
  <path 
    d="M5.9751 1.54169H14.0171C15.8574 1.54193 17.3579 3.04311 17.3579 4.88348V16.6247C17.3579 17.4447 17.0431 18.008 16.5981 18.2682C16.2049 18.498 15.6591 18.5302 15.0493 18.2682L14.7847 18.1384L10.7173 15.8796L10.7163 15.8786C10.4933 15.7556 10.2195 15.7165 9.99561 15.7165C9.7716 15.7165 9.49792 15.7556 9.2749 15.8786L9.27393 15.8796L5.20752 18.1384C4.81538 18.3562 4.43928 18.4587 4.10791 18.4587C3.84018 18.4586 3.60103 18.3952 3.38916 18.2741C2.94647 18.0128 2.63333 17.4508 2.6333 16.6335V4.88348C2.6333 3.04296 4.13457 1.54169 5.9751 1.54169ZM5.98291 1.79169C4.28195 1.7919 2.89209 3.18247 2.89209 4.88348V16.6247C2.89209 17.1609 3.03989 17.7787 3.53662 18.0602C4.01174 18.3295 4.60591 18.1942 5.09131 17.9196L5.09229 17.9206L9.15771 15.6618L9.15869 15.6628C9.37858 15.5409 9.67912 15.4685 9.99951 15.4684C10.3201 15.4684 10.6213 15.5409 10.8413 15.6628V15.6618L14.9067 17.9196C15.3812 18.1885 15.9881 18.345 16.4741 18.0534C16.9563 17.7639 17.1079 17.1604 17.1079 16.6247V4.88348C17.1079 3.18249 15.718 1.79194 14.0171 1.79169H5.98291Z" 
    stroke="#DFFF6D"
  />
  <path 
    d="M12.5747 6.96039C12.6105 6.96039 12.6411 6.97404 12.6626 6.99554C12.6841 7.01707 12.6978 7.04758 12.6978 7.08344C12.6977 7.11923 12.6841 7.14982 12.6626 7.17133L9.32959 10.5043C9.31512 10.5188 9.30128 10.5275 9.28857 10.5327C9.27528 10.538 9.25933 10.5414 9.2417 10.5414C9.22402 10.5414 9.20815 10.538 9.19482 10.5327C9.18206 10.5275 9.16837 10.5189 9.15381 10.5043L7.90381 9.25433C7.8823 9.23281 7.86865 9.20228 7.86865 9.16644C7.8687 9.13068 7.88232 9.10004 7.90381 9.07855C7.92533 9.05712 7.95594 9.0434 7.9917 9.0434C8.02748 9.04343 8.05809 9.05707 8.07959 9.07855L9.2417 10.2407L12.4868 6.99554C12.5083 6.97406 12.5389 6.96044 12.5747 6.96039Z" 
    stroke="#DFFF6D"
  />
</svg>
