<svg width="20" height="20" viewBox="0 0 20 20" fill="none" xmlns="http://www.w3.org/2000/svg">
  <path d="M7.49951 1.5415H12.4995C14.7046 1.5415 16.1599 2.01442 17.0728 2.92725C17.9854 3.84004 18.4584 5.29472 18.4585 7.49951V12.4995C18.4585 14.7046 17.9856 16.1599 17.0728 17.0728C16.1599 17.9856 14.7046 18.4585 12.4995 18.4585H7.49951C5.29472 18.4584 3.84004 17.9854 2.92725 17.0728C2.01442 16.1599 1.5415 14.7046 1.5415 12.4995V7.49951C1.54155 5.29459 2.01446 3.84003 2.92725 2.92725C3.84003 2.01446 5.29459 1.54155 7.49951 1.5415Z" 
    stroke="#E8FAFC"/>
  
  <path d="M5.95801 7.55811H11.5996C13.0817 7.55811 14.2909 8.76744 14.291 10.2495C14.291 11.7317 13.0818 12.9419 11.5996 12.9419H7.5C7.438 12.9419 7.375 12.879 7.375 12.8169C7.375 12.7546 7.438 12.6919 7.5 12.6919H11.5996C12.941 12.6919 14.041 11.6021 14.041 10.2495C14.041 8.89849 12.9507 7.80811 11.5996 7.80811H5.95801C5.896 7.80811 5.83301 7.746 5.83301 7.68311C5.83301 7.62184 5.896 7.55811 5.95801 7.55811Z" 
    stroke="#E8FAFC"/>
  
  <path d="M7.14209 6.23535C7.208 6.23535 7.26416 6.2915 7.26416 6.3584C7.26416 6.425 7.208 6.481 7.14209 6.481L6.00928 7.66699L6.36279 8.02051L7.22998 8.88672C7.251 8.908 7.26416 8.938 7.26416 8.97461C7.26416 9.041 7.208 9.09961 7.14209 9.09961C7.106 9.09961 7.074 9.086 7.05322 9.06348L5.74561 7.75488C5.724 7.733 5.71045 7.702 5.71045 7.66699C5.71045 7.631 5.724 7.599 5.74561 7.57812L7.05322 6.27051C7.075 6.248 7.106 6.23535 7.14209 6.23535Z"
    fill="#E8FAFC" stroke="#E8FAFC"/>
</svg>
