<svg width="20" height="20" viewBox="0 0 20 20" fill="none" xmlns="http://www.w3.org/2000/svg">
  <path d="M13.3079 15.625C11.9163 15.625 10.5829 15.1083 9.55794 14.1833C9.42461 14.0667 9.34961 13.8917 9.34961 13.7167C9.34961 13.5417 9.42461 13.3667 9.55794 13.25C10.4829 12.4333 11.0163 11.25 11.0163 10C11.0163 8.75 10.4829 7.56667 9.55794 6.75C9.42461 6.63333 9.34961 6.46667 9.34961 6.28333C9.34961 6.10833 9.42461 5.93333 9.55794 5.81667C10.5913 4.88333 11.9163 4.375 13.3079 4.375C16.4079 4.375 18.9329 6.9 18.9329 10C18.9329 13.1 16.4163 15.625 13.3079 15.625ZM10.9163 13.6583C11.6246 14.125 12.4496 14.375 13.3163 14.375C15.7246 14.375 17.6913 12.4083 17.6913 10C17.6913 7.59167 15.7246 5.625 13.3163 5.625C12.4579 5.625 11.6246 5.875 10.9163 6.34167C11.7829 7.35 12.2746 8.64167 12.2746 10C12.2746 11.3583 11.7829 12.65 10.9163 13.6583Z" fill="#282828"/>
  <path d="M6.6416 15.625C3.5416 15.625 1.0166 13.1 1.0166 10C1.0166 6.9 3.5416 4.375 6.6416 4.375C8.03327 4.375 9.3666 4.89167 10.3916 5.81667C11.5749 6.86667 12.2666 8.39167 12.2666 10C12.2666 11.6083 11.5833 13.125 10.3916 14.1833C9.3666 15.1083 8.03327 15.625 6.6416 15.625ZM6.6416 5.625C4.23327 5.625 2.2666 7.59167 2.2666 10C2.2666 12.4083 4.23327 14.375 6.6416 14.375C7.72493 14.375 8.75827 13.975 9.55827 13.25C10.4916 12.425 11.0166 11.2417 11.0166 10C11.0166 8.75833 10.4833 7.56667 9.55827 6.75C8.75827 6.025 7.72493 5.625 6.6416 5.625Z" fill="#282828"/>
</svg>
