<svg width="20" height="20" viewBox="0 0 20 20" fill="none"
    xmlns="http://www.w3.org/2000/svg">

  <path
    d="M14.366 18.958H5.633C3.3 18.958 1.816 17.567 1.683 15.242L1.25 8.367C1.183 7.325 1.541 6.325 2.258 5.567C2.966 4.808 3.966 4.375 5 4.375C5.266 4.375 5.525 4.217 5.65 3.967L6.25 2.775C6.741 1.8 7.975 1.042 9.05 1.042H10.958C12.033 1.042 13.258 1.8 13.75 2.767L14.35 3.983C14.475 4.217 14.725 4.375 15 4.375C16.033 4.375 17.033 4.808 17.742 5.567C18.458 6.333 18.816 7.325 18.75 8.367L18.316 15.25C18.166 17.608 16.725 18.958 14.366 18.958ZM9.05 2.292C8.433 2.292 7.65 2.775 7.366 3.333L6.766 4.533C6.416 5.208 5.741 5.625 5 5.625C4.3 5.625 3.65 5.908 3.166 6.417C2.691 6.925 2.45 7.592 2.5 8.283L2.933 15.167C3.033 16.85 3.941 17.708 5.633 17.708H14.366C16.05 17.708 16.958 16.85 17.066 15.167L17.5 8.283C17.541 7.592 17.308 6.925 16.833 6.417C16.35 5.908 15.7 5.625 15 5.625C14.258 5.625 13.583 5.208 13.233 4.55L12.625 3.333C12.35 2.783 11.566 2.3 10.95 2.3H9.05V2.292Z"
    fill="#282828"
  />

  <path
    d="M11.25 7.292H8.75C8.408 7.292 8.125 7.008 8.125 6.667C8.125 6.325 8.408 6.042 8.75 6.042H11.25C11.592 6.042 11.875 6.325 11.875 6.667C11.875 7.008 11.592 7.292 11.25 7.292Z"
    fill="#282828"
  />

  <path
    d="M10 15.625C8.158 15.625 6.667 14.133 6.667 12.292C6.667 10.45 8.158 8.958 10 8.958C11.842 8.958 13.333 10.45 13.333 12.292C13.333 14.133 11.842 15.625 10 15.625ZM10 10.208C8.85 10.208 7.917 11.142 7.917 12.292C7.917 13.442 8.85 14.375 10 14.375C11.15 14.375 12.083 13.442 12.083 12.292C12.083 11.142 11.15 10.208 10 10.208Z"
    fill="#282828"
  />

</svg>
