<svg width="21" height="21" viewBox="0 0 21 21" fill="none" xmlns="http://www.w3.org/2000/svg">
  <path fill-rule="evenodd" clip-rule="evenodd" 
        d="M16.0399 4.55191C16.3767 4.88703 16.3781 5.43174 16.0429 5.76855L11.5365 10.2976L16.0945 14.8786C16.4297 15.2154 16.4283 15.7601 16.0915 16.0952C15.7547 16.4303 15.21 16.429 14.8748 16.0921L10.3229 11.5173L5.77093 16.0921C5.4358 16.429 4.89109 16.4303 4.55428 16.0952C4.21747 15.7601 4.21611 15.2154 4.55124 14.8785L9.10927 10.2976L4.60284 5.76856C4.26771 5.43175 4.26907 4.88704 4.60588 4.55191C4.94269 4.21679 5.4874 4.21815 5.82253 4.55496L10.3229 9.07791L14.8232 4.55495C15.1584 4.21815 15.7031 4.21678 16.0399 4.55191Z" 
        fill="#0D0D0D"/>
</svg>
