<svg width="20" height="20" viewBox="0 0 20 20" fill="none" xmlns="http://www.w3.org/2000/svg">
  <path d="M10.417 18.3334H9.0744C5.58251 18.3334 3.83657 18.3334 2.75178 17.2873C1.66699 16.2413 1.66699 14.5577 1.66699 11.1905V6.66669H18.3337V8.75002" 
        stroke="#141B34" stroke-width="1.25" stroke-linecap="round" stroke-linejoin="round"/>
  <path d="M15.0003 10C13.1594 10 11.667 11.5074 11.667 13.3669C11.667 14.4302 12.0837 15.2569 12.917 15.9954C13.5044 16.5159 14.216 17.3805 14.6432 18.0813C14.8481 18.4174 15.1378 18.4174 15.3575 18.0813C15.8063 17.3944 16.4963 16.5159 17.0837 15.9954C17.917 15.2569 18.3337 14.4302 18.3337 13.3669C18.3337 11.5074 16.8413 10 15.0003 10Z" 
        stroke="#141B34" stroke-width="1.25" stroke-linejoin="round"/>
  <path d="M15 13.3333H15.0075" 
        stroke="#141B34" stroke-width="1.66667" stroke-linecap="round" stroke-linejoin="round"/>
  <path d="M1.66699 6.66669L2.46827 4.74361C3.08971 3.25216 3.40043 2.50644 4.03024 2.08656C4.66005 1.66669 5.46792 1.66669 7.08366 1.66669H12.917C14.5327 1.66669 15.3406 1.66669 15.9704 2.08656C16.6002 2.50644 16.9109 3.25216 17.5324 4.74361L18.3337 6.66669" 
        stroke="#141B34" stroke-width="1.25" stroke-linecap="round"/>
  <path d="M10 6.66669V1.66669" 
        stroke="#141B34" stroke-width="1.25" stroke-linecap="round"/>
  <path d="M8.33301 10H9.99967" 
        stroke="#141B34" stroke-width="1.25" stroke-linecap="round"/>
</svg>
