<svg width="28" height="20" viewBox="0 0 28 20" xmlns="http://www.w3.org/2000/svg">
  <rect x="0.608696" y="0.608696" width="26.7826" height="18.2609" rx="2.43478"
        fill="white" stroke="#D9D9D9" stroke-width="1.21739"/>

  <path d="M15.3836 15.8259C18.6337 15.8419 21.6002 13.1123 21.6002 9.79171C21.6002 6.1608 18.6337 3.65074 15.3836 3.6521H12.5865C9.29766 3.65074 6.59033 6.16148 6.59033 9.79171C6.59033 13.1129 9.29766 15.8419 12.5865 15.8259H15.3836Z"
        fill="#0079BE"/>

  <path d="M12.5999 4.15479C9.59433 4.1558 7.15921 6.64959 7.1582 9.72753C7.15921 12.8051 9.59433 15.2989 12.5999 15.2999C15.6058 15.2989 18.0419 12.8051 18.0423 9.72753C18.0419 6.64959 15.6062 4.1558 12.5999 4.15479ZM9.15079 9.72753C9.15016 9.01589 9.36116 8.3206 9.75622 7.73254C10.1513 7.14448 10.712 6.69101 11.3651 6.43139V13.0233C10.712 12.7639 10.1512 12.3105 9.75608 11.7225C9.361 11.1345 9.15004 10.4392 9.15079 9.72753ZM13.8343 13.0247V6.43105C14.488 6.6903 15.0492 7.14374 15.4445 7.73199C15.8399 8.32025 16.0509 9.0159 16.05 9.72787C16.0508 10.4398 15.8397 11.1354 15.4444 11.7236C15.049 12.3119 14.4879 12.7653 13.8343 13.0247Z"
        fill="white"/>
</svg>
