<svg width="28" height="20" viewBox="0 0 28 20" xmlns="http://www.w3.org/2000/svg">
  <rect x="0.608696" y="0.608696" width="26.7826" height="18.2609" rx="2.43478"
        fill="white" stroke="#D9D9D9" stroke-width="1.21739"/>
  
  <path d="M11.3828 18.3019L26.8031 13.6353V16.415C26.8031 17.4571 25.9583 18.3019 24.9162 18.3019H11.3828Z"
        fill="#FD6020"/>

  <path d="M11.5117 7.39429C11.8086 7.39429 12.1478 7.43868 12.4023 7.61304V8.48511C12.1903 8.22348 11.8511 8.04858 11.5117 8.04858C10.8332 8.09234 10.2819 8.70268 10.3242 9.40015V9.48804C10.3245 10.1855 10.8761 10.7087 11.5547 10.7087C11.8939 10.7087 12.1903 10.5337 12.4023 10.2722V11.1443C12.1055 11.275 11.8089 11.363 11.4697 11.363C10.4094 11.363 9.56075 10.4471 9.56055 9.35718C9.56055 8.22357 10.409 7.30728 11.5117 7.39429ZM18.1719 10.0115L19.1895 7.39429H19.9531L18.3838 11.363H18.002L16.4326 7.39429H17.1963L18.1719 10.0115ZM8.11914 7.30737C8.50078 7.30748 8.88285 7.48137 9.17969 7.74292L8.79785 8.26636C8.62831 8.09207 8.41603 7.96187 8.2041 7.96167C7.9496 7.91807 7.73676 8.1356 7.69434 8.39722C7.69434 8.61523 7.82194 8.7023 8.24609 8.87671C9.09436 9.22551 9.30618 9.48736 9.34863 10.0105V10.1414C9.30622 10.839 8.75486 11.3627 8.07617 11.3191C7.56731 11.319 7.05823 11.0573 6.80371 10.5779L7.27051 10.0974C7.39776 10.4026 7.69484 10.6208 8.03418 10.6208H8.07617C8.33063 10.6208 8.58485 10.3596 8.58496 10.0544C8.58496 9.88003 8.5003 9.74907 8.37305 9.66187C8.20345 9.57469 8.03385 9.48769 7.86426 9.44409C7.18557 9.22607 6.97363 8.92047 6.97363 8.39722V8.35327C7.01625 7.743 7.52543 7.26378 8.11914 7.30737ZM3.70703 7.39429C4.72482 7.43788 5.53029 8.31002 5.48828 9.3562C5.48828 9.923 5.23367 10.4462 4.80957 10.8386C4.42785 11.1438 3.96166 11.3187 3.49512 11.2751H2.43457V7.39429H3.70703ZM6.50684 11.2751H5.78516V7.39429H6.50684V11.2751ZM22.3291 8.04858H21.0137V8.92065H22.2861V9.57495H21.0137V10.6218H22.3291V11.2751H20.293V7.39429H22.3291V8.04858ZM23.8555 7.39429C24.7036 7.39432 25.1697 7.78714 25.1699 8.52808C25.2123 9.09481 24.8311 9.57453 24.3223 9.66187L25.4668 11.2751H24.5762L23.6006 9.70581H23.5156V11.2751H22.7949V7.39429H23.8555ZM3.36816 8.04858H3.15625V10.6208H3.36816C3.70743 10.6644 4.0893 10.5341 4.34375 10.3162C4.59809 10.0546 4.72551 9.70546 4.72559 9.31323C4.72547 8.96456 4.59814 8.61478 4.34375 8.35327C4.0893 8.1355 3.70728 8.00509 3.36816 8.04858ZM23.5156 9.18237H23.7275C24.194 9.18237 24.4062 8.96432 24.4062 8.57202C24.4061 8.22347 24.1939 8.00464 23.7275 8.00464H23.5156V9.18237Z"
        fill="black"/>

  <path fill-rule="evenodd" clip-rule="evenodd"
        d="M14.566 7.30469C13.5055 7.30469 12.6147 8.17678 12.6147 9.31049C12.6147 10.4006 13.4631 11.3163 14.566 11.3599C15.6688 11.4035 16.5172 10.4878 16.5596 9.3541C16.5172 8.22038 15.6688 7.30469 14.566 7.30469Z"
        fill="#FD6020"/>
</svg>
