<svg width="16" height="16" viewBox="0 0 16 16" xmlns="http://www.w3.org/2000/svg">
  <path d="M7.99967 15.1665C7.57967 15.1665 7.18634 15.0066 6.893 14.7066L5.87968 13.6932C5.79968 13.6132 5.58634 13.5265 5.47967 13.5265H4.03967C3.17301 13.5265 2.473 12.8265 2.473 11.9598V10.5199C2.473 10.4132 2.38634 10.1999 2.30634 10.1199L1.29301 9.10654C0.999676 8.81321 0.833008 8.41986 0.833008 7.99986C0.833008 7.57986 0.993009 7.1865 1.29301 6.89317L2.30634 5.87982C2.38634 5.79982 2.473 5.5865 2.473 5.47984V4.03989C2.473 3.17323 3.17301 2.47316 4.03967 2.47316H5.47967C5.58634 2.47316 5.79968 2.3865 5.87968 2.3065L6.893 1.29315C7.47967 0.706483 8.51968 0.706483 9.10634 1.29315L10.1197 2.3065C10.1997 2.3865 10.413 2.47316 10.5197 2.47316H11.9597C12.8263 2.47316 13.5263 3.17323 13.5263 4.03989V5.47984C13.5263 5.5865 13.613 5.79982 13.693 5.87982L14.7063 6.89317C14.9997 7.1865 15.1663 7.57986 15.1663 7.99986C15.1663 8.41986 15.0063 8.81321 14.7063 9.10654L13.693 10.1199C13.613 10.1999 13.5263 10.4132 13.5263 10.5199V11.9598C13.5263 12.8265 12.8263 13.5265 11.9597 13.5265H10.5197C10.413 13.5265 10.1997 13.6132 10.1197 13.6932L9.10634 14.7066C8.81301 15.0066 8.41967 15.1665 7.99967 15.1665ZM3.013 9.41319C3.27967 9.67985 3.473 10.1465 3.473 10.5199V11.9598C3.473 12.2731 3.72634 12.5265 4.03967 12.5265H5.47967C5.85301 12.5265 6.31968 12.7198 6.58634 12.9865L7.59967 13.9999C7.813 14.2132 8.18634 14.2132 8.39968 13.9999L9.413 12.9865C9.67967 12.7198 10.1463 12.5265 10.5197 12.5265H11.9597C12.273 12.5265 12.5263 12.2731 12.5263 11.9598V10.5199C12.5263 10.1465 12.7197 9.67985 12.9863 9.41319L13.9997 8.39984C14.1063 8.29317 14.1663 8.15319 14.1663 7.99986C14.1663 7.84652 14.1063 7.70654 13.9997 7.59987L12.9863 6.58652C12.7197 6.31986 12.5263 5.85317 12.5263 5.47984V4.03989C12.5263 3.72656 12.273 3.47316 11.9597 3.47316H10.5197C10.1463 3.47316 9.67967 3.27987 9.413 3.0132L8.39968 1.99986C8.18634 1.78652 7.813 1.78652 7.59967 1.99986L6.58634 3.0132C6.31968 3.27987 5.85301 3.47316 5.47967 3.47316H4.03967C3.72634 3.47316 3.473 3.72656 3.473 4.03989V5.47984C3.473 5.85317 3.27967 6.31986 3.013 6.58652L1.99967 7.59987C1.89301 7.70654 1.83301 7.84652 1.83301 7.99986C1.83301 8.15319 1.89301 8.29317 1.99967 8.39984L3.013 9.41319Z" fill="#0B4B54"/>
  <path d="M10.0005 10.6667C9.62715 10.6667 9.32715 10.3667 9.32715 10C9.32715 9.63337 9.62715 9.33337 9.99382 9.33337C10.3605 9.33337 10.6605 9.63337 10.6605 10C10.6605 10.3667 10.3672 10.6667 10.0005 10.6667Z" fill="#0B4B54"/>
  <path d="M6.00635 6.66671C5.63301 6.66671 5.33301 6.36671 5.33301 6.00004C5.33301 5.63337 5.63301 5.33337 5.99967 5.33337C6.36634 5.33337 6.66634 5.63337 6.66634 6.00004C6.66634 6.36671 6.37301 6.66671 6.00635 6.66671Z" fill="#0B4B54"/>
  <path d="M6.00029 10.4999C5.87362 10.4999 5.74695 10.4533 5.64695 10.3533C5.45362 10.16 5.45362 9.83992 5.64695 9.64659L9.64695 5.64659C9.84029 5.45325 10.1603 5.45325 10.3536 5.64659C10.547 5.83992 10.547 6.15996 10.3536 6.35329L6.35362 10.3533C6.25362 10.4533 6.12695 10.4999 6.00029 10.4999Z" fill="#0B4B54"/>
</svg>
