<svg width="20" height="20" viewBox="0 0 20 20" fill="none" xmlns="http://www.w3.org/2000/svg">
  <path d="M7.08345 4.24998L9.33345 6.49998C9.66678 6.83331 10.3334 6.83331 10.6668 6.49998L12.9168 4.24998C13.5001 3.66665 13.0834 2.58331 12.2501 2.58331H7.75011C6.91678 2.66665 6.50011 3.66665 7.08345 4.24998Z" 
        stroke="#DFFF6D" stroke-width="1.5" stroke-miterlimit="10" stroke-linecap="round" stroke-linejoin="round"/>
  <path d="M7.08345 15.75L9.33345 13.5C9.66678 13.1667 10.3334 13.1667 10.6668 13.5L12.9168 15.75C13.5001 16.3333 13.0834 17.4167 12.2501 17.4167H7.75011C6.91678 17.3333 6.50011 16.3333 7.08345 15.75Z" 
        stroke="#DFFF6D" stroke-width="1.5" stroke-miterlimit="10" stroke-linecap="round" stroke-linejoin="round"/>
  <path d="M1.8335 9.58333L3.66683 6.66666C3.91683 6.16666 4.5835 6.08333 5.00016 6.5L7.91683 9.41666C8.25016 9.75 8.25016 10.25 7.91683 10.5833L5.00016 13.5C4.5835 13.9167 4.00016 13.8333 3.66683 13.3333L1.8335 10.4167C1.5835 10.1667 1.5835 9.83333 1.8335 9.58333Z" 
        stroke="#DFFF6D" stroke-width="1.5" stroke-miterlimit="10" stroke-linecap="round" stroke-linejoin="round"/>
  <path d="M18.1668 9.58333L16.3335 6.66666C16.0835 6.24999 15.4168 6.16666 15.0002 6.49999L12.0835 9.41666C11.7502 9.74999 11.7502 10.25 12.0835 10.5833L15.0002 13.5C15.4168 13.9167 16.0002 13.8333 16.3335 13.3333L18.1668 10.4167C18.4168 10.1667 18.4168 9.83333 18.1668 9.58333Z" 
        stroke="#DFFF6D" stroke-width="1.5" stroke-miterlimit="10" stroke-linecap="round" stroke-linejoin="round"/>
</svg>
