<svg width="42" height="12" viewBox="0 0 42 12" xmlns="http://www.w3.org/2000/svg">
  <path d="M23.2711 3.41146C23.4265 5.14781 23.6598 11.9114 30.6049 11.9114C37.5501 11.9114 38.9492 7.19493 39.3122 5.64017C39.6749 4.08518 39.7528 4.03346 39.7528 4.03346H41.1522V2.97106H39.5198C39.5198 2.97106 38.7176 1.73959 37.5244 0.949686C35.6843 -0.268333 31.7402 -0.0862795 28.7134 0.249998C24.9817 0.664662 23.5304 2.4787 23.5304 2.4787L23.323 2.63409H17.829L17.6216 2.4787C17.6216 2.4787 16.1705 0.664662 12.4388 0.249998C9.41205 -0.0862795 5.46764 -0.268335 3.62785 0.949452C2.43465 1.73936 1.63245 2.97083 1.63245 2.97083H0V4.03323H1.39938C1.39938 4.03323 1.47731 4.08518 1.84002 5.63994C2.20274 7.19493 3.60211 11.9112 10.547 11.9114C17.4922 11.9114 17.7255 5.14781 17.8809 3.41146H23.2711ZM37.3685 8.49064C35.762 10.7711 31.8487 12.3261 27.8322 10.9784C23.872 9.64975 23.971 3.59282 23.971 3.59282C24.5151 1.13104 29.6202 0.690402 29.6979 0.690402C29.7758 0.690402 33.1681 0.205697 35.477 0.82004C38.3015 1.57168 38.6904 3.25608 38.6904 3.25608C39.0272 5.09587 38.5167 6.8612 37.3685 8.49064ZM2.46155 3.25562C2.46155 3.25562 2.85025 1.57122 5.67497 0.819814C7.98392 0.205702 11.3761 0.690402 11.4538 0.690402C11.5315 0.690402 16.6369 1.13104 17.181 3.59282C17.181 3.59282 17.2798 9.64998 13.3196 10.9784C9.30281 12.3258 5.38971 10.7708 3.783 8.49041C2.63502 6.86074 2.12458 5.09563 2.46155 3.25562Z" 
        fill="#282828"/>
</svg>
