<svg width="20" height="20" viewBox="0 0 20 20" xmlns="http://www.w3.org/2000/svg">
  <path d="M11.6663 15.2083H8.33301C7.99134 15.2083 7.70801 14.9249 7.70801 14.5833C7.70801 14.2416 7.99134 13.9583 8.33301 13.9583H11.6663C12.008 13.9583 12.2913 14.2416 12.2913 14.5833C12.2913 14.9249 12.008 15.2083 11.6663 15.2083Z" fill="#282828"/>
  <path d="M1.66699 15.2083C1.32533 15.2083 1.04199 14.9249 1.04199 14.5833V6.24992C1.04199 2.57492 2.15866 1.45825 5.83366 1.45825C6.17533 1.45825 6.45866 1.74159 6.45866 2.08325C6.45866 2.42492 6.17533 2.70825 5.83366 2.70825C2.85866 2.70825 2.29199 3.26659 2.29199 6.24992V14.5833C2.29199 14.9249 2.00866 15.2083 1.66699 15.2083Z" fill="#282828"/>
  <path d="M18.3337 15.2083C17.992 15.2083 17.7087 14.9249 17.7087 14.5833V6.24992C17.7087 3.26659 17.142 2.70825 14.167 2.70825C13.8253 2.70825 13.542 2.42492 13.542 2.08325C13.542 1.74159 13.8253 1.45825 14.167 1.45825C17.842 1.45825 18.9587 2.57492 18.9587 6.24992V14.5833C18.9587 14.9249 18.6753 15.2083 18.3337 15.2083Z" fill="#282828"/>
  <path d="M6.00033 18.9584H4.00033C1.98366 18.9584 1.04199 18.0167 1.04199 16.0001V13.2584C1.04199 11.2417 1.98366 10.3 4.00033 10.3H6.00033C8.01699 10.3 8.95866 11.2417 8.95866 13.2584V16.0001C8.95866 18.0167 8.01699 18.9584 6.00033 18.9584ZM4.00033 11.55C2.67533 11.55 2.29199 11.9334 2.29199 13.2584V16.0001C2.29199 17.3251 2.67533 17.7084 4.00033 17.7084H6.00033C7.32533 17.7084 7.70866 17.3251 7.70866 16.0001V13.2584C7.70866 11.9334 7.32533 11.55 6.00033 11.55H4.00033Z" fill="#282828"/>
  <path d="M16.0003 18.9584H14.0003C11.9837 18.9584 11.042 18.0167 11.042 16.0001V13.2584C11.042 11.2417 11.9837 10.3 14.0003 10.3H16.0003C18.017 10.3 18.9587 11.2417 18.9587 13.2584V16.0001C18.9587 18.0167 18.017 18.9584 16.0003 18.9584ZM14.0003 11.55C12.6753 11.55 12.292 11.9334 12.292 13.2584V16.0001C12.292 17.3251 12.6753 17.7084 14.0003 17.7084H16.0003C17.3253 17.7084 17.7087 17.3251 17.7087 16.0001V13.2584C17.7087 11.9334 17.3253 11.55 16.0003 11.55H14.0003Z" fill="#292D32"/>
</svg>
