<svg width="22" height="20" viewBox="0 0 22 20" fill="none" xmlns="http://www.w3.org/2000/svg">
  <path d="M0.75 11.697C0.75 14.079 0.75 15.27 1.48223 16.01C1.9691 16.502 2.65328 16.6669 3.75 16.7222L7.75 16.75H13.75L17.75 16.7222C18.8467 16.6669 19.5309 16.502 20.0178 16.01C20.75 15.27 20.75 14.079 20.75 11.697V9.67581H16.05C15.3055 9.67581 14.9332 9.67581 14.632 9.57688C14.0231 9.37695 13.5457 8.89452 13.3479 8.27919C13.25 7.97473 13.25 7.59853 13.25 6.84613C13.25 5.71752 13.25 5.15322 13.1032 4.69653C12.9066 4.08499 12.5259 3.56096 12.0257 3.18971C11.9031 3.0987 11.8418 3.05319 11.3832 2.90159C10.9246 2.75 10.6888 2.75 10.2172 2.75H0.75V11.697Z" fill="#DFFF6D"/>
  
  <circle cx="15.75" cy="16.75" r="2" fill="#DFFF6D"/>
  <circle cx="5.75" cy="16.75" r="2" fill="#DFFF6D"/>

  <path d="M15.0712 4.75H13.25V5.75C13.25 7.63562 13.25 8.57843 13.8358 9.16421C14.4216 9.75 15.3644 9.75 17.25 9.75H20.75L19.4736 7.3795C18.7836 6.09811 18.4386 5.45742 17.8464 5.10371C17.2542 4.75 16.5266 4.75 15.0712 4.75Z" fill="#DFFF6D"/>

  <circle cx="15.75" cy="16.75" r="2" stroke="#141B34" stroke-width="1.5"/>
  <circle cx="5.75" cy="16.75" r="2" stroke="#141B34" stroke-width="1.5"/>

  <path d="M0.75 6.75V11.697C0.75 14.079 0.75 15.27 1.48223 16.01C1.9691 16.502 2.65328 16.6669 3.75 16.7222M11.1771 2.75C12.0904 3.0499 12.8064 3.77354 13.1032 4.69653C13.25 5.15322 13.25 5.71752 13.25 6.84613C13.25 7.59853 13.25 7.97473 13.3479 8.27919C13.5457 8.89452 14.0231 9.37695 14.632 9.57688C14.9332 9.67581 15.3055 9.67581 16.05 9.67581H20.75V11.697C20.75 14.079 20.75 15.27 20.0178 16.01C19.5309 16.502 18.8467 16.6669 17.75 16.7222M7.75 16.75H13.75" stroke="#141B34" stroke-width="1.5" stroke-linecap="round" stroke-linejoin="round"/>

  <path d="M13.25 4.75H15.0712C16.5266 4.75 17.2542 4.75 17.8464 5.10371C18.4386 5.45742 18.7836 6.09811 19.4736 7.3795L20.75 9.75" stroke="#141B34" stroke-width="1.5" stroke-linecap="round" stroke-linejoin="round"/>

  <path d="M6.07653 5.75L7.56309 4.57582C8.35436 3.95083 8.75 3.63833 8.75 3.25M6.07653 0.75L7.56309 1.92417C8.35436 2.54917 8.75 2.86168 8.75 3.25M8.75 3.25L0.75 3.25" stroke="#141B34" stroke-width="1.5" stroke-linecap="round" stroke-linejoin="round"/>
</svg>
