<svg width="40" height="10" viewBox="0 0 40 10" fill="none" xmlns="http://www.w3.org/2000/svg">
<g clip-path="url(#clip0_2438_27192)">
<path d="M36.1662 7.89358C35.2393 7.89358 34.5167 7.13407 34.5167 6.21178C34.5167 5.28954 35.2393 4.52998 36.1662 4.52998C37.0932 4.52998 37.8157 5.28954 37.8157 6.21178C37.8157 7.13407 37.0932 7.89358 36.1662 7.89358ZM35.7028 9.67033C36.4934 9.67033 37.5022 9.37196 38.0611 8.20554L38.1156 8.23266C37.8703 8.87011 37.8703 9.24989 37.8703 9.34484V9.49402H39.8606V2.92958H37.8703V3.07877C37.8703 3.17371 37.8703 3.55347 38.1156 4.19093L38.0611 4.21805C37.5022 3.05165 36.4934 2.75326 35.7028 2.75326C33.8079 2.75326 32.4719 4.24518 32.4719 6.21178C32.4719 8.17842 33.8079 9.67033 35.7028 9.67033ZM29.0094 2.75326C28.1096 2.75326 27.4007 3.06521 26.8282 4.21805L26.7737 4.19093C27.019 3.55347 27.019 3.17371 27.019 3.07877V2.92958H25.0287V9.49402H27.0736V6.03547C27.0736 5.12677 27.6052 4.55714 28.464 4.55714C29.3229 4.55714 29.7455 5.04541 29.7455 6.02193V9.49402H31.7903V5.31666C31.7903 3.82473 30.6179 2.75326 29.0094 2.75326ZM22.0705 4.21805L22.016 4.19093C22.2614 3.55347 22.2614 3.17371 22.2614 3.07877V2.92958H20.2711V9.49402H22.3159L22.3296 6.33385C22.3296 5.4116 22.8203 4.85552 23.6246 4.85552C23.8427 4.85552 24.02 4.88264 24.2244 4.93688V2.92958C23.3247 2.7397 22.5204 3.07877 22.0705 4.21805ZM15.568 7.89358C14.641 7.89358 13.9185 7.13407 13.9185 6.21178C13.9185 5.28954 14.641 4.52998 15.568 4.52998C16.495 4.52998 17.2175 5.28954 17.2175 6.21178C17.2175 7.13407 16.495 7.89358 15.568 7.89358ZM15.1045 9.67033C15.8952 9.67033 16.904 9.37196 17.4629 8.20554L17.5174 8.23266C17.272 8.87011 17.272 9.24989 17.272 9.34484V9.49402H19.2623V2.92958H17.272V3.07877C17.272 3.17371 17.272 3.55347 17.5174 4.19093L17.4629 4.21805C16.904 3.05165 15.8952 2.75326 15.1045 2.75326C13.2096 2.75326 11.8737 4.24518 11.8737 6.21178C11.8737 8.17842 13.2096 9.67033 15.1045 9.67033ZM9.02453 9.49402H11.0694V0H9.02453V9.49402ZM7.52497 0H5.43925C5.43925 1.69536 4.38957 3.2144 2.7946 4.29943L2.16752 4.73345V0H0V9.49402H2.16752V4.78769L5.75279 9.49402H8.39745L4.94848 4.99112C6.51618 3.86542 7.53859 2.11581 7.52497 0Z" fill="#FFA8CD"/>
</g>
<defs>
<clipPath id="clip0_2438_27192">
<rect width="40" height="9.67033" fill="white"/>
</clipPath>
</defs>
</svg>
