<svg width="20" height="20" viewBox="0 0 20 20" fill="none" xmlns="http://www.w3.org/2000/svg">
<g clip-path="url(#clip0_2179_15167)">
<path d="M10 0C4.48422 0 0 4.48422 0 10C0 15.5158 4.48422 20 10 20C15.5158 20 20 15.5158 20 10C20 4.48422 15.5158 0 10 0ZM10 19.0105C5.03156 19.0105 0.989492 14.9684 0.989492 10C0.989492 5.03156 5.03156 0.989492 10 0.989492C14.9684 0.989492 19.0105 5.03156 19.0105 10C19.0105 14.9684 14.9684 19.0105 10 19.0105Z" fill="black" style="fill:black;fill-opacity:1;"/>
<path d="M14.4889 8.16138C14.5782 7.61055 14.2041 7.09162 13.6533 7.00233C13.1024 6.91303 12.5835 7.28718 12.4942 7.83802C12.4049 8.38885 12.7791 8.90778 13.3299 8.99707C13.8807 9.08636 14.3996 8.71221 14.4889 8.16138Z" fill="black" style="fill:black;fill-opacity:1;"/>
<path d="M6.50514 9.01052C7.06322 9.01052 7.51564 8.5581 7.51564 8.00001C7.51564 7.44192 7.06322 6.9895 6.50514 6.9895C5.94705 6.9895 5.49463 7.44192 5.49463 8.00001C5.49463 8.5581 5.94705 9.01052 6.50514 9.01052Z" fill="black" style="fill:black;fill-opacity:1;"/>
<path d="M10.0123 14.7417C12.2228 14.7417 14.2228 13.3943 14.9808 11.4154C15.086 11.1628 14.9387 10.868 14.686 10.7838C14.6229 10.7628 14.5597 10.7417 14.4965 10.7417C14.286 10.7417 14.0965 10.868 14.0334 11.0575C13.4439 12.6575 11.8229 13.7312 9.99127 13.7312C8.18077 13.7312 6.55971 12.6575 5.94917 11.0575C5.84389 10.8049 5.57022 10.6785 5.3176 10.7628C5.06499 10.868 4.93866 11.1417 5.02288 11.3943C5.80182 13.3943 7.80182 14.7206 10.0123 14.7417Z" fill="black" style="fill:black;fill-opacity:1;"/>
</g>
<defs>
<clipPath id="clip0_2179_15167">
<rect width="20" height="20" fill="white" style="fill:white;fill-opacity:1;"/>
</clipPath>
</defs>
</svg>
