<svg width="20" height="20" viewBox="0 0 20 20" xmlns="http://www.w3.org/2000/svg">
  <path d="M7.70825 9.04199H12.2913C12.3213 9.04199 12.3526 9.05455 12.3782 9.08008C12.4038 9.10572 12.4163 9.13684 12.4163 9.16699C12.4163 9.19714 12.4038 9.22826 12.3782 9.25391C12.3526 9.27944 12.3213 9.29199 12.2913 9.29199H7.70825C7.6781 9.29199 7.64698 9.27955 7.62134 9.25391C7.59569 9.22826 7.58325 9.19714 7.58325 9.16699C7.58325 9.13684 7.59569 9.10572 7.62134 9.08008C7.64698 9.05443 7.6781 9.04199 7.70825 9.04199Z" stroke="#DFFF6D"/>
  <path d="M10 6.75C10.0301 6.75 10.0613 6.76244 10.0869 6.78809C10.1126 6.81373 10.125 6.84485 10.125 6.875V11.458C10.125 11.4881 10.1124 11.5193 10.0869 11.5449C10.0613 11.5706 10.0301 11.583 10 11.583C9.96985 11.583 9.93873 11.5706 9.91309 11.5449C9.88755 11.5193 9.875 11.4881 9.875 11.458V6.875C9.875 6.84485 9.88744 6.81373 9.91309 6.78809C9.93873 6.76244 9.96985 6.75 10 6.75Z" stroke="#DFFF6D"/>
  <path d="M9.9999 18.967C8.76657 18.967 7.5249 18.5003 6.55824 17.5753C4.0999 15.2087 1.38324 11.4337 2.40824 6.94199C3.33324 2.86699 6.89157 1.04199 9.9999 1.04199C13.1166 1.04199 16.6749 2.86699 17.5999 6.95033C18.6166 11.442 15.8999 15.2087 13.4416 17.5753C12.4749 18.5003 11.2332 18.967 9.9999 18.967ZM9.9999 2.29199C7.5749 2.29199 4.45824 3.58366 3.63324 7.21699C2.73324 11.142 5.1999 14.5253 7.43324 16.667C8.8749 18.0587 11.1332 18.0587 12.5749 16.667C14.7999 14.5253 17.2666 11.142 16.3832 7.21699C15.5499 3.58366 12.4249 2.29199 9.9999 2.29199Z" fill="#DFFF6D"/>
</svg>
