<svg width="16" height="16" viewBox="0 0 16 16" xmlns="http://www.w3.org/2000/svg">
  <path d="M7.99992 9.44679C6.57992 9.44679 5.41992 8.29346 5.41992 6.86679C5.41992 5.44012 6.57992 4.29346 7.99992 4.29346C9.41992 4.29346 10.5799 5.44679 10.5799 6.87346C10.5799 8.30012 9.41992 9.44679 7.99992 9.44679ZM7.99992 5.29346C7.13326 5.29346 6.41992 6.00012 6.41992 6.87346C6.41992 7.74679 7.12659 8.45346 7.99992 8.45346C8.87326 8.45346 9.57992 7.74679 9.57992 6.87346C9.57992 6.00012 8.86659 5.29346 7.99992 5.29346Z" fill="#666666"/>
  <path d="M7.99987 15.1735C7.01321 15.1735 6.01987 14.8002 5.24654 14.0602C3.27987 12.1668 1.10654 9.14683 1.92654 5.5535C2.66654 2.2935 5.51321 0.833496 7.99987 0.833496C10.4932 0.833496 13.3399 2.2935 14.0799 5.56016C14.8932 9.1535 12.7199 12.1668 10.7532 14.0602C9.97987 14.8002 8.98654 15.1735 7.99987 15.1735ZM7.99987 1.8335C6.05987 1.8335 3.56654 2.86683 2.90654 5.7735C2.18654 8.9135 4.15987 11.6202 5.94654 13.3335C7.09987 14.4468 8.90654 14.4468 10.0599 13.3335C11.8399 11.6202 13.8132 8.9135 13.1065 5.7735C12.4399 2.86683 9.93987 1.8335 7.99987 1.8335Z" fill="#666666"/>
</svg>
