<svg width="220" height="43" viewBox="0 0 220 43" fill="none" xmlns="http://www.w3.org/2000/svg">
<g clip-path="url(#clip0_2019_6939)">
<path d="M190.81 19.2199C191.92 16.9999 193.79 15.2399 196.08 14.2699C197.39 13.7199 198.77 13.4299 200.18 13.4299C201.59 13.4299 202.85 13.6899 204.12 14.1999C209.47 16.3799 212.06 22.4999 209.89 27.8499C208.28 31.8199 204.46 34.3899 200.18 34.3899C198.83 34.3899 197.51 34.1299 196.24 33.6199C194.69 32.9899 193.35 32.0299 192.26 30.7799C192.24 30.7499 192.21 30.7299 192.19 30.6999C192.12 30.6199 192.05 30.5399 191.99 30.4599C191.99 30.4599 191.99 30.4599 191.98 30.4499C191.38 29.6999 190.89 28.8699 190.52 27.9799C189.55 25.6899 189.44 23.1199 190.19 20.7599C190.28 20.4899 190.37 20.2299 190.47 19.9799C190.47 19.9799 190.47 19.9799 190.47 19.9699C190.57 19.7299 190.68 19.4799 190.81 19.2299V19.2199Z" fill="#B3B3B3" style="fill:#B3B3B3;fill:color(display-p3 0.7020 0.7020 0.7020);fill-opacity:1;"/>
<path d="M219.1 8.02V34.24C219.1 38.67 215.51 42.26 211.08 42.26H184.86C180.43 42.26 176.85 38.67 176.85 34.24V8.02C176.85 3.59 180.44 0 184.86 0H193.95L186.93 17.28C186.93 17.28 186.93 17.28 186.93 17.29C186.76 17.63 186.6 17.98 186.45 18.34C186.3 18.7 186.17 19.07 186.05 19.44L181.14 31.52C180.7 32.61 181.22 33.86 182.32 34.31C183.23 34.68 184.25 34.37 184.82 33.63C184.86 33.56 184.9 33.5 184.95 33.44C185.59 32.58 186.75 32.23 187.79 32.65C188.09 32.77 188.35 32.95 188.57 33.16C188.68 33.29 188.78 33.42 188.9 33.55C190.39 35.3 192.31 36.72 194.59 37.65C196.41 38.39 198.3 38.74 200.16 38.74C206.01 38.74 211.55 35.25 213.89 29.5C216.97 21.92 213.32 13.28 205.74 10.2C203.91 9.46 202.03 9.11 200.17 9.11C199.17 9.11 198.17 9.21 197.2 9.41C196.23 9.61 195.29 9.9 194.38 10.29L198.56 0.01H211.07C215.5 0.01 219.09 3.6 219.09 8.03L219.1 8.02Z" fill="#0B4B54" style="fill:#0B4B54;fill:color(display-p3 0.0431 0.2941 0.3294);fill-opacity:1;"/>
<path d="M16.06 16.3299H5.55C3.76 16.3299 2.79 15.2199 2.79 13.5699C2.79 12.2599 3.35 11.1499 4.65 10.0099L2.45 8.4599C0.92 9.7399 0 11.3399 0 13.5899C0 16.8799 1.94 18.9399 5.33 18.9399L18.84 18.9199V7.1499H16.05V16.3299H16.06Z" fill="#141A00" style="fill:#141A00;fill:color(display-p3 0.0784 0.1020 0.0000);fill-opacity:1;"/>
<path d="M7.86965 5.4599C8.71965 5.4599 9.34965 4.8099 9.34965 3.9299C9.34965 3.0499 8.71965 2.3999 7.86965 2.3999C7.01965 2.3999 6.38965 3.0299 6.38965 3.9299C6.38965 4.8299 7.03965 5.4599 7.86965 5.4599Z" fill="#141A00" style="fill:#141A00;fill:color(display-p3 0.0784 0.1020 0.0000);fill-opacity:1;"/>
<path d="M11.6997 5.4599C12.5497 5.4599 13.1797 4.8099 13.1797 3.9299C13.1797 3.0499 12.5497 2.3999 11.6997 2.3999C10.8497 2.3999 10.2197 3.0299 10.2197 3.9299C10.2197 4.8299 10.8697 5.4599 11.6997 5.4599Z" fill="#141A00" style="fill:#141A00;fill:color(display-p3 0.0784 0.1020 0.0000);fill-opacity:1;"/>
<path d="M33.73 7.14998H30.95V16.33H28.38H25.5V0.97998H22.71V18.92H28.38H33.73V7.14998Z" fill="#141A00" style="fill:#141A00;fill:color(display-p3 0.0784 0.1020 0.0000);fill-opacity:1;"/>
<path d="M34.27 20.79C33.45 20.79 32.79 21.42 32.79 22.32C32.79 23.22 33.44 23.85 34.27 23.85C35.1 23.85 35.75 23.2 35.75 22.32C35.75 21.44 35.12 20.79 34.27 20.79Z" fill="#141A00" style="fill:#141A00;fill:color(display-p3 0.0784 0.1020 0.0000);fill-opacity:1;"/>
<path d="M30.44 20.79C29.62 20.79 28.96 21.42 28.96 22.32C28.96 23.22 29.61 23.85 30.44 23.85C31.27 23.85 31.92 23.2 31.92 22.32C31.92 21.44 31.29 20.79 30.44 20.79Z" fill="#141A00" style="fill:#141A00;fill:color(display-p3 0.0784 0.1020 0.0000);fill-opacity:1;"/>
<path d="M76.0097 20.86C75.0897 20.86 74.3896 21.56 74.3896 22.53C74.3896 23.5 75.0897 24.23 76.0097 24.23C76.9297 24.23 77.6296 23.5 77.6296 22.53C77.6296 21.56 76.9297 20.86 76.0097 20.86Z" fill="#141A00" style="fill:#141A00;fill:color(display-p3 0.0784 0.1020 0.0000);fill-opacity:1;"/>
<path d="M90.2501 16.33H85.6701V0.97998H82.8801V16.33H78.9301C78.3301 16.33 77.8201 16.21 77.4001 15.97C77.5501 15.41 77.6201 14.76 77.6201 14.03V7.14998H74.8301V14C74.8301 15.65 74.3501 16.32 72.5501 16.32H67.9501V14.5C67.9501 10.26 65.6501 6.62998 60.6601 6.62998C54.5101 6.62998 51.3401 12.13 50.5101 16.32C49.1501 16.25 48.7701 15.76 48.7701 14V8.32998H45.9801V11.19C45.3301 11.36 44.6201 11.46 43.8701 11.46C43.1201 11.46 42.3901 11.36 41.7401 11.19V7.14998H38.9501V18.97C38.9501 21.1 38.1001 21.92 36.1201 21.8L36.5601 24.42C39.7801 24.37 41.7401 22.39 41.7401 18.97V13.79C42.3901 13.96 43.1201 14.06 43.8701 14.06C44.6201 14.06 45.3201 13.96 45.9801 13.79V14.03C45.9801 17.28 47.5501 18.92 50.8201 18.92H72.7601C74.3301 18.92 75.5001 18.58 76.2701 17.88C77.1401 18.56 78.2801 18.92 79.6601 18.92H93.0001V0.97998H90.2201V16.33H90.2501ZM65.1901 16.33H53.3201C54.1401 12.43 57.2001 9.22998 60.7601 9.22998C63.4701 9.22998 65.1901 11.07 65.1901 14.51V16.33Z" fill="#141A00" style="fill:#141A00;fill:color(display-p3 0.0784 0.1020 0.0000);fill-opacity:1;"/>
<path d="M104.59 4.4599C105.44 4.4599 106.07 3.8099 106.07 2.9299C106.07 2.0499 105.44 1.3999 104.59 1.3999C103.74 1.3999 103.11 2.0299 103.11 2.9299C103.11 3.8299 103.76 4.4599 104.59 4.4599Z" fill="#141A00" style="fill:#141A00;fill:color(display-p3 0.0784 0.1020 0.0000);fill-opacity:1;"/>
<path d="M108.41 4.4599C109.26 4.4599 109.89 3.8099 109.89 2.9299C109.89 2.0499 109.26 1.3999 108.41 1.3999C107.56 1.3999 106.93 2.0299 106.93 2.9299C106.93 3.8299 107.58 4.4599 108.41 4.4599Z" fill="#141A00" style="fill:#141A00;fill:color(display-p3 0.0784 0.1020 0.0000);fill-opacity:1;"/>
<path d="M121.56 5.4599C122.41 5.4599 123.04 4.8099 123.04 3.9299C123.04 3.0499 122.41 2.3999 121.56 2.3999C120.71 2.3999 120.08 3.0299 120.08 3.9299C120.08 4.8299 120.73 5.4599 121.56 5.4599Z" fill="#141A00" style="fill:#141A00;fill:color(display-p3 0.0784 0.1020 0.0000);fill-opacity:1;"/>
<path d="M117.74 5.4599C118.59 5.4599 119.22 4.8099 119.22 3.9299C119.22 3.0499 118.59 2.3999 117.74 2.3999C116.89 2.3999 116.26 3.0299 116.26 3.9299C116.26 4.8299 116.91 5.4599 117.74 5.4599Z" fill="#141A00" style="fill:#141A00;fill:color(display-p3 0.0784 0.1020 0.0000);fill-opacity:1;"/>
<path d="M166.63 7.12997V14.01C166.63 15.73 166.15 16.33 164.23 16.33C163.41 16.33 162.78 16.21 162.29 15.94C162.44 15.38 162.51 14.75 162.51 14.03V8.33997H159.72V14.01C159.72 15.73 159.24 16.33 157.32 16.33C156.5 16.33 155.87 16.21 155.38 15.94C155.53 15.38 155.6 14.75 155.6 14.03V9.54997H152.82V14.01C152.82 15.68 152.34 16.33 150.54 16.33H122.33C121.72 16.33 121.22 16.21 120.8 15.97C120.95 15.41 121.02 14.76 121.02 14.03V7.14997H118.23V14C118.23 15.65 117.75 16.32 115.95 16.32H114.64C112.85 16.32 112.36 15.64 112.36 14V6.31997H109.57V6.77997C108.53 6.41997 107.44 6.21997 106.45 6.21997C103.01 6.21997 100.13 8.83997 100.13 12.18C100.13 15.52 103.01 18.11 106.45 18.11C107.76 18.11 109.19 17.75 110.33 17.19C111.08 18.35 112.41 18.91 114.42 18.91H116.16C117.73 18.91 118.9 18.57 119.67 17.87C120.54 18.55 121.68 18.91 123.06 18.91H150.74C152.31 18.91 153.45 18.57 154.25 17.87C155.1 18.55 156.26 18.91 157.76 18.91C159.26 18.91 160.38 18.57 161.15 17.87C162 18.55 163.16 18.91 164.66 18.91C167.93 18.91 169.38 17.26 169.38 14.02V7.11997H166.59L166.63 7.12997ZM106.48 15.51C104.49 15.51 102.94 14.03 102.94 12.19C102.94 10.35 104.51 8.81997 106.48 8.81997C107.55 8.81997 108.66 9.12997 109.6 9.63997V14.02C109.6 14.24 109.6 14.43 109.62 14.63C108.58 15.21 107.51 15.5 106.47 15.5L106.48 15.51Z" fill="#141A00" style="fill:#141A00;fill:color(display-p3 0.0784 0.1020 0.0000);fill-opacity:1;"/>
<path d="M5.89 29.7199C4.85 29.7199 4.14 30.1099 4.14 30.8799C4.14 33.4699 11.47 32.0399 11.45 37.0499C11.45 39.7599 9.11 41.2299 6.07 41.2299C3.81 41.2299 1.55 40.3699 0 39.0299L1.24 36.4999C2.65 37.7799 4.66 38.5799 6.11 38.5799C7.39 38.5799 8.15 38.0899 8.15 37.2099C8.15 34.5599 0.82 36.1099 0.82 31.1599C0.82 28.6499 2.96 27.0599 6.14 27.0599C8.06 27.0599 9.99 27.6699 11.36 28.5699L10.16 31.1399C8.71 30.2599 6.98 29.7299 5.88 29.7299L5.89 29.7199Z" fill="#B3B3B3" style="fill:#B3B3B3;fill:color(display-p3 0.7020 0.7020 0.7020);fill-opacity:1;"/>
<path d="M18.6195 27.3099V41.0599H15.5195V27.3099H18.6195Z" fill="#B3B3B3" style="fill:#B3B3B3;fill:color(display-p3 0.7020 0.7020 0.7020);fill-opacity:1;"/>
<path d="M33.6802 27.3099V29.9399H29.4802V41.0599H26.3802V29.9399H22.2002V27.3099H33.6902H33.6802Z" fill="#B3B3B3" style="fill:#B3B3B3;fill:color(display-p3 0.7020 0.7020 0.7020);fill-opacity:1;"/>
<path d="M47.3696 27.3099V29.9399H43.1696V41.0599H40.0696V29.9399H35.8896V27.3099H47.3797H47.3696Z" fill="#B3B3B3" style="fill:#B3B3B3;fill:color(display-p3 0.7020 0.7020 0.7020);fill-opacity:1;"/>
<path d="M58.5697 38.3799H52.2097L51.1297 41.0499H47.9297L53.8997 27.2999H57.0997L62.9697 41.0499H59.6497L58.5697 38.3799ZM57.5597 35.8899L55.3997 30.5499L53.2197 35.8899H57.5597Z" fill="#B3B3B3" style="fill:#B3B3B3;fill:color(display-p3 0.7020 0.7020 0.7020);fill-opacity:1;"/>
<path d="M69.39 27.3099V33.0399H75.62V27.3099H78.72V41.0599H75.62V35.6399H69.39V41.0599H66.29V27.3099H69.39Z" fill="#B3B3B3" style="fill:#B3B3B3;fill:color(display-p3 0.7020 0.7020 0.7020);fill-opacity:1;"/>
<path d="M102.72 34.16C102.72 38.19 99.54 41.27 95.34 41.27C91.14 41.27 87.96 38.21 87.96 34.16C87.96 30.11 91.14 27.09 95.34 27.09C99.54 27.09 102.72 30.13 102.72 34.16ZM91.13 34.16C91.13 36.63 93.07 38.56 95.37 38.56C97.67 38.56 99.53 36.64 99.53 34.16C99.53 31.68 97.66 29.8 95.37 29.8C93.08 29.8 91.13 31.7 91.13 34.16Z" fill="#B3B3B3" style="fill:#B3B3B3;fill:color(display-p3 0.7020 0.7020 0.7020);fill-opacity:1;"/>
<path d="M117.98 32.0799C117.98 35.2799 115.98 37.1299 112.48 37.1299H109.75V41.0599H106.65V27.3099H112.48C115.98 27.3099 117.98 29.0399 117.98 32.0799ZM115.03 32.1799C115.03 30.6499 114.05 29.8799 112.32 29.8799H109.75V34.5299H112.32C114.05 34.5299 115.03 33.7399 115.03 32.1699V32.1799Z" fill="#B3B3B3" style="fill:#B3B3B3;fill:color(display-p3 0.7020 0.7020 0.7020);fill-opacity:1;"/>
<path d="M131.98 27.3099V29.9399H127.78V41.0599H124.68V29.9399H120.5V27.3099H131.99H131.98Z" fill="#B3B3B3" style="fill:#B3B3B3;fill:color(display-p3 0.7020 0.7020 0.7020);fill-opacity:1;"/>
<path d="M138.64 27.3099V41.0599H135.54V27.3099H138.64Z" fill="#B3B3B3" style="fill:#B3B3B3;fill:color(display-p3 0.7020 0.7020 0.7020);fill-opacity:1;"/>
<path d="M149.95 29.8C147.59 29.8 145.77 31.67 145.77 34.1C145.77 36.53 147.6 38.44 149.95 38.44C151.19 38.44 152.54 37.81 153.52 36.81L155.35 38.79C153.9 40.3 151.79 41.26 149.79 41.26C145.68 41.26 142.58 38.18 142.58 34.13C142.58 30.08 145.74 27.08 149.91 27.08C151.89 27.08 153.98 27.96 155.33 29.38L153.52 31.6C152.58 30.48 151.22 29.79 149.95 29.79V29.8Z" fill="#B3B3B3" style="fill:#B3B3B3;fill:color(display-p3 0.7020 0.7020 0.7020);fill-opacity:1;"/>
<path d="M163.85 29.7199C162.81 29.7199 162.1 30.1099 162.1 30.8799C162.1 33.4699 169.43 32.0399 169.41 37.0499C169.41 39.7599 167.07 41.2299 164.03 41.2299C161.77 41.2299 159.51 40.3699 157.96 39.0299L159.2 36.4999C160.61 37.7799 162.62 38.5799 164.07 38.5799C165.35 38.5799 166.11 38.0899 166.11 37.2099C166.11 34.5599 158.78 36.1099 158.78 31.1599C158.78 28.6499 160.92 27.0599 164.1 27.0599C166.02 27.0599 167.95 27.6699 169.32 28.5699L168.12 31.1399C166.67 30.2599 164.94 29.7299 163.84 29.7299L163.85 29.7199Z" fill="#B3B3B3" style="fill:#B3B3B3;fill:color(display-p3 0.7020 0.7020 0.7020);fill-opacity:1;"/>
</g>
<defs>
<clipPath id="clip0_2019_6939">
<rect width="219.1" height="42.25" fill="white" style="fill:white;fill-opacity:1;"/>
</clipPath>
</defs>
</svg>
