<svg width="43" height="43" viewBox="0 0 43 43" fill="none" xmlns="http://www.w3.org/2000/svg">
<path d="M13.9602 19.2199C15.0702 16.9999 16.9402 15.2399 19.2302 14.2699C20.5402 13.7199 21.9202 13.4299 23.3302 13.4299C24.7402 13.4299 26.0002 13.6899 27.2702 14.1999C32.6202 16.3799 35.2102 22.4999 33.0402 27.8499C31.4302 31.8199 27.6102 34.3899 23.3302 34.3899C21.9802 34.3899 20.6602 34.1299 19.3902 33.6199C17.8402 32.9899 16.5002 32.0299 15.4102 30.7799C15.3902 30.7499 15.3602 30.7299 15.3402 30.6999C15.2702 30.6199 15.2002 30.5399 15.1402 30.4599C15.1402 30.4599 15.1402 30.4599 15.1302 30.4499C14.5302 29.6999 14.0402 28.8699 13.6702 27.9799C12.7002 25.6899 12.5902 23.1199 13.3402 20.7599C13.4302 20.4899 13.5202 20.2299 13.6202 19.9799C13.6202 19.9799 13.6202 19.9799 13.6202 19.9699C13.7202 19.7299 13.8302 19.4799 13.9602 19.2299V19.2199Z" fill="#B3B3B3" style="fill:#B3B3B3;fill:color(display-p3 0.7020 0.7020 0.7020);fill-opacity:1;"/>
<path d="M42.25 8.02V34.24C42.25 38.67 38.66 42.26 34.23 42.26H8.00999C3.57999 42.26 0 38.67 0 34.24V8.02C0 3.59 3.58999 0 8.00999 0H17.1L10.08 17.28C10.08 17.28 10.08 17.28 10.08 17.29C9.90999 17.63 9.74999 17.98 9.59999 18.34C9.44999 18.7 9.32 19.07 9.2 19.44L4.28999 31.52C3.84999 32.61 4.37 33.86 5.47 34.31C6.38 34.68 7.4 34.37 7.97 33.63C8.01 33.56 8.04999 33.5 8.09999 33.44C8.73999 32.58 9.89999 32.23 10.94 32.65C11.24 32.77 11.5 32.95 11.72 33.16C11.83 33.29 11.93 33.42 12.05 33.55C13.54 35.3 15.46 36.72 17.74 37.65C19.56 38.39 21.45 38.74 23.31 38.74C29.16 38.74 34.7 35.25 37.04 29.5C40.12 21.92 36.47 13.28 28.89 10.2C27.06 9.46 25.18 9.11 23.32 9.11C22.32 9.11 21.32 9.21 20.35 9.41C19.38 9.61 18.44 9.9 17.53 10.29L21.71 0.01H34.22C38.65 0.01 42.24 3.6 42.24 8.03L42.25 8.02Z" fill="#0B4B54" style="fill:#0B4B54;fill:color(display-p3 0.0431 0.2941 0.3294);fill-opacity:1;"/>
</svg>
