<svg width="28" height="20" viewBox="0 0 28 20" xmlns="http://www.w3.org/2000/svg" fill="none">
  <!-- Rounded rectangle -->
  <rect x="0.6087" y="0.6087" width="26.7826" height="18.2609" rx="2.43478" fill="white" stroke="#D9D9D9" stroke-width="1.21739"/>

  <!-- Red shape -->
  <path d="M10.2119 3.6521C13.4982 3.6522 16.1619 6.3472 16.1621 9.6716C16.1621 12.9963 13.4984 15.692 10.2119 15.6921C6.9253 15.6921 4.2607 12.9964 4.2607 9.6716C4.2610 6.3471 6.9255 3.6521 10.2119 3.6521Z" fill="#ED0006"/>

  <!-- Blue shape -->
  <path d="M17.9321 3.6519C21.2185 3.6520 23.8821 6.3469 23.8823 9.6714C23.8823 12.9961 21.2186 15.6918 17.9321 15.6919C14.6455 15.6919 11.9810 12.9961 11.9810 9.6714C11.9812 6.3469 14.6457 3.6519 17.9321 3.6519Z" fill="#0099DF"/>

  <!-- Purple overlapping shape -->
  <path d="M14.0713 5.0923C15.3504 6.1965 16.1631 7.8380 16.1631 9.6724C16.1630 11.5065 15.3502 13.1473 14.0713 14.2515C12.7928 13.1473 11.9815 11.5061 11.9814 9.6724C11.9814 7.8384 12.7926 6.1965 14.0713 5.0923Z" fill="#6C6BBD"/>
</svg>
