<svg width="20" height="24" viewBox="0 0 20 24" fill="none" xmlns="http://www.w3.org/2000/svg">
<g clip-path="url(#clip0_2054_9399)">
<path d="M0.80438 23.857H1.05361H5.49015H6.28729H7.17008H8.00787H12.1755H12.6746H13.7121H14.3043H18.9321H19.1951H19.8635L19.7169 23.2759C19.6691 23.0863 19.6021 22.9051 19.5182 22.7346C19.514 22.726 19.5097 22.7174 19.5054 22.7089C19.4888 22.676 19.4716 22.6435 19.4538 22.6115C19.4201 22.5511 19.3842 22.4922 19.3463 22.4349C19.1793 22.183 18.972 21.963 18.7336 21.7849C18.7228 21.7768 18.7119 21.7688 18.7009 21.7609C18.6242 21.7054 18.5443 21.6543 18.4616 21.6077C18.4498 21.6011 18.438 21.5945 18.426 21.5881C18.2949 21.517 18.1569 21.4575 18.0133 21.4107L14.5865 20.2958L13.9322 20.0829L13.8646 20.0609C13.8285 20.0491 13.7924 20.0375 13.7564 20.026C13.7456 20.0225 13.7349 20.0191 13.7241 20.0157C13.697 20.0072 13.67 19.9987 13.6429 19.9903C13.6325 19.9871 13.6222 19.9838 13.6119 19.9807C13.6091 19.9798 13.6063 19.9789 13.6035 19.9781C13.6035 19.9752 13.6036 19.9724 13.6035 19.9696C13.5973 19.5868 13.4605 19.1585 13.2992 18.8188C13.1701 18.547 12.9603 18.2475 12.6743 18.153C12.5818 18.1225 12.3546 18.123 12.3617 18.2733C12.3641 18.3236 12.3634 18.3735 12.3601 18.423C12.3443 17.9854 12.3458 17.547 12.348 17.1081C13.0624 16.6367 13.7365 16.0432 14.1264 15.4149C14.2592 15.201 14.3868 14.9406 14.5076 14.6503C14.5614 14.6591 14.6247 14.6569 14.6989 14.6427C15.6155 14.467 16.587 13.7697 16.9091 12.9504C17.1044 12.4536 17.1624 11.9072 17.0492 11.3944C16.9159 10.7904 16.4885 10.3847 15.8601 10.4245L15.8861 10.3711C16.8443 9.99772 16.8177 9.32568 16.8177 9.32568C17.7239 9.24168 17.444 7.94051 17.444 7.94051C17.5816 8.18137 17.9739 8.52455 18.2638 8.37278C18.6574 8.16678 18.3645 7.44991 18.2213 7.16613C18.1022 6.92986 17.9561 6.69988 17.787 6.49929C18.0473 6.69235 18.2775 6.71946 18.4444 6.69708C18.6343 6.67162 18.7665 6.48807 18.7414 6.28876C18.6507 5.56937 17.7246 4.79605 17.7246 4.79605C18.3482 4.86155 18.317 4.53401 18.317 4.53401C18.3613 3.79618 16.7852 2.78913 16.2883 2.49058C16.2048 2.44044 16.1372 2.36545 16.0952 2.27462C15.961 1.98508 15.4484 1.29514 13.577 1.11054C13.4629 1.09928 13.3561 1.04545 13.2766 0.958646C12.7231 0.354379 11.463 0.44463 10.9442 0.511869C10.8044 0.529994 10.6624 0.500469 10.5403 0.426578C9.41437 -0.254611 7.77884 0.505184 7.77884 0.505184C7.77884 0.505184 7.3224 0.359323 6.4806 0.457591C5.63879 0.555859 4.87927 1.32407 4.87927 1.32407C2.31311 1.77339 2.69138 2.72895 2.69138 2.72895C2.69138 2.72895 0.809203 4.50636 0.936095 5.0618C1.06299 5.61724 2.12039 5.10624 2.12039 5.10624C1.5071 5.39507 0.0267255 7.03916 0.301651 7.55016C0.469443 7.86205 1.21102 7.5946 1.21102 7.5946C0.859616 8.14199 0.694718 8.72821 0.672145 8.99622C0.65609 9.18687 0.83285 9.33116 1.00424 9.26629C1.65009 9.02183 2.64908 7.9723 2.64908 7.9723C2.18569 9.17721 2.12305 9.79161 2.16116 10.1009C2.18426 10.2884 2.36991 10.402 2.53707 10.332C2.82693 10.2106 3.0997 9.97222 3.32178 9.73143C3.4089 9.95947 3.51232 10.201 3.62671 10.4278C3.11051 10.4789 2.7607 10.8586 2.64242 11.3945C2.52925 11.9072 2.58728 12.4536 2.78257 12.9504C3.10464 13.7697 4.07614 14.4671 4.99275 14.6427C5.03698 14.6512 5.07726 14.6553 5.11404 14.6554C5.23936 14.9789 5.37488 15.2677 5.5197 15.5004C5.95522 16.2002 6.7739 16.854 7.61568 17.3353C7.6159 17.4026 7.61604 17.47 7.61604 17.5373V17.5376C7.61604 17.8313 7.61323 18.1248 7.60274 18.4179C7.59975 18.3701 7.5992 18.3219 7.60152 18.2733C7.60861 18.123 7.38142 18.1225 7.28892 18.1531C7.00296 18.2475 6.79312 18.5471 6.66406 18.8188C6.50274 19.1585 6.36591 19.5868 6.35971 19.9697C6.35963 19.9746 6.3597 19.9796 6.35969 19.9845C6.35809 19.9851 6.35649 19.9856 6.3549 19.9861C6.32738 19.9952 6.29988 20.0044 6.27237 20.0137C6.26202 20.0171 6.25168 20.0206 6.24134 20.0242C6.20588 20.0362 6.17043 20.0484 6.13497 20.0609C6.13494 20.0609 6.13491 20.0609 6.13487 20.0609L1.98602 21.4108C1.73792 21.4915 1.50674 21.6104 1.29844 21.7609C1.28748 21.7688 1.27657 21.7768 1.26574 21.7849C1.22239 21.8173 1.18008 21.8511 1.13884 21.8861C1.10792 21.9125 1.0776 21.9395 1.04793 21.9673C1.02814 21.9858 1.00863 22.0047 0.989417 22.0238C0.979811 22.0334 0.970274 22.0431 0.960808 22.0528C0.951341 22.0625 0.941952 22.0723 0.932634 22.0822C0.923315 22.0921 0.914074 22.1021 0.904903 22.1121C0.611495 22.4333 0.39452 22.8316 0.282415 23.2758L0.135742 23.857H0.80438V23.857Z" fill="white" style="fill:white;fill-opacity:1;"/>
<path d="M0.136107 24.0002H7.17045H12.675H19.8639C19.9035 24.0002 19.941 23.9821 19.9668 23.9508C19.9685 23.9488 19.9701 23.9466 19.9718 23.9444C19.9895 23.9202 19.9991 23.8911 20 23.8612C20.0002 23.8531 19.9997 23.8449 19.9986 23.8368C19.9979 23.8314 19.9968 23.8259 19.9955 23.8206L19.8489 23.2396C19.7991 23.0424 19.7287 22.8505 19.6395 22.6691C19.635 22.6601 19.6305 22.6511 19.626 22.6421C19.6081 22.6066 19.5898 22.5721 19.5716 22.5395C19.5628 22.5237 19.5538 22.5079 19.5446 22.4922C19.5171 22.4451 19.4882 22.3986 19.4583 22.3535C19.37 22.2203 19.2716 22.0961 19.1638 21.9817C19.0559 21.8673 18.9387 21.7627 18.8129 21.6686C18.8014 21.6601 18.79 21.6517 18.7784 21.6433C18.6976 21.5849 18.6127 21.5306 18.5263 21.4819C18.5139 21.4749 18.5013 21.468 18.4888 21.4612C18.425 21.4267 18.3597 21.3949 18.2932 21.3658C18.2148 21.3314 18.1349 21.3008 18.0539 21.2744L13.9054 19.9247C13.8686 19.9126 13.8318 19.9007 13.7949 19.889C13.7845 19.8857 13.7741 19.8824 13.7637 19.8791C13.7544 19.8762 13.7451 19.8732 13.7358 19.8702C13.7128 19.5327 13.6005 19.1325 13.4213 18.7552C13.2915 18.4819 13.0637 18.1319 12.7155 18.0169C12.6613 17.999 12.5732 17.9871 12.4863 17.9997C12.4822 17.7274 12.4828 17.456 12.484 17.1871C12.7782 16.9893 13.0549 16.7778 13.2993 16.5634C13.7032 16.2091 14.02 15.8491 14.2408 15.4933C14.3661 15.2914 14.4842 15.0537 14.5939 14.7984C14.6349 14.7973 14.6781 14.7924 14.7236 14.7837C15.1956 14.6932 15.6867 14.4698 16.1064 14.1545C16.5429 13.8267 16.8727 13.4186 17.0352 13.0053C17.1389 12.7415 17.2046 12.4681 17.2306 12.1928C17.2574 11.9088 17.2411 11.6294 17.1821 11.3624C17.1014 10.9964 16.9239 10.7022 16.669 10.5114C16.5562 10.427 16.4307 10.3654 16.2954 10.3268C16.588 10.1456 16.746 9.93843 16.8306 9.7779C16.8984 9.6492 16.9293 9.53428 16.9431 9.45151C17.1469 9.40868 17.3085 9.30287 17.4244 9.13596C17.5847 8.90512 17.623 8.59904 17.6211 8.35024C17.6554 8.37795 17.6907 8.40354 17.7263 8.4263C17.9414 8.56395 18.154 8.59049 18.3249 8.50106C18.4426 8.43941 18.5265 8.33618 18.5673 8.20254C18.68 7.83378 18.4472 7.30828 18.3419 7.09947C18.2956 7.00755 18.2466 6.91895 18.1952 6.83393C18.2981 6.85133 18.3887 6.84907 18.462 6.83923C18.5892 6.82217 18.7024 6.75393 18.7806 6.64708C18.8596 6.53932 18.8937 6.4055 18.8766 6.27028C18.8114 5.75319 18.3681 5.2283 18.0734 4.93054C18.1919 4.90729 18.2849 4.86071 18.3512 4.79101C18.4311 4.70706 18.4561 4.60342 18.4536 4.534C18.4629 4.32996 18.3765 4.10269 18.1966 3.85826C18.0547 3.66549 17.8511 3.4563 17.5913 3.2365C17.1386 2.85343 16.6231 2.52715 16.3562 2.36674C16.2957 2.33038 16.2478 2.27699 16.2179 2.21233C16.1359 2.03553 15.9547 1.77362 15.5563 1.52995C15.081 1.23919 14.4195 1.05027 13.5901 0.968453C13.5082 0.960371 13.4318 0.921775 13.375 0.859783C13.1123 0.572988 12.6868 0.398566 12.1105 0.341371C11.6612 0.296785 11.2194 0.332455 10.9279 0.370234C10.8173 0.38456 10.704 0.360665 10.6086 0.302946C10.3339 0.136794 10.0095 0.0379545 9.64431 0.00917293C9.35707 -0.0134715 9.04382 0.00700736 8.71335 0.0700213C8.25281 0.157837 7.89153 0.302235 7.76877 0.35492C7.62496 0.319159 7.17792 0.232627 6.46587 0.315752C5.67648 0.40789 4.97376 1.04028 4.81675 1.19045C4.16416 1.30747 3.64265 1.46863 3.26608 1.66966C2.95653 1.83492 2.74179 2.02834 2.62781 2.24455C2.53194 2.42641 2.52817 2.58269 2.54111 2.68003C2.39914 2.81724 2.02607 3.18402 1.6668 3.58998C0.807173 4.56136 0.762741 4.91439 0.804092 5.09543C0.836008 5.23513 0.91608 5.34121 1.03567 5.40222C1.13557 5.45319 1.26332 5.4725 1.41744 5.46019C1.28254 5.586 1.14265 5.72872 1.00476 5.88236C0.581656 6.35383 0.279544 6.81429 0.175903 7.14569C0.115409 7.33911 0.117968 7.49895 0.183518 7.62079C0.282998 7.80569 0.502844 7.87657 0.836988 7.83144C0.866313 7.82747 0.895203 7.82279 0.923237 7.81765C0.833993 7.98874 0.755383 8.16887 0.691054 8.35058C0.606999 8.58799 0.550814 8.81882 0.536914 8.98388C0.52523 9.12262 0.580855 9.25614 0.685718 9.34105C0.790176 9.42562 0.926644 9.44806 1.05074 9.40108C1.44844 9.25055 1.95988 8.82293 2.31674 8.49304C2.07912 9.20903 1.98157 9.7547 2.02652 10.1195C2.04292 10.2527 2.11559 10.3681 2.22588 10.4362C2.33658 10.5046 2.46852 10.5151 2.58785 10.4651C2.80946 10.3723 3.03957 10.21 3.2738 9.98164C3.27604 9.98711 3.27838 9.99272 3.28067 9.99826C3.28259 10.0029 3.28448 10.0075 3.28643 10.0122C3.29107 10.0233 3.2958 10.0346 3.3006 10.0461C3.30157 10.0483 3.30252 10.0506 3.30348 10.0529C3.30864 10.0651 3.3139 10.0775 3.31924 10.09C3.32122 10.0946 3.32325 10.0993 3.32526 10.104C3.32905 10.1128 3.33285 10.1216 3.33673 10.1305C3.33907 10.1359 3.34145 10.1414 3.34383 10.1468C3.34752 10.1553 3.35125 10.1638 3.35501 10.1723C3.35747 10.1779 3.35993 10.1834 3.36243 10.189C3.36638 10.198 3.37041 10.2069 3.37444 10.2159C3.37675 10.2211 3.37904 10.2262 3.38138 10.2314C3.38698 10.2438 3.39266 10.2563 3.3984 10.2688C3.39959 10.2714 3.40077 10.274 3.40196 10.2766C3.40805 10.2899 3.41422 10.3032 3.42046 10.3165C3.42099 10.3177 3.4215 10.3188 3.42204 10.3199C3.27709 10.3578 3.14307 10.4218 3.02327 10.5114C2.76838 10.7021 2.59095 10.9964 2.51017 11.3624C2.45125 11.6294 2.43496 11.9088 2.46172 12.1928C2.48768 12.4681 2.55342 12.7415 2.65712 13.0053C2.8196 13.4185 3.14946 13.8267 3.58591 14.1545C4.00566 14.4698 4.49674 14.6932 4.96869 14.7836C4.98638 14.787 5.00371 14.7898 5.02072 14.792C5.16408 15.1494 5.29602 15.402 5.40614 15.5789C5.62233 15.9263 5.93629 16.2763 6.33925 16.619C6.67099 16.9012 7.06371 17.1768 7.48012 17.4202C7.48051 17.6125 7.47998 17.8058 7.4771 17.9996C7.39037 17.9871 7.30255 17.999 7.24844 18.0169C6.90025 18.1319 6.67243 18.4819 6.54262 18.7552C6.36188 19.1358 6.24923 19.5396 6.22762 19.8789C6.2184 19.882 6.20918 19.8852 6.19996 19.8883C6.16445 19.9004 6.12898 19.9126 6.09358 19.925L1.94613 21.2744C1.92999 21.2797 1.91391 21.2851 1.89788 21.2907C1.69889 21.3598 1.50893 21.453 1.33107 21.5685C1.29409 21.5925 1.25758 21.6174 1.22167 21.6433C1.21013 21.6516 1.19864 21.6601 1.18723 21.6686C1.16767 21.6832 1.14822 21.6983 1.12891 21.7135C1.10341 21.7337 1.07819 21.7543 1.05353 21.7753C1.03043 21.7949 1.0076 21.8153 0.985037 21.8358C0.975913 21.8441 0.966703 21.8524 0.957735 21.8608C0.936981 21.8802 0.916244 21.9002 0.896089 21.9203C0.885969 21.9304 0.87592 21.9406 0.865963 21.9508C0.855983 21.9611 0.846089 21.9714 0.836303 21.9818C0.826479 21.9922 0.81674 22.0027 0.807056 22.0133C0.787485 22.0348 0.768249 22.0565 0.749354 22.0785C0.465981 22.4093 0.259864 22.8088 0.151198 23.2394L0.00452502 23.8206C0.00327267 23.8255 0.00230813 23.8305 0.00157695 23.8356C0.00147582 23.8363 0.00136692 23.837 0.00127358 23.8377C-0.00366581 23.8754 0.00585516 23.9139 0.0282186 23.9444C0.053989 23.9796 0.0938541 24.0002 0.136107 24.0002ZM7.46507 18.2879C7.45705 18.5347 7.51264 18.7911 7.63043 19.0504C7.7248 19.258 7.85929 19.4682 8.03018 19.675C8.1642 19.8373 8.29888 19.9713 8.40578 20.0692C8.20526 20.1686 8.00293 20.3385 7.82984 20.5563C7.5808 20.8697 7.391 21.271 7.26387 21.7522C7.08205 21.4784 6.88499 21.1438 6.77195 20.8783C6.7532 20.8342 6.73368 20.7898 6.7148 20.7468C6.60015 20.4858 6.49184 20.2392 6.49617 19.9723C6.50127 19.6574 6.607 19.2603 6.78623 18.8829C6.87321 18.6998 7.05955 18.3791 7.3301 18.2897C7.36921 18.2768 7.43358 18.2782 7.46507 18.2879ZM2.77539 11.427C2.84093 11.1301 2.98126 10.894 3.18121 10.7444C3.28978 10.6632 3.41491 10.6092 3.5525 10.5833C3.55533 10.5886 3.55817 10.594 3.56102 10.5994C3.56405 10.6051 3.5671 10.6108 3.57016 10.6165C3.57514 10.6258 3.58014 10.6351 3.58518 10.6444C3.58827 10.6501 3.59135 10.6558 3.59446 10.6614C3.59982 10.6712 3.60523 10.681 3.61066 10.6907C3.61343 10.6957 3.61619 10.7007 3.61899 10.7057C3.62682 10.7197 3.63471 10.7336 3.64267 10.7474C3.64317 10.7483 3.64366 10.7492 3.64416 10.75C3.65235 10.7643 3.66062 10.7784 3.66894 10.7925C3.67173 10.7972 3.67456 10.8019 3.67737 10.8067C3.68314 10.8163 3.68893 10.826 3.69477 10.8356C3.69802 10.841 3.7013 10.8463 3.70458 10.8516C3.71014 10.8607 3.7157 10.8697 3.72131 10.8787C3.72464 10.884 3.72796 10.8893 3.73131 10.8946C3.73727 10.904 3.74326 10.9134 3.74929 10.9227C3.75223 10.9272 3.75515 10.9318 3.75811 10.9364C3.76691 10.9499 3.77577 10.9633 3.7847 10.9765L3.78519 10.9773C3.79424 10.9907 3.80335 11.004 3.81252 11.0171C3.81547 11.0213 3.81845 11.0255 3.82142 11.0297C3.82774 11.0387 3.83407 11.0476 3.84044 11.0564C3.8439 11.0612 3.84737 11.066 3.85085 11.0707C3.8569 11.079 3.86298 11.0872 3.86908 11.0953C3.8726 11.1 3.87611 11.1046 3.87964 11.1093C3.88612 11.1178 3.89264 11.1262 3.89916 11.1345C3.90224 11.1384 3.90531 11.1424 3.9084 11.1463C3.91799 11.1584 3.92763 11.1703 3.93733 11.182C3.94191 11.1875 3.94654 11.1929 3.95124 11.1981C4.0061 11.2586 4.06914 11.2967 4.13573 11.3107C4.16117 11.4687 4.1895 11.6337 4.22065 11.8037C4.14907 11.7582 4.08014 11.7233 4.01744 11.6966C3.75171 11.5835 3.53636 11.5888 3.52732 11.5891C3.45217 11.5914 3.39304 11.6572 3.39524 11.7362C3.39744 11.815 3.45979 11.877 3.53476 11.875C3.53921 11.8749 3.71303 11.8731 3.92612 11.9664C4.06835 12.0287 4.19419 12.1169 4.30287 12.2302C4.31939 12.3118 4.33648 12.3941 4.35418 12.477C4.53721 13.3336 4.72544 13.9843 4.90161 14.4772C4.03081 14.2689 3.18772 13.6057 2.90875 12.8961C2.71978 12.4154 2.67241 11.8936 2.77539 11.427ZM16.917 11.427C17.0199 11.8936 16.9726 12.4154 16.7836 12.8961C16.4969 13.6255 15.6143 14.3058 14.7181 14.4936C15.0002 13.7644 15.2162 12.9549 15.3418 12.4342C15.3623 12.3491 15.3821 12.2648 15.4012 12.1814C15.4976 12.0922 15.6061 12.0209 15.7263 11.9683C15.9394 11.875 16.1132 11.8767 16.1177 11.8768C16.1927 11.8789 16.255 11.8168 16.2572 11.7381C16.2594 11.6591 16.2003 11.5932 16.1251 11.5909C16.1161 11.5906 15.9007 11.5854 15.635 11.6985C15.59 11.7176 15.5418 11.741 15.4918 11.7694C15.5489 11.4978 15.5978 11.2406 15.6382 11.0059C15.6409 11.0038 15.6436 11.0018 15.6463 10.9997C15.6576 10.9908 15.6687 10.9814 15.6795 10.9718C15.6873 10.9649 15.6949 10.9579 15.7025 10.9506C15.7707 10.885 15.8283 10.8053 15.8717 10.7161L15.945 10.5654C16.1603 10.5658 16.3532 10.6263 16.5111 10.7444C16.7111 10.894 16.8514 11.1301 16.917 11.427ZM10.8977 11.0673C10.8896 10.9854 10.9142 10.9065 10.9669 10.8452C11.02 10.7834 11.0928 10.7494 11.172 10.7494H14.268C14.3446 10.7494 14.4157 10.7816 14.4683 10.8402C14.5211 10.899 14.5477 10.9759 14.5432 11.0568C14.5114 11.6271 14.3926 12.0241 14.1695 12.3062C14.03 12.4824 13.8526 12.6112 13.627 12.6997C13.3705 12.8004 13.0512 12.8458 12.678 12.8346C12.3591 12.8251 12.0795 12.7671 11.847 12.6624C11.6406 12.5694 11.4654 12.4366 11.3264 12.2677C11.092 11.9828 10.9477 11.579 10.8977 11.0673ZM14.6663 10.6439C14.5618 10.5275 14.4203 10.4634 14.268 10.4634H11.172C11.0171 10.4634 10.8686 10.5327 10.7648 10.6536C10.6844 10.7472 10.6362 10.8657 10.6262 10.9895C10.3671 10.8403 10.1089 10.7702 9.84321 10.7764C9.59412 10.7821 9.34433 10.8553 9.0857 10.999C9.07735 10.8717 9.0288 10.7496 8.9463 10.6536C8.84246 10.5327 8.69403 10.4634 8.53907 10.4634H5.44313C5.29078 10.4634 5.14932 10.5275 5.04479 10.6439C5.02294 10.6683 5.00344 10.6946 4.98612 10.7222L4.70903 10.5669C4.70904 10.5668 4.70906 10.5667 4.70908 10.5667C4.71061 10.5604 4.71213 10.5542 4.71366 10.5479C4.71489 10.5428 4.71613 10.5376 4.71737 10.5325C4.71887 10.5262 4.72037 10.5199 4.72186 10.5135C4.72307 10.5083 4.72428 10.5032 4.72549 10.498C4.72698 10.4915 4.72846 10.485 4.72994 10.4786C4.73113 10.4734 4.73231 10.4682 4.73349 10.4629C4.73495 10.4564 4.73641 10.4498 4.73786 10.4433C4.73903 10.438 4.7402 10.4327 4.74135 10.4275C4.74281 10.4208 4.74425 10.414 4.7457 10.4073C4.74682 10.4021 4.74795 10.3968 4.74907 10.3916C4.75054 10.3847 4.75197 10.3778 4.75342 10.3709C4.7545 10.3657 4.75559 10.3605 4.75666 10.3553C4.75817 10.348 4.75965 10.3407 4.76114 10.3333C4.76213 10.3284 4.76313 10.3236 4.76412 10.3186C4.76577 10.3104 4.76741 10.3021 4.76905 10.2937C4.76985 10.2897 4.77066 10.2857 4.77145 10.2816C4.77387 10.2692 4.77627 10.2567 4.77864 10.2442C4.77904 10.2421 4.77942 10.24 4.77982 10.2379C4.78181 10.2275 4.78377 10.2169 4.78573 10.2064C4.7866 10.2017 4.78745 10.1969 4.78831 10.1922C4.78978 10.1842 4.79125 10.1762 4.7927 10.1681C4.79367 10.1627 4.79462 10.1573 4.79558 10.1519C4.7969 10.1445 4.79823 10.137 4.79955 10.1295C4.80057 10.1237 4.80158 10.1178 4.8026 10.1119C4.80382 10.1049 4.80505 10.0978 4.80626 10.0907C4.80731 10.0846 4.80835 10.0784 4.80939 10.0722C4.81056 10.0653 4.81174 10.0583 4.8129 10.0513C4.81392 10.0452 4.81494 10.039 4.81596 10.0327C4.81712 10.0257 4.81827 10.0187 4.81942 10.0116C4.82044 10.0053 4.82144 9.99905 4.82246 9.99276C4.82358 9.98574 4.8247 9.97871 4.82582 9.97167C4.82684 9.96529 4.82784 9.9589 4.82883 9.95251C4.82993 9.94549 4.83103 9.93847 4.83211 9.93143C4.83312 9.92489 4.83412 9.91833 4.83513 9.91177C4.83618 9.90482 4.83724 9.89786 4.83829 9.89089C4.83929 9.88427 4.84028 9.87764 4.84127 9.87101C4.84232 9.86395 4.84337 9.85687 4.84441 9.84978C4.84538 9.84322 4.84634 9.83665 4.8473 9.83007C4.84834 9.82289 4.84939 9.81569 4.85042 9.80848C4.85138 9.80183 4.85233 9.79518 4.85328 9.78851C4.85429 9.78147 4.85528 9.7744 4.85627 9.76732C4.85723 9.76047 4.85819 9.75362 4.85915 9.74675C4.86014 9.73966 4.86111 9.73253 4.86209 9.72541C4.86302 9.71859 4.86396 9.71178 4.8649 9.70493C4.86588 9.6977 4.86685 9.69043 4.86783 9.68317C4.86874 9.67638 4.86966 9.66958 4.87056 9.66278C4.87153 9.65546 4.87249 9.64812 4.87345 9.64078C4.87435 9.63394 4.87525 9.62712 4.87614 9.62026C4.8771 9.61288 4.87805 9.60548 4.879 9.59808C4.87987 9.59128 4.88075 9.58451 4.88161 9.57769C4.88258 9.57005 4.88354 9.56238 4.88451 9.55472C4.88535 9.54803 4.88619 9.54137 4.88703 9.53467C4.88804 9.52648 4.88905 9.51824 4.89006 9.51001C4.89165 9.4971 4.89323 9.48416 4.89479 9.47119C4.89567 9.4639 4.89655 9.45662 4.89743 9.4493C4.8983 9.44199 4.89916 9.43464 4.90003 9.42731C4.90088 9.42013 4.90173 9.41296 4.90258 9.40576C4.90346 9.39819 4.90434 9.39059 4.90522 9.38299C4.90603 9.37605 4.90684 9.3691 4.90763 9.36214C4.90851 9.35447 4.90938 9.34678 4.91025 9.3391C4.91105 9.33212 4.91184 9.32515 4.91262 9.31817C4.91348 9.31057 4.91433 9.30296 4.91518 9.29535C4.91597 9.28824 4.91676 9.28113 4.91755 9.274C4.91839 9.26638 4.91923 9.25873 4.92006 9.25109C4.92084 9.24398 4.92162 9.23687 4.92239 9.22975C4.92322 9.22207 4.92404 9.21439 4.92487 9.2067C4.92563 9.19962 4.92639 9.19254 4.92715 9.18544C4.92799 9.17758 4.92882 9.16971 4.92964 9.16185C4.93038 9.15491 4.93111 9.14795 4.93184 9.14099C4.93267 9.13305 4.9335 9.12511 4.93432 9.11716C4.93504 9.11022 4.93576 9.10328 4.93647 9.09635C4.93729 9.08838 4.93811 9.08041 4.93892 9.07244C4.93964 9.06542 4.94036 9.05841 4.94106 9.05139C4.94187 9.04338 4.94268 9.03538 4.94349 9.02736C4.94417 9.02053 4.94486 9.01368 4.94554 9.00684C4.94635 8.99869 4.94717 8.99054 4.94797 8.98238C4.94866 8.97539 4.94935 8.9684 4.95003 8.9614C4.95082 8.95338 4.9516 8.94536 4.95239 8.93733C4.95307 8.93033 4.95374 8.92334 4.95442 8.91634C4.9552 8.90822 4.95599 8.9001 4.95677 8.89197C4.95741 8.88522 4.95806 8.87847 4.95871 8.87171C4.95951 8.86327 4.96032 8.85485 4.96111 8.84641C4.9617 8.84015 4.96228 8.83388 4.96287 8.82761C4.96371 8.81868 4.96455 8.80976 4.96539 8.80082C4.96593 8.79498 4.96647 8.78913 4.96701 8.78328C4.96787 8.77405 4.96872 8.76484 4.96957 8.75561C4.97005 8.75037 4.97053 8.74512 4.97101 8.73988C4.9744 8.70283 4.97776 8.66571 4.98106 8.62855C4.98129 8.626 4.98152 8.62346 4.98175 8.62092C4.98272 8.60999 4.98368 8.59906 4.98464 8.58813C4.98501 8.58386 4.98539 8.57959 4.98577 8.57532C4.98659 8.56591 4.98742 8.55649 4.98824 8.54707C4.98877 8.54101 4.9893 8.53493 4.98983 8.52887C4.99063 8.51961 4.99143 8.51035 4.99223 8.50109C4.99272 8.49539 4.99322 8.48969 4.99371 8.48398C4.99454 8.47431 4.99537 8.46462 4.9962 8.45495C4.99668 8.44928 4.99717 8.44362 4.99765 8.43796C4.99843 8.42885 4.9992 8.41974 4.99998 8.41063C5.00051 8.40439 5.00104 8.39814 5.00157 8.39189C5.00234 8.38284 5.0031 8.37378 5.00386 8.36472C5.00417 8.36103 5.00448 8.35734 5.00479 8.35365C5.30453 8.37793 5.74408 8.22884 6.3393 7.90213C6.66053 7.72581 6.98325 7.50639 7.37466 7.19743C7.34343 7.27216 7.32159 7.34282 7.3092 7.40928C7.28709 7.52802 7.31088 7.64872 7.37618 7.74913C7.44218 7.8506 7.54189 7.9185 7.65694 7.94033C7.70986 7.95037 7.7661 7.9554 7.82593 7.9554C8.05646 7.9554 8.33958 7.88054 8.68479 7.72889C9.01484 7.58389 9.39898 7.36838 9.82653 7.08835C9.8669 7.06191 9.90694 7.03535 9.94653 7.00881C9.8132 7.23335 9.75349 7.43622 9.76502 7.62257C9.77496 7.78325 9.84191 7.91176 9.95862 7.9942C10.2568 8.20485 10.7887 8.04297 10.9446 7.98835C11.5355 7.78135 12.1027 7.42302 12.697 6.87713C12.6666 7.00104 12.6419 7.134 12.6238 7.27263C12.5938 7.50292 12.5436 8.07565 12.7235 8.41924C12.8611 8.68187 13.0462 8.72827 13.1772 8.72099C13.4158 8.70769 13.6433 8.50456 13.7921 8.33649C13.8596 8.26034 13.9247 8.17575 13.9825 8.0907C13.9881 8.11351 13.994 8.13729 14.0001 8.16196C14.0002 8.16228 14.0003 8.1626 14.0004 8.16291C14.0033 8.17467 14.0063 8.18665 14.0094 8.1988C14.0097 8.19981 14.0099 8.20081 14.0102 8.20182C14.0132 8.21355 14.0162 8.22547 14.0193 8.23756C14.0197 8.23905 14.02 8.24054 14.0204 8.24204C14.0235 8.25393 14.0266 8.266 14.0298 8.27822C14.0302 8.27997 14.0307 8.28173 14.0311 8.28348C14.0343 8.29571 14.0375 8.30809 14.0408 8.32064C14.0413 8.32235 14.0417 8.32407 14.0422 8.32579C14.0455 8.33854 14.0489 8.35143 14.0524 8.36451C14.0528 8.36594 14.0532 8.36738 14.0535 8.36881C14.0571 8.38232 14.0608 8.39598 14.0645 8.40982C14.0647 8.41051 14.0649 8.4112 14.0651 8.41188C14.0687 8.4255 14.0725 8.4393 14.0763 8.45324C14.0766 8.45448 14.0769 8.4557 14.0773 8.45694C14.081 8.47065 14.0848 8.48455 14.0886 8.49856C14.0892 8.50063 14.0898 8.50269 14.0904 8.50476C14.0941 8.5183 14.0979 8.53198 14.1017 8.54577C14.1025 8.54838 14.1032 8.55099 14.1039 8.55361C14.1077 8.56725 14.1116 8.58101 14.1155 8.59488C14.1163 8.59766 14.1171 8.60044 14.1179 8.60323C14.1218 8.61711 14.1258 8.63111 14.1298 8.64522C14.1306 8.64807 14.1314 8.65092 14.1323 8.65377C14.1364 8.66807 14.1405 8.68247 14.1447 8.69701C14.1454 8.69951 14.1462 8.70203 14.1469 8.70454C14.1513 8.71953 14.1557 8.73462 14.1601 8.74984C14.1607 8.75175 14.1613 8.75369 14.1618 8.75561C14.1664 8.77127 14.1711 8.78703 14.1758 8.80293C14.1759 8.80337 14.1761 8.8038 14.1762 8.80425C14.1814 8.82172 14.1866 8.83907 14.1918 8.85635C14.1923 8.85804 14.1929 8.85977 14.1934 8.86148C14.3173 9.27147 14.443 9.62328 14.5625 9.92122C14.5631 9.92269 14.5637 9.92417 14.5643 9.92565C14.5718 9.94419 14.5792 9.96256 14.5866 9.98068C14.59 9.98912 14.5935 9.99757 14.597 10.006C14.5997 10.0126 14.6024 10.0191 14.6051 10.0256C14.6894 10.2298 14.7822 10.4358 14.8832 10.6353L14.7204 10.7148C14.7043 10.6898 14.6862 10.6661 14.6663 10.6439ZM5.24285 10.8402C5.2954 10.7816 5.36653 10.7494 5.44313 10.7494H8.53909C8.61829 10.7494 8.69113 10.7834 8.74421 10.8452C8.79689 10.9065 8.82149 10.9854 8.81348 11.0673C8.76342 11.579 8.61916 11.9828 8.38471 12.2677C8.24571 12.4366 8.07058 12.5694 7.86416 12.6624C7.63167 12.7671 7.35209 12.8251 7.03316 12.8346C6.65993 12.8458 6.34062 12.8004 6.08416 12.6998C5.85855 12.6112 5.68109 12.4825 5.54165 12.3062C5.3185 12.0241 5.19976 11.6271 5.16796 11.0568C5.16344 10.9759 5.19004 10.899 5.24285 10.8402ZM13.6192 4.28384C13.8149 4.40613 13.933 4.57694 13.7232 4.94766C13.5133 5.31838 13.2339 5.4324 13.0382 5.31011C12.8425 5.18782 12.8045 4.87551 13.0143 4.50479C13.2242 4.13407 13.4234 4.16154 13.6192 4.28384ZM16.6061 4.37544C16.477 4.54759 16.2025 4.54655 15.9071 4.30204C15.6117 4.05754 15.6592 3.87072 15.7883 3.69857C15.9174 3.52642 16.0791 3.43413 16.3746 3.67864C16.67 3.92314 16.7352 4.20328 16.6061 4.37544ZM15.0663 5.29385C14.8483 5.3632 14.6032 5.18207 14.4842 4.76925C14.3651 4.35645 14.5188 4.22042 14.7368 4.15107C14.9547 4.08171 15.1544 4.10529 15.2734 4.51809C15.3925 4.9309 15.2842 5.22449 15.0663 5.29385ZM4.61982 12.4143C4.53287 12.0073 4.45893 11.6037 4.40035 11.2366C4.4778 11.1723 4.5583 11.0594 4.62379 10.8645C4.62577 10.8586 4.62773 10.8526 4.62969 10.8466L4.897 10.9965C4.89514 11.022 4.89473 11.0478 4.89617 11.0735C4.91843 11.4726 4.98785 12.0536 5.33226 12.489C5.50047 12.7016 5.72138 12.8627 5.98886 12.9677C6.25058 13.0704 6.56487 13.1223 6.92457 13.1223C6.96282 13.1223 7.00164 13.1217 7.04091 13.1205C7.72248 13.1001 8.24388 12.8761 8.59065 12.4548C8.82063 12.1753 8.97491 11.805 9.05076 11.3514C9.33176 11.1629 9.59362 11.0682 9.84919 11.0623C10.1197 11.0561 10.3856 11.1494 10.6597 11.3472C10.7353 11.8027 10.8898 12.1745 11.1205 12.4548C11.4673 12.8761 11.9887 13.1001 12.6702 13.1205C12.7095 13.1217 12.7483 13.1223 12.7866 13.1223C13.1462 13.1223 13.4606 13.0704 13.7223 12.9677C13.9898 12.8627 14.2107 12.7016 14.3789 12.489C14.7233 12.0536 14.7927 11.4726 14.815 11.0735C14.8166 11.0438 14.816 11.0142 14.8133 10.9848L15.0167 10.8855C15.0898 11.009 15.1798 11.0839 15.2848 11.108C15.2853 11.1081 15.2857 11.1081 15.2862 11.1082C15.2921 11.1096 15.2981 11.1108 15.3042 11.1118C15.3063 11.1121 15.3085 11.1124 15.3107 11.1127C15.315 11.1133 15.3194 11.1139 15.3237 11.1144C15.3263 11.1147 15.3288 11.1148 15.3314 11.115C15.3351 11.1153 15.3387 11.1156 15.3424 11.1158C15.2745 11.4902 15.1858 11.9161 15.0778 12.3639C14.7582 13.6895 14.38 14.7454 14.0127 15.3371C13.8067 15.669 13.508 16.0078 13.1248 16.3438C12.7826 16.644 12.3738 16.9389 11.9428 17.1965C11.1455 17.6731 10.3153 17.9932 9.87699 17.9932C8.88128 17.9932 6.48618 16.7917 5.63398 15.4224C5.14181 14.6316 4.78733 13.1983 4.61982 12.4143ZM12.4989 18.2879C12.5304 18.2782 12.5947 18.2768 12.6338 18.2897C12.9044 18.3791 13.0907 18.6998 13.1777 18.8829C13.3569 19.2603 13.4627 19.6574 13.4678 19.9723C13.4721 20.2392 13.3638 20.4858 13.2491 20.7468C13.2303 20.7898 13.2107 20.8342 13.192 20.8783C13.079 21.1438 12.8819 21.4784 12.7001 21.7522C12.5729 21.271 12.3832 20.8697 12.1341 20.5563C11.961 20.3385 11.7587 20.1686 11.5582 20.0692C11.6651 19.9713 11.7997 19.8373 11.9338 19.675C12.1047 19.4682 12.2392 19.258 12.3335 19.0504C12.4513 18.7911 12.5069 18.5347 12.4989 18.2879ZM7.31164 23.7142C7.31551 23.6004 7.31925 23.4861 7.32289 23.3744C7.33528 22.9944 7.34784 22.6103 7.3666 22.2224C7.41409 22.2074 7.45031 22.1662 7.4605 22.1146C7.46378 22.098 7.46715 22.0815 7.47057 22.065C8.21634 21.9709 8.85666 22.0999 9.16957 22.1843C9.20077 22.2472 9.23524 22.3015 9.27401 22.3449C9.6092 22.7205 9.84587 23.3699 9.84916 23.379C9.86974 23.4363 9.92153 23.4716 9.97652 23.4716C9.98173 23.4716 9.98697 23.4711 9.99221 23.4705L9.99224 23.4713C10.0454 23.4693 10.0948 23.4346 10.1148 23.3791C10.1171 23.3726 10.3541 22.7213 10.6899 22.3449C10.7286 22.3015 10.7631 22.2473 10.7942 22.1846C11.1067 22.1002 11.7472 21.9709 12.4933 22.0649C12.4968 22.0814 12.5001 22.098 12.5034 22.1146C12.5101 22.1485 12.5281 22.178 12.5532 22.1984C12.5749 22.7486 12.5729 23.2521 12.5473 23.7142H7.31164V23.7142ZM8.23578 19.4876C7.86831 19.0428 7.75727 18.6728 7.73938 18.4116C7.74926 18.131 7.75221 17.8509 7.75247 17.573C8.56684 18.0114 9.36784 18.2793 9.87701 18.2793C10.3659 18.2793 11.2296 17.9518 12.0774 17.4451C12.1223 17.4183 12.1668 17.3911 12.2111 17.3635C12.2101 17.7124 12.2116 18.0652 12.2243 18.4189C12.1633 19.276 11.1954 20.0103 11.1852 20.018C11.1844 20.0185 11.1837 20.0192 11.1829 20.0198C11.1772 20.023 11.1714 20.0265 11.1658 20.0302C10.9803 20.1541 10.9041 20.5186 10.795 21.1031C10.717 21.5214 10.6286 21.9955 10.4913 22.1493C10.2692 22.3982 10.0916 22.7403 9.98197 22.9827C9.87237 22.7403 9.69476 22.3982 9.47263 22.1493C9.33538 21.9955 9.24694 21.5214 9.16891 21.1031C9.05986 20.5186 8.98362 20.1541 8.79815 20.0302C8.79251 20.0265 8.78679 20.0231 8.78103 20.0198C8.78026 20.0192 8.77956 20.0185 8.77878 20.018C8.77604 20.0159 8.50251 19.8104 8.23578 19.4876Z" fill="black" style="fill:black;fill-opacity:1;"/>
<path d="M10.9005 15.2442C10.6169 15.4966 10.1972 15.6162 9.90705 15.6227C9.60431 15.6296 9.19812 15.4936 8.91937 15.292C8.85744 15.2472 8.77268 15.2637 8.73006 15.3287C8.68744 15.3938 8.70308 15.4828 8.76501 15.5276C9.08317 15.7577 9.52939 15.909 9.88523 15.909C9.89452 15.909 9.90376 15.9089 9.91293 15.9087C10.3257 15.8993 10.7824 15.7242 11.0765 15.4625C11.1338 15.4114 11.141 15.3212 11.0924 15.2609C11.0438 15.2006 10.9579 15.1932 10.9005 15.2442Z" fill="black" style="fill:black;fill-opacity:1;"/>
<path d="M9.43103 14.0417C9.56469 14.1383 9.75306 14.2019 9.90399 14.2019C9.90797 14.2019 9.91193 14.2018 9.91586 14.2017C10.0905 14.1978 10.2843 14.1231 10.4097 14.0116C10.467 13.9605 10.4742 13.8703 10.4256 13.81C10.377 13.7498 10.2911 13.7423 10.2337 13.7933C10.1556 13.8629 10.0224 13.9132 9.90998 13.9158C9.8265 13.9177 9.68843 13.8806 9.58539 13.8061C9.52346 13.7613 9.4387 13.7777 9.39609 13.8428C9.35345 13.9079 9.36909 13.9969 9.43103 14.0417Z" fill="black" style="fill:black;fill-opacity:1;"/>
<path d="M12.507 11.9621L12.5071 11.9616C12.6621 11.9949 12.8352 11.9479 12.9556 11.8453L12.9566 11.8466C13.0905 11.7359 13.1762 11.5557 13.1712 11.3755C13.1715 11.3027 13.1558 11.2307 13.1317 11.1628L13.1315 11.1628C13.0768 11.0101 12.9451 10.8784 12.7981 10.8258L12.7981 10.8256C12.0385 10.57 11.7317 11.7854 12.507 11.9621Z" fill="black" style="fill:black;fill-opacity:1;"/>
<path d="M7.47028 11.8604L7.47004 11.86C7.59748 11.7632 7.68482 11.6119 7.70054 11.4386L7.7007 11.4387C7.70247 11.4194 7.70307 11.3998 7.70299 11.3802C7.70275 11.3059 7.68832 11.2321 7.66297 11.1628L7.66255 11.163C7.60139 11.0018 7.47784 10.8813 7.32937 10.8258L7.32941 10.8256C6.95109 10.6716 6.51915 11.0374 6.58479 11.4588C6.62551 11.8894 7.14404 12.1236 7.47028 11.8604Z" fill="black" style="fill:black;fill-opacity:1;"/>
<path d="M7.98628 9.6267C7.47425 9.29936 6.9909 9.28901 6.67561 9.33799C6.33288 9.39121 6.1102 9.52336 6.10089 9.52896C6.03564 9.56819 6.01284 9.65568 6.05019 9.72423C6.08754 9.79277 6.17053 9.81666 6.23577 9.77741C6.23769 9.77628 6.43131 9.66302 6.72641 9.61927C7.11665 9.5614 7.49292 9.64612 7.84475 9.87105C7.86686 9.88517 7.89127 9.89191 7.91539 9.89191C7.96133 9.89191 8.00617 9.86747 8.0318 9.82322C8.07088 9.75575 8.0505 9.66777 7.98628 9.6267Z" fill="black" style="fill:black;fill-opacity:1;"/>
<path d="M13.65 9.52895C13.6407 9.52336 13.418 9.39121 13.0753 9.33798C12.7599 9.28902 12.2766 9.29936 11.7646 9.6267C11.7004 9.66776 11.68 9.75574 11.7191 9.82321C11.7447 9.86746 11.7895 9.8919 11.8355 9.8919C11.8596 9.8919 11.884 9.88516 11.9061 9.87103C12.258 9.6461 12.6342 9.5614 13.0245 9.61926C13.3196 9.66301 13.5132 9.77626 13.5151 9.7774C13.5803 9.81635 13.6632 9.79253 13.7005 9.72411C13.7379 9.65557 13.7152 9.5682 13.65 9.52895Z" fill="black" style="fill:black;fill-opacity:1;"/>
</g>
<defs>
<clipPath id="clip0_2054_9399">
<rect width="20" height="24" fill="white" style="fill:white;fill-opacity:1;"/>
</clipPath>
</defs>
</svg>
