<svg width="28" height="20" viewBox="0 0 28 20" xmlns="http://www.w3.org/2000/svg" fill="none">
  <!-- Rounded rectangle -->
  <rect x="0.6087" y="0.6087" width="26.7826" height="18.2609" rx="2.43478" fill="white" stroke="#D9D9D9" stroke-width="1.21739"/>

  <!-- Red shape -->
  <path d="M18.2295 3.6431C21.6085 3.6431 24.3477 6.3374 24.3477 9.6606C24.3476 12.9839 21.6084 15.6782 18.2295 15.6782C16.7145 15.6782 15.3293 15.1348 14.2607 14.2378C13.1922 15.1348 11.807 15.6782 10.292 15.6782C6.9131 15.6782 4.1739 12.9838 4.1738 9.6606C4.1738 6.3374 6.9130 3.6431 10.292 3.6431C11.8068 3.6431 13.1922 4.1857 14.2607 5.0825C15.3293 4.1857 16.7147 3.6431 18.2295 3.6431Z" fill="#ED0006"/>

  <!-- Orange overlapping shape -->
  <path d="M18.2295 3.6431C21.6085 3.6431 24.3477 6.3374 24.3477 9.6606C24.3476 12.9838 21.6084 15.6782 18.2295 15.6782C16.7145 15.6782 15.3293 15.1348 14.2607 14.2378C15.5755 13.1341 16.4101 11.4939 16.4102 9.6606C16.4102 7.8272 15.5757 6.1862 14.2607 5.0825C15.3293 4.1857 16.7147 3.6431 18.2295 3.6431Z" fill="#F9A000"/>

  <!-- Darker orange/purple-ish overlapping shape -->
  <path d="M14.2607 5.0828C15.5757 6.1865 16.4102 7.8274 16.4102 9.6609C16.41 11.4942 15.5756 13.1344 14.2607 14.238C12.9461 13.1344 12.1114 11.494 12.1113 9.6609C12.1113 7.8275 12.9459 6.1865 14.2607 5.0828Z" fill="#FF5E00"/>
</svg>
