<svg width="20" height="20" viewBox="0 0 20 20" fill="none" xmlns="http://www.w3.org/2000/svg">
<path d="M9.99984 12.7082C8.50817 12.7082 7.2915 11.4915 7.2915 9.99984C7.2915 8.50817 8.50817 7.2915 9.99984 7.2915C11.4915 7.2915 12.7082 8.50817 12.7082 9.99984C12.7082 11.4915 11.4915 12.7082 9.99984 12.7082ZM9.99984 8.5415C9.19984 8.5415 8.5415 9.19984 8.5415 9.99984C8.5415 10.7998 9.19984 11.4582 9.99984 11.4582C10.7998 11.4582 11.4582 10.7998 11.4582 9.99984C11.4582 9.19984 10.7998 8.5415 9.99984 8.5415Z" fill="#DFFF6D"/>
<path d="M15.4165 12.7082C15.0748 12.7082 14.7915 12.4248 14.7915 12.0832V7.9165C14.7915 7.57484 15.0748 7.2915 15.4165 7.2915C15.7582 7.2915 16.0415 7.57484 16.0415 7.9165V12.0832C16.0415 12.4248 15.7582 12.7082 15.4165 12.7082Z" fill="#DFFF6D"/>
<path d="M4.16683 18.9582C2.7835 18.9582 1.4835 18.2248 0.783498 17.0332C0.408498 16.4332 0.208496 15.7248 0.208496 14.9998C0.208496 12.8165 1.9835 11.0415 4.16683 11.0415C6.35016 11.0415 8.12516 12.8165 8.12516 14.9998C8.12516 15.7248 7.92516 16.4332 7.55016 17.0415C6.85016 18.2248 5.55016 18.9582 4.16683 18.9582ZM4.16683 12.2915C2.67516 12.2915 1.4585 13.5082 1.4585 14.9998C1.4585 15.4915 1.59183 15.9748 1.85016 16.3915C2.3335 17.2082 3.22516 17.7082 4.16683 17.7082C5.1085 17.7082 6.00016 17.2082 6.48349 16.3998C6.74183 15.9748 6.87516 15.4998 6.87516 14.9998C6.87516 13.5082 5.6585 12.2915 4.16683 12.2915Z" fill="#DFFF6D"/>
<path d="M3.69156 16.4501C3.53323 16.4501 3.37489 16.3918 3.24989 16.2668L2.4249 15.4418C2.18324 15.2002 2.18324 14.8001 2.4249 14.5584C2.66657 14.3168 3.06657 14.3168 3.30823 14.5584L3.70824 14.9585L5.04156 13.7251C5.29156 13.4918 5.69155 13.5085 5.92489 13.7585C6.15822 14.0085 6.14157 14.4085 5.89157 14.6418L4.11657 16.2835C3.99157 16.3918 3.84156 16.4501 3.69156 16.4501Z" fill="#DFFF6D"/>
<path d="M14.1665 17.2918H7.08317C6.7415 17.2918 6.45817 17.0085 6.45817 16.6668C6.45817 16.3252 6.7415 16.0418 7.08317 16.0418H14.1665C16.5498 16.0418 17.7082 14.8835 17.7082 12.5002V7.50016C17.7082 5.11683 16.5498 3.9585 14.1665 3.9585H5.83317C3.44984 3.9585 2.2915 5.11683 2.2915 7.50016V12.7502C2.2915 13.0918 2.00817 13.3752 1.6665 13.3752C1.32484 13.3752 1.0415 13.0918 1.0415 12.7502V7.50016C1.0415 4.4585 2.7915 2.7085 5.83317 2.7085H14.1665C17.2082 2.7085 18.9582 4.4585 18.9582 7.50016V12.5002C18.9582 15.5418 17.2082 17.2918 14.1665 17.2918Z" fill="#DFFF6D"/>
</svg>
