<svg width="20" height="20" viewBox="0 0 20 20" fill="none" xmlns="http://www.w3.org/2000/svg">
  <path d="M14.1665 17.2918H9.99984C9.65817 17.2918 9.37484 17.0085 9.37484 16.6668C9.37484 16.3252 9.65817 16.0418 9.99984 16.0418H14.1665C16.5498 16.0418 17.7082 14.8835 17.7082 12.5002V7.50016C17.7082 5.11683 16.5498 3.9585 14.1665 3.9585H5.83317C3.44984 3.9585 2.2915 5.11683 2.2915 7.50016V9.16683C2.2915 9.5085 2.00817 9.79183 1.6665 9.79183C1.32484 9.79183 1.0415 9.5085 1.0415 9.16683V7.50016C1.0415 4.4585 2.7915 2.7085 5.83317 2.7085H14.1665C17.2082 2.7085 18.9582 4.4585 18.9582 7.50016V12.5002C18.9582 15.5418 17.2082 17.2918 14.1665 17.2918Z"
        fill="#DFFF6D"/>
        
  <path d="M9.99984 12.7082C8.50817 12.7082 7.2915 11.4915 7.2915 9.99984C7.2915 8.50817 8.50817 7.2915 9.99984 7.2915C11.4915 7.2915 12.7082 8.50817 12.7082 9.99984C12.7082 11.4915 11.4915 12.7082 9.99984 12.7082ZM9.99984 8.5415C9.19984 8.5415 8.5415 9.19984 8.5415 9.99984C8.5415 10.7998 9.19984 11.4582 9.99984 11.4582C10.7998 11.4582 11.4582 10.7998 11.4582 9.99984C11.4582 9.19984 10.7998 8.5415 9.99984 8.5415Z"
        fill="#DFFF6D"/>

  <path d="M15.4165 12.7082C15.0748 12.7082 14.7915 12.4248 14.7915 12.0832V7.9165C14.7915 7.57484 15.0748 7.2915 15.4165 7.2915C15.7582 7.2915 16.0415 7.57484 16.0415 7.9165V12.0832C16.0415 12.4248 15.7582 12.7082 15.4165 12.7082Z"
        fill="#DFFF6D"/>

  <path d="M7.08317 15.5748C6.7415 15.5748 6.45817 15.2915 6.45817 14.9498V13.8831C6.45817 13.6998 6.30819 13.5415 6.11653 13.5415H1.6665C1.32484 13.5415 1.0415 13.2582 1.0415 12.9165C1.0415 12.5748 1.32484 12.2915 1.6665 12.2915H6.11653C6.99153 12.2915 7.70817 13.0081 7.70817 13.8831V14.9498C7.70817 15.2915 7.42484 15.5748 7.08317 15.5748Z"
        fill="#DFFF6D"/>

  <path d="M2.68353 14.5581C2.5252 14.5581 2.36689 14.4998 2.24189 14.3748L1.2252 13.3581C0.983529 13.1165 0.983529 12.7164 1.2252 12.4747L2.24189 11.4581C2.48356 11.2164 2.88355 11.2164 3.12522 11.4581C3.36689 11.6998 3.36689 12.0998 3.12522 12.3414L2.55022 12.9164L3.12522 13.4914C3.36689 13.7331 3.36689 14.1331 3.12522 14.3748C3.00022 14.4998 2.84186 14.5581 2.68353 14.5581Z"
        fill="#DFFF6D"/>

  <path d="M7.08317 17.9415H2.63315C1.75815 17.9415 1.0415 17.2248 1.0415 16.3498V15.2832C1.0415 14.9415 1.32484 14.6582 1.6665 14.6582C2.00817 14.6582 2.2915 14.9415 2.2915 15.2832V16.3498C2.2915 16.5332 2.44148 16.6915 2.63315 16.6915H7.08317C7.42484 16.6915 7.70817 16.9749 7.70817 17.3165C7.70817 17.6582 7.42484 17.9415 7.08317 17.9415Z"
        fill="#DFFF6D"/>

  <path d="M6.0663 18.9585C5.90797 18.9585 5.74961 18.9002 5.62461 18.7752C5.38294 18.5335 5.38294 18.1334 5.62461 17.8918L6.19961 17.3168L5.62461 16.7418C5.38294 16.5002 5.38294 16.1002 5.62461 15.8585C5.86628 15.6168 6.26627 15.6168 6.50794 15.8585L7.52463 16.8751C7.7663 17.1168 7.7663 17.5168 7.52463 17.7585L6.50794 18.7752C6.39127 18.9002 6.22463 18.9585 6.0663 18.9585Z"
        fill="#DFFF6D"/>
</svg>
