<svg width="20" height="20" viewBox="0 0 20 20" fill="none" xmlns="http://www.w3.org/2000/svg">
<path d="M14.167 17.7082H5.83366C2.79199 17.7082 1.04199 15.9582 1.04199 12.9165V7.08317C1.04199 4.0415 2.79199 2.2915 5.83366 2.2915H14.167C17.2087 2.2915 18.9587 4.0415 18.9587 7.08317V12.9165C18.9587 15.9582 17.2087 17.7082 14.167 17.7082ZM5.83366 3.5415C3.45033 3.5415 2.29199 4.69984 2.29199 7.08317V12.9165C2.29199 15.2998 3.45033 16.4582 5.83366 16.4582H14.167C16.5503 16.4582 17.7087 15.2998 17.7087 12.9165V7.08317C17.7087 4.69984 16.5503 3.5415 14.167 3.5415H5.83366Z" fill="#DFFF6D"/>
<path d="M10 13.125C8.275 13.125 6.875 11.725 6.875 10C6.875 8.275 8.275 6.875 10 6.875C11.725 6.875 13.125 8.275 13.125 10C13.125 11.725 11.725 13.125 10 13.125ZM10 8.125C8.96667 8.125 8.125 8.96667 8.125 10C8.125 11.0333 8.96667 11.875 10 11.875C11.0333 11.875 11.875 11.0333 11.875 10C11.875 8.96667 11.0333 8.125 10 8.125Z" fill="#DFFF6D"/>
<path d="M2.50033 8.12516H1.66699C1.32533 8.12516 1.04199 7.84183 1.04199 7.50016C1.04199 7.1585 1.32533 6.87516 1.66699 6.87516H2.50033C4.65033 6.87516 5.20866 6.31683 5.20866 4.16683V3.3335C5.20866 2.99183 5.49199 2.7085 5.83366 2.7085C6.17533 2.7085 6.45866 2.99183 6.45866 3.3335V4.16683C6.45866 7.01683 5.35033 8.12516 2.50033 8.12516Z" fill="#DFFF6D"/>
<path d="M18.3337 8.12516H17.5003C14.6503 8.12516 13.542 7.01683 13.542 4.16683V3.3335C13.542 2.99183 13.8253 2.7085 14.167 2.7085C14.5087 2.7085 14.792 2.99183 14.792 3.3335V4.16683C14.792 6.31683 15.3503 6.87516 17.5003 6.87516H18.3337C18.6753 6.87516 18.9587 7.1585 18.9587 7.50016C18.9587 7.84183 18.6753 8.12516 18.3337 8.12516Z" fill="#DFFF6D"/>
<path d="M5.83366 17.2917C5.49199 17.2917 5.20866 17.0083 5.20866 16.6667V15.8333C5.20866 13.6833 4.65033 13.125 2.50033 13.125H1.66699C1.32533 13.125 1.04199 12.8417 1.04199 12.5C1.04199 12.1583 1.32533 11.875 1.66699 11.875H2.50033C5.35033 11.875 6.45866 12.9833 6.45866 15.8333V16.6667C6.45866 17.0083 6.17533 17.2917 5.83366 17.2917Z" fill="#DFFF6D"/>
<path d="M14.167 17.2917C13.8253 17.2917 13.542 17.0083 13.542 16.6667V15.8333C13.542 12.9833 14.6503 11.875 17.5003 11.875H18.3337C18.6753 11.875 18.9587 12.1583 18.9587 12.5C18.9587 12.8417 18.6753 13.125 18.3337 13.125H17.5003C15.3503 13.125 14.792 13.6833 14.792 15.8333V16.6667C14.792 17.0083 14.5087 17.2917 14.167 17.2917Z" fill="#DFFF6D"/>
</svg>
