<svg width="20" height="20" viewBox="0 0 20 20" fill="none"
    xmlns="http://www.w3.org/2000/svg">

<path d="M9.1835 16.875H6.25016C5.62516 16.875 5.16683 16.85 4.77516 16.7917C2.00016 16.4833 1.4585 14.8333 1.4585 12.0833V7.91667C1.4585 5.16667 2.0085 3.50833 4.80016 3.2C5.16683 3.15 5.62516 3.125 6.25016 3.125H9.1335C9.47516 3.125 9.7585 3.40833 9.7585 3.75C9.7585 4.09167 9.47516 4.375 9.1335 4.375H6.25016C5.6835 4.375 5.2835 4.4 4.9585 4.44167C3.26683 4.625 2.7085 5.15833 2.7085 7.91667V12.0833C2.7085 14.8417 3.26683 15.3667 4.9335 15.5583C5.2835 15.6083 5.6835 15.625 6.25016 15.625H9.1835C9.52516 15.625 9.8085 15.9083 9.8085 16.25C9.8085 16.5917 9.52516 16.875 9.1835 16.875Z" 
      fill="#DFFF6D"/>

<path d="M13.7499 16.875H12.5166C12.1749 16.875 11.8916 16.5917 11.8916 16.25C11.8916 15.9083 12.1749 15.625 12.5166 15.625H13.7499C14.3166 15.625 14.7166 15.6 15.0416 15.5583C16.7333 15.375 17.2916 14.8417 17.2916 12.0833V7.91667C17.2916 5.15833 16.7333 4.63333 15.0666 4.44167C14.7166 4.39167 14.3166 4.375 13.7499 4.375H12.5166C12.1749 4.375 11.8916 4.09167 11.8916 3.75C11.8916 3.40833 12.1749 3.125 12.5166 3.125H13.7499C14.3749 3.125 14.8333 3.15 15.2249 3.20833C17.9999 3.51667 18.5416 5.16667 18.5416 7.91667V12.0833C18.5416 14.8333 17.9916 16.4917 15.1999 16.8C14.8333 16.85 14.3749 16.875 13.7499 16.875Z" 
      fill="#DFFF6D"/>

<path d="M12.5 18.9582C12.1583 18.9582 11.875 18.6748 11.875 18.3332V1.6665C11.875 1.32484 12.1583 1.0415 12.5 1.0415C12.8417 1.0415 13.125 1.32484 13.125 1.6665V18.3332C13.125 18.6748 12.8417 18.9582 12.5 18.9582Z" 
      fill="#DFFF6D"/>

<path d="M5.58333 10.8335C5.475 10.8335 5.36667 10.8085 5.26667 10.7668C5.16667 10.7252 5.075 10.6668 4.99167 10.5918C4.91667 10.5085 4.85 10.4168 4.80833 10.3168C4.76667 10.2168 4.75 10.1085 4.75 10.0002C4.75 9.7835 4.84167 9.56683 4.99167 9.4085C5.3 9.10016 5.85833 9.10016 6.175 9.4085C6.325 9.56683 6.41667 9.7835 6.41667 10.0002C6.41667 10.1085 6.39167 10.2168 6.35 10.3168C6.30833 10.4168 6.25 10.5085 6.175 10.5918C6.09167 10.6668 6 10.7252 5.9 10.7668C5.8 10.8085 5.69167 10.8335 5.58333 10.8335Z" 
      fill="#DFFF6D"/>

<path d="M8.91683 10.8335C8.8085 10.8335 8.70016 10.8085 8.60016 10.7668C8.50016 10.7252 8.4085 10.6668 8.32516 10.5918C8.25016 10.5085 8.19183 10.4168 8.14183 10.3168C8.1085 10.2168 8.0835 10.1085 8.0835 10.0002C8.0835 9.7835 8.17516 9.56683 8.32516 9.4085C8.6335 9.10016 9.20016 9.10016 9.5085 9.4085C9.6585 9.56683 9.75016 9.7835 9.75016 10.0002C9.75016 10.1085 9.72516 10.2168 9.6835 10.3168C9.64183 10.4168 9.5835 10.5085 9.5085 10.5918C9.42516 10.6668 9.3335 10.7252 9.2335 10.7668C9.1335 10.8085 9.02516 10.8335 8.91683 10.8335Z" 
      fill="#DFFF6D"/>

</svg>
