<svg width="88" height="14" viewBox="0 0 88 14" fill="none" xmlns="http://www.w3.org/2000/svg">
<g clip-path="url(#clip0_2223_10762)">
<mask id="mask0_2223_10762" style="mask-type:luminance" maskUnits="userSpaceOnUse" x="-2" y="-6" width="44" height="26">
<path d="M41.6252 -5.20007H-1.625V19.1282H41.6252V-5.20007Z" fill="white" style="fill:white;fill-opacity:1;"/>
</mask>
<g mask="url(#mask0_2223_10762)">
<path d="M6.89705 0.000244141H33.1026C34.1535 0.00943658 35.1886 0.256721 36.1301 0.723509C37.0716 1.1903 37.8951 1.86444 38.5386 2.69527C39.3596 3.75061 39.8578 5.02087 39.9733 6.35295C40.1333 8.17301 39.5714 9.98301 38.409 11.3926C37.2466 12.8022 35.5767 13.6984 33.7595 13.8879C33.2949 13.9396 32.8265 13.9238 32.3596 13.9261H7.09235C6.32464 13.9384 5.56004 13.8258 4.82848 13.5926C3.45636 13.1517 2.25495 12.2957 1.39006 11.1429C0.52518 9.99003 0.0394779 8.59713 0 7.15646V6.78072C0.0402649 5.28171 0.56297 3.83566 1.49048 2.65735C2.41799 1.47905 3.70083 0.631346 5.14846 0.240148C5.71909 0.0878988 6.3065 0.00753392 6.89705 0.000920069M31.7247 4.18774C31.5942 4.21373 31.4711 4.26853 31.3645 4.34815C31.2579 4.42777 31.1704 4.5302 31.1084 4.64795C31.0322 4.80012 30.9977 4.96975 31.0084 5.13958C31.0044 5.17264 31.0093 5.20616 31.0227 5.23668C31.036 5.2672 31.0571 5.29364 31.084 5.31326C31.2118 5.38928 31.3425 5.46126 31.4713 5.53661C31.5081 5.56386 31.5525 5.57898 31.5983 5.57986C31.6406 5.58003 31.6813 5.56438 31.7126 5.53599C31.7439 5.50759 31.7634 5.46851 31.7673 5.42645C31.771 5.32508 31.7649 5.22372 31.77 5.12235C31.7742 5.07948 31.7942 5.03971 31.8261 5.01079C31.858 4.98187 31.8996 4.96587 31.9426 4.96591C31.9943 4.96591 32.0376 4.99598 32.0808 5.02031C32.5793 5.30616 33.0777 5.59202 33.576 5.87788C33.626 5.90694 33.6848 5.93228 33.7112 5.98735C33.7319 6.02687 33.7365 6.07294 33.7239 6.11578C33.7113 6.15861 33.6825 6.19484 33.6436 6.21678C33.1052 6.52584 32.5669 6.83467 32.0288 7.14328C31.9904 7.16589 31.9447 7.17275 31.9014 7.16242C31.858 7.15209 31.8204 7.12537 31.7963 7.08787C31.7568 7.02806 31.7713 6.95271 31.7693 6.88513C31.7755 6.68753 31.7152 6.49356 31.598 6.33437C31.5047 6.20974 31.3804 6.11168 31.2375 6.04992C31.0946 5.98816 30.938 5.96484 30.7833 5.98229C30.6469 5.99939 30.516 6.04672 30.4001 6.12082L28.7489 7.06692C28.6641 7.11082 28.5854 7.16557 28.5147 7.22978C28.4171 7.32385 28.3424 7.43904 28.2963 7.56651C28.2502 7.69397 28.2339 7.83031 28.2487 7.96504C28.2635 8.09978 28.309 8.22932 28.3817 8.34372C28.4544 8.45812 28.5524 8.55432 28.6681 8.62494C29.2216 8.94368 29.7756 9.26164 30.3302 9.57881C30.4491 9.6501 30.5715 9.72106 30.71 9.74775C30.8981 9.78524 31.0933 9.76091 31.2665 9.6784C31.4397 9.5959 31.5815 9.45962 31.671 9.28991C31.7642 9.11927 31.7808 8.91823 31.7652 8.72867C31.76 8.70408 31.7495 8.68092 31.7345 8.66079C31.7194 8.64066 31.7002 8.62405 31.6781 8.6121C31.5493 8.53742 31.4199 8.46444 31.2915 8.38977C31.1878 8.30698 31.0107 8.38199 31.0111 8.5185C31.008 8.61379 31.0111 8.70941 31.0111 8.8047C31.0095 8.8484 30.9914 8.88989 30.9605 8.92085C30.9296 8.95181 30.8882 8.96994 30.8445 8.97162C30.7931 8.97567 30.7492 8.94492 30.7066 8.92093L29.1861 8.04883C29.1439 8.02417 29.0955 8.00254 29.0722 7.95726C29.0499 7.91948 29.0429 7.87454 29.0528 7.83177C29.0627 7.789 29.0886 7.75166 29.1253 7.7275C29.6659 7.41528 30.2089 7.10578 30.7502 6.79458C30.7877 6.772 30.8324 6.76461 30.8752 6.7739C30.918 6.7832 30.9556 6.80848 30.9803 6.84458C31.029 6.91216 31.0046 6.99866 31.0107 7.07537C31.0105 7.22895 31.0503 7.37994 31.1262 7.51344C31.2021 7.64695 31.3116 7.75834 31.4437 7.83664C31.5758 7.91493 31.7261 7.95742 31.8797 7.95991C32.0332 7.9624 32.1848 7.9248 32.3194 7.85083C32.9215 7.5055 33.5235 7.15995 34.1254 6.81417C34.2271 6.75111 34.3148 6.66772 34.3828 6.56923C34.4508 6.47074 34.4978 6.35926 34.5207 6.24179C34.5493 6.10098 34.5432 5.95533 34.5029 5.81741C34.4627 5.67949 34.3895 5.55343 34.2896 5.4501C34.1747 5.32914 34.0193 5.26122 33.8791 5.17641L32.3373 4.29181C32.1527 4.18338 31.9347 4.14636 31.7247 4.18774ZM9.80529 4.30499C9.72542 4.33124 9.65232 4.37476 9.59118 4.43246C9.53003 4.49016 9.48235 4.56062 9.45152 4.63883C9.35015 4.90204 9.39205 5.19027 9.38394 5.46599H8.96225C8.96225 5.68517 8.96225 5.90446 8.96225 6.12386C9.10213 6.12386 9.24168 6.12386 9.38191 6.12386C9.3836 6.90811 9.38191 7.69202 9.38191 8.47593H10.1435C10.1435 7.69202 10.1435 6.90811 10.1435 6.1242H11.1139C11.1139 6.6182 11.1139 7.1122 11.1139 7.60619C11.1173 7.79744 11.1352 7.99815 11.2336 8.1671C11.3113 8.29492 11.4351 8.38796 11.5796 8.42693C11.832 8.49992 12.0972 8.46917 12.3567 8.47593C12.3567 8.25292 12.3567 8.02923 12.3567 7.80623C12.2368 7.80217 12.109 7.82008 11.9975 7.76703C11.8979 7.71668 11.8776 7.59403 11.8762 7.493C11.8762 7.03685 11.8762 6.58058 11.8762 6.1242H12.3493C12.3493 5.9048 12.3493 5.68562 12.3493 5.46666H11.8762C11.8762 5.22225 11.8762 4.97796 11.8762 4.73377C11.6221 4.73377 11.3694 4.73377 11.1146 4.73377C11.1146 4.97807 11.1146 5.2227 11.1146 5.467H10.1445C10.1445 5.35245 10.1445 5.23757 10.1445 5.12269C10.1476 5.02673 10.1783 4.91759 10.2696 4.86893C10.3925 4.80541 10.5355 4.82636 10.6686 4.8223C10.6686 4.62734 10.6686 4.43271 10.6686 4.23775C10.3804 4.24383 10.082 4.20937 9.80461 4.30533M17.272 5.43895C17.0918 5.48662 16.9358 5.59989 16.8348 5.75657C16.8348 5.65994 16.8348 5.5633 16.8348 5.46666H16.0972C16.0972 6.46998 16.0972 7.47306 16.0972 8.47593H16.8618C16.8618 7.87628 16.8618 7.27664 16.8618 6.67699C16.8607 6.53803 16.903 6.40218 16.9828 6.28841C17.0238 6.23332 17.0769 6.18846 17.1381 6.15733C17.1993 6.1262 17.2669 6.10966 17.3356 6.10899C17.5045 6.10899 17.665 6.17083 17.8103 6.25125C17.8103 5.99445 17.8103 5.73754 17.8103 5.48052C17.6408 5.40761 17.4519 5.39323 17.2734 5.43963M19.5136 5.45821C19.277 5.52313 19.0663 5.65969 18.9105 5.84916V5.46599H18.1671C18.1671 6.87792 18.1671 8.28986 18.1671 9.7018H18.9318C18.9318 9.17559 18.9318 8.64949 18.9318 8.12351C19.0451 8.25212 19.1851 8.3545 19.342 8.42353C19.4989 8.49256 19.669 8.52659 19.8403 8.52323C20.0281 8.52334 20.2139 8.48641 20.3874 8.41458C20.5608 8.34274 20.7183 8.2374 20.851 8.10458C21.1997 7.76162 21.3521 7.24972 21.296 6.7689C21.2504 6.31139 21.0007 5.87044 20.6067 5.62581C20.4455 5.52483 20.2655 5.45776 20.0776 5.42871C19.8896 5.39967 19.6977 5.40924 19.5136 5.45686M6.00603 5.76097C5.75665 5.97986 5.58458 6.2734 5.51541 6.59792C5.4408 6.93965 5.46974 7.29586 5.59853 7.62106C5.70071 7.87782 5.87351 8.10041 6.09692 8.26306C6.25871 8.3777 6.44273 8.45717 6.63711 8.49633C6.83149 8.5355 7.03192 8.5335 7.22548 8.49046C7.47959 8.43105 7.70736 8.29035 7.87424 8.08972C7.87424 8.21879 7.87424 8.34787 7.87424 8.47694H8.6176C8.6176 7.47385 8.6176 6.47076 8.6176 5.46767H7.87424V5.84274C7.76807 5.71699 7.63733 5.61428 7.49003 5.54089C7.34274 5.4675 7.182 5.425 7.01768 5.41598C6.64834 5.39566 6.28557 5.51974 6.00603 5.76198M13.4657 5.57546C13.1812 5.71393 12.9488 5.94019 12.8027 6.22084C12.6277 6.55704 12.5868 6.95339 12.6574 7.32304C12.7177 7.65432 12.8907 7.95455 13.147 8.17284C13.4045 8.38289 13.723 8.50413 14.055 8.5185C14.4375 8.54182 14.8358 8.45532 15.1501 8.22893C15.4061 8.04456 15.5913 7.77804 15.6748 7.47374H14.8977C14.8588 7.53692 14.8124 7.59513 14.7595 7.64708C14.4925 7.90252 14.0455 7.93733 13.7387 7.73358C13.5501 7.6089 13.441 7.39096 13.4157 7.17031C14.1834 7.17031 14.951 7.17031 15.7187 7.17031C15.7934 6.65537 15.6025 6.09784 15.1977 5.76299C14.7247 5.36665 14.0168 5.30988 13.4674 5.57479M21.8809 6.00526C21.6106 6.37356 21.5214 6.8581 21.6055 7.30412C21.6684 7.66986 21.8638 7.99965 22.1542 8.23062C22.3086 8.34905 22.4856 8.43449 22.6743 8.48163C22.8631 8.52877 23.0595 8.53661 23.2514 8.50465C23.5332 8.45733 23.7888 8.31061 23.9718 8.09107C23.9718 8.21947 23.9718 8.34787 23.9718 8.47627H24.7151C24.7151 7.47318 24.7151 6.46998 24.7151 5.46666H23.9718C23.9718 5.59101 23.9718 5.71501 23.9718 5.83834C23.8451 5.6897 23.6844 5.57374 23.5035 5.50029C23.3225 5.42683 23.1265 5.39803 22.9321 5.41632C22.7247 5.43225 22.5234 5.49309 22.3419 5.59461C22.1605 5.69613 22.0033 5.83591 21.8812 6.00425M25.0098 5.46599C25.4091 6.35216 25.8106 7.23654 26.214 8.11911C25.9579 8.64668 25.7022 9.17401 25.447 9.70112C25.7318 9.70112 26.017 9.70112 26.3019 9.70112C26.9866 8.28986 27.6708 6.87804 28.3542 5.46565H27.5031C27.221 6.05561 26.9395 6.64579 26.6583 7.2362C26.3985 6.64692 26.1437 6.05561 25.8852 5.46565H25.0094" fill="#B2FCE4" style="fill:#B2FCE4;fill:color(display-p3 0.6980 0.9882 0.8941);fill-opacity:1;"/>
<path d="M13.6818 6.24572C13.9829 5.99838 14.4755 6.02372 14.7407 6.3133C14.8377 6.42122 14.8999 6.55577 14.9195 6.69951C14.4199 6.69951 13.92 6.69951 13.4199 6.69951C13.4521 6.52249 13.5446 6.36211 13.6818 6.24572Z" fill="#B2FCE4" style="fill:#B2FCE4;fill:color(display-p3 0.6980 0.9882 0.8941);fill-opacity:1;"/>
<path d="M6.93271 6.12203C7.04717 6.10484 7.16398 6.11235 7.2753 6.14405C7.38661 6.17576 7.48985 6.23093 7.57808 6.30585C7.92205 6.59947 7.9626 7.16612 7.68823 7.51922C7.56617 7.67741 7.38891 7.78372 7.19187 7.8169C7.07111 7.838 6.94713 7.83118 6.82941 7.79698C6.71169 7.76278 6.60336 7.70209 6.5127 7.61957C6.21299 7.34926 6.15353 6.86844 6.35153 6.5221C6.41146 6.41549 6.49499 6.32402 6.59573 6.25467C6.69646 6.18533 6.81173 6.13996 6.93271 6.12203Z" fill="#B2FCE4" style="fill:#B2FCE4;fill:color(display-p3 0.6980 0.9882 0.8941);fill-opacity:1;"/>
<path d="M19.6039 6.12297C19.7978 6.09207 19.9964 6.13382 20.1614 6.24022C20.2694 6.31505 20.3595 6.41281 20.4253 6.52653C20.4911 6.64024 20.531 6.76709 20.5421 6.898C20.5531 7.02891 20.5352 7.16066 20.4894 7.28381C20.4436 7.40696 20.3712 7.51847 20.2773 7.61037C20.1979 7.68559 20.1038 7.74367 20.001 7.78102C19.8982 7.81836 19.7888 7.83416 19.6796 7.82744C19.5704 7.82072 19.4637 7.79163 19.3663 7.74197C19.2688 7.6923 19.1826 7.62313 19.1129 7.53874C18.919 7.30593 18.8673 6.97176 18.9592 6.68624C19.0036 6.54181 19.0875 6.41267 19.2015 6.31339C19.3154 6.2141 19.4548 6.14862 19.6039 6.12433" fill="#B2FCE4" style="fill:#B2FCE4;fill:color(display-p3 0.6980 0.9882 0.8941);fill-opacity:1;"/>
<path d="M23.0195 6.12406C23.1408 6.10408 23.2651 6.11195 23.3829 6.14707C23.5007 6.18219 23.6091 6.24365 23.6996 6.3268C23.9632 6.56941 24.0318 6.97792 23.9071 7.30669C23.8668 7.41471 23.8038 7.5128 23.7222 7.59433C23.6407 7.67586 23.5426 7.73891 23.4346 7.77922C23.3266 7.81953 23.2112 7.83615 23.0962 7.82797C22.9812 7.81978 22.8693 7.78696 22.7681 7.73175C22.6665 7.67493 22.578 7.59746 22.5081 7.50435C22.4383 7.41124 22.3887 7.30455 22.3626 7.19113C22.3316 7.06502 22.3276 6.93377 22.3509 6.806C22.3742 6.67823 22.4242 6.55684 22.4978 6.44979C22.559 6.36361 22.6367 6.29044 22.7265 6.23452C22.8162 6.17861 22.9161 6.14106 23.0205 6.12406" fill="#B2FCE4" style="fill:#B2FCE4;fill:color(display-p3 0.6980 0.9882 0.8941);fill-opacity:1;"/>
<path d="M31.7244 4.18806C31.9342 4.14675 32.1519 4.18339 32.3367 4.29112L33.8785 5.17572C34.019 5.26053 34.1741 5.32845 34.289 5.44941C34.3888 5.55274 34.462 5.6788 34.5023 5.81672C34.5426 5.95464 34.5487 6.10028 34.5201 6.24109C34.4972 6.35857 34.4502 6.47004 34.3822 6.56853C34.3141 6.66702 34.2265 6.75041 34.1248 6.81348C33.5238 7.16061 32.9219 7.50616 32.3191 7.85013C32.1845 7.92419 32.0329 7.96185 31.8793 7.9594C31.7257 7.95696 31.5753 7.91448 31.4432 7.83618C31.311 7.75787 31.2015 7.64645 31.1256 7.5129C31.0496 7.37935 31.0098 7.2283 31.0101 7.07467C31.004 6.99797 31.0283 6.91113 30.9797 6.84389C30.9546 6.80762 30.9166 6.78236 30.8734 6.77337C30.8303 6.76437 30.7853 6.77232 30.7479 6.79557C30.2073 7.10688 29.6656 7.41797 29.123 7.72883C29.086 7.75265 29.0598 7.78994 29.0499 7.83278C29.04 7.87562 29.0472 7.92063 29.0699 7.95826C29.0932 8.00354 29.1415 8.02584 29.1838 8.04983L30.7043 8.92193C30.7469 8.94592 30.7908 8.97667 30.8422 8.97261C30.8859 8.97093 30.9273 8.9528 30.9582 8.92184C30.9891 8.89089 31.0072 8.8494 31.0087 8.80569C31.0108 8.71041 31.0067 8.61478 31.0087 8.5195C31.0087 8.38434 31.1851 8.30798 31.2889 8.39076C31.4173 8.46544 31.5467 8.53876 31.6754 8.61309C31.6975 8.62504 31.7168 8.64166 31.7318 8.66179C31.7469 8.68192 31.7574 8.70508 31.7626 8.72967C31.7781 8.9199 31.7626 9.12027 31.6683 9.29091C31.5789 9.46062 31.437 9.59689 31.2638 9.6794C31.0907 9.76191 30.8955 9.78623 30.7073 9.74875C30.5688 9.72375 30.4465 9.65279 30.3275 9.5798C29.7732 9.26219 29.2191 8.94423 28.6655 8.62593C28.5499 8.55512 28.4522 8.45875 28.3797 8.34426C28.3072 8.22976 28.2619 8.10017 28.2473 7.96545C28.2328 7.83072 28.2492 7.69445 28.2955 7.56709C28.3418 7.43973 28.4167 7.32468 28.5144 7.23078C28.5851 7.16656 28.6638 7.11181 28.7486 7.06791L30.3999 6.12182C30.5157 6.04772 30.6466 6.00039 30.783 5.98328C30.9377 5.96584 31.0943 5.98915 31.2372 6.05092C31.3801 6.11268 31.5044 6.21074 31.5977 6.33536C31.7149 6.49456 31.7752 6.68853 31.769 6.88613C31.771 6.95371 31.7565 7.02872 31.796 7.08886C31.82 7.12643 31.8577 7.15321 31.9011 7.16354C31.9444 7.17388 31.9901 7.16697 32.0285 7.14428C32.5671 6.8359 33.1054 6.52706 33.6433 6.21778C33.6822 6.19584 33.711 6.15961 33.7236 6.11677C33.7362 6.07393 33.7317 6.02787 33.7109 5.98835C33.6835 5.93327 33.625 5.90793 33.5757 5.87887L32.0805 5.0213C32.0373 4.99697 31.994 4.96521 31.9423 4.9669C31.8993 4.96686 31.8577 4.98286 31.8258 5.01179C31.7939 5.04071 31.7739 5.08048 31.7697 5.12335C31.7649 5.22471 31.7697 5.32608 31.767 5.42745C31.7631 5.46951 31.7436 5.50859 31.7123 5.53698C31.681 5.56538 31.6403 5.58103 31.598 5.58085C31.5522 5.57998 31.5078 5.56486 31.471 5.5376C31.3422 5.46225 31.2115 5.39028 31.0838 5.31425C31.0567 5.2946 31.0354 5.26806 31.0221 5.2374C31.0088 5.20674 31.004 5.17307 31.0081 5.1399C30.9967 4.96988 31.0307 4.7999 31.1064 4.64726C31.1687 4.5295 31.2565 4.42715 31.3634 4.3477C31.4703 4.26825 31.5937 4.2137 31.7244 4.18806Z" fill="black" style="fill:black;fill-opacity:1;"/>
<path d="M9.80526 4.30515C10.0827 4.20851 10.3797 4.24297 10.6692 4.23757C10.6692 4.43253 10.6692 4.62716 10.6692 4.82212C10.5361 4.82618 10.3932 4.80523 10.2702 4.86875C10.1796 4.91741 10.1482 5.02655 10.1452 5.12251C10.1452 5.23739 10.1452 5.35227 10.1452 5.46682H11.1156C11.1156 5.22252 11.1156 4.97789 11.1156 4.73359C11.3694 4.73359 11.6224 4.73359 11.8772 4.73359C11.8772 4.97778 11.8772 5.22207 11.8772 5.46648C12.035 5.46648 12.1931 5.46648 12.3503 5.46648C12.3503 5.68544 12.3503 5.90462 12.3503 6.12402H11.8772C11.8772 6.5804 11.8772 7.03667 11.8772 7.49282C11.8772 7.59419 11.8988 7.71651 11.9985 7.76685C12.11 7.8199 12.2377 7.80064 12.3577 7.80605C12.3577 8.02906 12.3577 8.25274 12.3577 8.47575C12.0989 8.46899 11.8336 8.49974 11.5805 8.42675C11.4361 8.38778 11.3122 8.29474 11.2345 8.16692C11.1362 7.99797 11.1183 7.79726 11.1149 7.60635C11.1149 7.11213 11.1149 6.61802 11.1149 6.12402H10.1445C10.1445 6.90793 10.1445 7.69184 10.1445 8.47575H9.38255C9.38255 7.69184 9.38255 6.90793 9.38255 6.12368C9.24233 6.12368 9.10278 6.12368 8.96289 6.12368C8.96289 5.90428 8.96289 5.68499 8.96289 5.46581C9.10278 5.46581 9.243 5.46581 9.38323 5.46581C9.39269 5.19009 9.34944 4.90187 9.45081 4.63865C9.48164 4.56044 9.52932 4.48998 9.59047 4.43228C9.65161 4.37458 9.72471 4.33106 9.80458 4.30481" fill="black" style="fill:black;fill-opacity:1;"/>
<path d="M17.2732 5.43917C17.4517 5.39267 17.6406 5.40693 17.8101 5.47972C17.8101 5.73652 17.8101 5.99343 17.8101 6.25045C17.6648 6.17003 17.5033 6.1082 17.3354 6.1082C17.2666 6.10901 17.1989 6.12572 17.1377 6.15702C17.0764 6.18832 17.0233 6.23337 16.9823 6.28864C16.9024 6.40274 16.8603 6.53896 16.8617 6.67822C16.8617 7.27764 16.8617 7.87729 16.8617 8.47716H16.0967C16.0967 7.47407 16.0967 6.47098 16.0967 5.4679H16.8363C16.8363 5.56453 16.8363 5.66117 16.8363 5.75781C16.9373 5.60112 17.0933 5.48792 17.2736 5.44053" fill="black" style="fill:black;fill-opacity:1;"/>
<path d="M19.5135 5.45753C19.6976 5.40991 19.8895 5.40033 20.0774 5.42938C20.2654 5.45843 20.4454 5.52549 20.6066 5.62647C21.0006 5.87111 21.2486 6.31206 21.2959 6.76956C21.352 7.25038 21.1996 7.76263 20.8509 8.10525C20.7182 8.23806 20.5607 8.3434 20.3873 8.41524C20.2138 8.48708 20.0279 8.524 19.8402 8.5239C19.6689 8.52713 19.4989 8.49309 19.342 8.42413C19.1851 8.35517 19.0451 8.25294 18.9316 8.12451C18.9316 8.65027 18.9316 9.17637 18.9316 9.70247C18.6769 9.70247 18.422 9.70247 18.167 9.70247C18.167 8.29053 18.167 6.87859 18.167 5.46665H18.9104V5.84948C19.066 5.65921 19.2769 5.52191 19.5138 5.45651M19.6037 6.12216C19.4546 6.14646 19.3152 6.21194 19.2013 6.31123C19.0874 6.41051 19.0034 6.53965 18.959 6.68408C18.8671 6.9696 18.9188 7.30377 19.1128 7.53658C19.1823 7.62106 19.2684 7.69034 19.3658 7.74013C19.4633 7.78991 19.5699 7.81914 19.6791 7.82598C19.7883 7.83283 19.8977 7.81715 20.0006 7.77992C20.1035 7.74269 20.1976 7.6847 20.2771 7.60956C20.371 7.51766 20.4434 7.40614 20.4892 7.28299C20.535 7.15984 20.553 7.0281 20.5419 6.89719C20.5308 6.76628 20.4909 6.63943 20.4251 6.52572C20.3593 6.412 20.2692 6.31424 20.1612 6.23941C19.9962 6.13301 19.7976 6.09126 19.6037 6.12216Z" fill="black" style="fill:black;fill-opacity:1;"/>
<path d="M6.006 5.76074C6.28556 5.51853 6.64831 5.39446 7.01765 5.41474C7.18197 5.42376 7.34271 5.46627 7.49 5.53965C7.6373 5.61304 7.76804 5.71576 7.87421 5.8415V5.46644H8.61757C8.61757 6.46976 8.61757 7.47284 8.61757 8.47571H7.87421C7.87421 8.34663 7.87421 8.21756 7.87421 8.08882C7.70766 8.28894 7.48055 8.42947 7.22714 8.48922C7.03358 8.53227 6.83315 8.53427 6.63877 8.4951C6.44439 8.45593 6.26037 8.37647 6.09858 8.26182C5.8751 8.09924 5.70229 7.87664 5.60019 7.61983C5.47138 7.29463 5.44244 6.93841 5.51707 6.59669C5.58624 6.27216 5.75831 5.97862 6.00769 5.75973M6.93385 6.12094C6.81288 6.13886 6.69761 6.18423 6.59687 6.25358C6.49614 6.32292 6.41261 6.4144 6.35268 6.521C6.15467 6.86734 6.21414 7.34816 6.51385 7.61847C6.6045 7.70099 6.71284 7.76168 6.83056 7.79588C6.94827 7.83009 7.07226 7.8369 7.19301 7.8158C7.39005 7.78262 7.56731 7.67631 7.68938 7.51812C7.96375 7.16502 7.9232 6.59838 7.57923 6.30475C7.491 6.22983 7.38776 6.17466 7.27644 6.14296C7.16513 6.11125 7.04831 6.10375 6.93385 6.12094Z" fill="black" style="fill:black;fill-opacity:1;"/>
<path d="M13.4659 5.57438C14.0153 5.30947 14.7232 5.36624 15.1962 5.76258C15.6017 6.09743 15.7919 6.65496 15.7172 7.1699C14.9496 7.1699 14.182 7.1699 13.4145 7.1699C13.4395 7.39055 13.5497 7.60916 13.7372 7.73317C14.044 7.93591 14.491 7.90212 14.758 7.64667C14.811 7.5948 14.8574 7.53658 14.8962 7.47333H15.6733C15.59 7.77788 15.4048 8.04466 15.1486 8.2292C14.8343 8.45558 14.436 8.54208 14.0535 8.51877C13.7211 8.50442 13.4022 8.38293 13.1445 8.17243C12.8882 7.95414 12.7152 7.65391 12.6549 7.32263C12.5843 6.95298 12.6252 6.55663 12.8002 6.22076C12.9463 5.93923 13.1792 5.71232 13.4645 5.5737M13.6808 6.24509C13.5437 6.3614 13.4511 6.52165 13.4189 6.69854C13.919 6.69854 14.4188 6.69854 14.9185 6.69854C14.8989 6.55481 14.8366 6.42026 14.7397 6.31233C14.4745 6.0231 13.9818 5.99776 13.6808 6.24476" fill="black" style="fill:black;fill-opacity:1;"/>
<path d="M21.8803 6.00465C22.0023 5.83632 22.1595 5.69654 22.341 5.59502C22.5225 5.49349 22.7238 5.43266 22.9311 5.41672C23.1256 5.39843 23.3216 5.42723 23.5026 5.50069C23.6835 5.57415 23.8441 5.6901 23.9708 5.83875C23.9708 5.71474 23.9708 5.59074 23.9708 5.46707H24.7142C24.7142 6.47038 24.7142 7.47358 24.7142 8.47667H23.9708C23.9708 8.34827 23.9708 8.21987 23.9708 8.09147C23.7879 8.31101 23.5323 8.45774 23.2504 8.50506C23.0586 8.53701 22.8621 8.52918 22.6734 8.48204C22.4847 8.4349 22.3076 8.34946 22.1533 8.23102C21.8625 7.99942 21.6672 7.66871 21.6049 7.30216C21.5208 6.85614 21.6086 6.3716 21.8803 6.0033M23.019 6.12258C22.9146 6.13958 22.8147 6.17712 22.725 6.23304C22.6352 6.28895 22.5575 6.36212 22.4963 6.44831C22.4227 6.55535 22.3727 6.67675 22.3494 6.80451C22.3261 6.93228 22.3301 7.06353 22.3611 7.18964C22.3872 7.30306 22.4368 7.40976 22.5066 7.50287C22.5765 7.59598 22.665 7.67344 22.7666 7.73027C22.8678 7.78548 22.9797 7.81829 23.0947 7.82648C23.2097 7.83467 23.3251 7.81805 23.4331 7.77774C23.5412 7.73743 23.6392 7.67437 23.7208 7.59284C23.8023 7.51132 23.8653 7.41322 23.9056 7.3052C24.0303 6.97643 23.9617 6.56792 23.6982 6.32531C23.6076 6.24217 23.4993 6.18071 23.3814 6.14558C23.2636 6.11046 23.1393 6.10259 23.018 6.12258" fill="black" style="fill:black;fill-opacity:1;"/>
<path d="M25.0098 5.46647H25.8863C26.1447 6.05643 26.3995 6.64909 26.6594 7.23702C26.9412 6.64706 27.2227 6.05688 27.5041 5.46647H28.3552C27.6713 6.87841 26.987 8.29001 26.3022 9.70127C26.0174 9.70127 25.7322 9.70127 25.4473 9.70127C25.703 9.17393 25.9587 8.64626 26.2143 8.11824C25.8136 7.23364 25.4121 6.34938 25.0098 5.46545" fill="black" style="fill:black;fill-opacity:1;"/>
</g>
</g>
<g clip-path="url(#clip1_2223_10762)">
<path d="M84.1662 10.0222C83.2393 10.0222 82.5167 9.26273 82.5167 8.34044C82.5167 7.4182 83.2393 6.65864 84.1662 6.65864C85.0932 6.65864 85.8157 7.4182 85.8157 8.34044C85.8157 9.26273 85.0932 10.0222 84.1662 10.0222ZM83.7028 11.799C84.4934 11.799 85.5022 11.5006 86.0611 10.3342L86.1156 10.3613C85.8703 10.9988 85.8703 11.3786 85.8703 11.4735V11.6227H87.8606V5.05824H85.8703V5.20744C85.8703 5.30238 85.8703 5.68213 86.1156 6.31959L86.0611 6.34671C85.5022 5.18031 84.4934 4.88192 83.7028 4.88192C81.8079 4.88192 80.4719 6.37384 80.4719 8.34044C80.4719 10.3071 81.8079 11.799 83.7028 11.799ZM77.0094 4.88192C76.1096 4.88192 75.4007 5.19387 74.8282 6.34671L74.7737 6.31959C75.019 5.68213 75.019 5.30238 75.019 5.20744V5.05824H73.0287V11.6227H75.0736V8.16413C75.0736 7.25543 75.6052 6.68581 76.464 6.68581C77.3229 6.68581 77.7455 7.17407 77.7455 8.1506V11.6227H79.7903V7.44532C79.7903 5.95339 78.6179 4.88192 77.0094 4.88192ZM70.0705 6.34671L70.016 6.31959C70.2614 5.68213 70.2614 5.30238 70.2614 5.20744V5.05824H68.2711V11.6227H70.3159L70.3296 8.46251C70.3296 7.54027 70.8203 6.98418 71.6246 6.98418C71.8427 6.98418 72.02 7.0113 72.2244 7.06554V5.05824C71.3247 4.86836 70.5204 5.20744 70.0705 6.34671ZM63.568 10.0222C62.641 10.0222 61.9185 9.26273 61.9185 8.34044C61.9185 7.4182 62.641 6.65864 63.568 6.65864C64.495 6.65864 65.2175 7.4182 65.2175 8.34044C65.2175 9.26273 64.495 10.0222 63.568 10.0222ZM63.1045 11.799C63.8952 11.799 64.904 11.5006 65.4629 10.3342L65.5174 10.3613C65.272 10.9988 65.272 11.3786 65.272 11.4735V11.6227H67.2623V5.05824H65.272V5.20744C65.272 5.30238 65.272 5.68213 65.5174 6.31959L65.4629 6.34671C64.904 5.18031 63.8952 4.88192 63.1045 4.88192C61.2096 4.88192 59.8737 6.37384 59.8737 8.34044C59.8737 10.3071 61.2096 11.799 63.1045 11.799ZM57.0245 11.6227H59.0694V2.12866H57.0245V11.6227ZM55.525 2.12866H53.4393C53.4393 3.82402 52.3896 5.34306 50.7946 6.42809L50.1675 6.86211V2.12866H48V11.6227H50.1675V6.91635L53.7528 11.6227H56.3975L52.9485 7.11978C54.5162 5.99408 55.5386 4.24447 55.525 2.12866Z" fill="#FFA8CD" style="fill:#FFA8CD;fill:color(display-p3 1.0000 0.6588 0.8039);fill-opacity:1;"/>
</g>
<defs>
<clipPath id="clip0_2223_10762">
<rect width="40" height="13.9276" fill="white" style="fill:white;fill-opacity:1;"/>
</clipPath>
<clipPath id="clip1_2223_10762">
<rect width="40" height="9.67033" fill="white" style="fill:white;fill-opacity:1;" transform="translate(48 2.12866)"/>
</clipPath>
</defs>
</svg>
