<svg width="34" height="30" viewBox="0 0 34 30" fill="none" xmlns="http://www.w3.org/2000/svg">
<path fill-rule="evenodd" clip-rule="evenodd" d="M4.00001 20.1465H1.40732C1.2299 20.1465 1.079 20.2754 1.05134 20.4505L0.0027198 27.099C-0.0181224 27.2302 0.0834753 27.3484 0.216546 27.3484H1.45432C1.63174 27.3484 1.78264 27.2195 1.8103 27.044L2.09313 25.2509C2.12041 25.0753 2.27167 24.9465 2.44873 24.9465H3.26948C4.97738 24.9465 5.963 24.12 6.22054 22.4823C6.33651 21.7658 6.22545 21.2028 5.88984 20.8084C5.52142 20.3756 4.86773 20.1465 4.00001 20.1465ZM4.29913 22.5747C4.15738 23.5051 3.44654 23.5051 2.75922 23.5051H2.36797L2.64245 21.7675C2.65875 21.6626 2.74973 21.5853 2.85588 21.5853H3.0352C3.5034 21.5853 3.9451 21.5853 4.17335 21.8521C4.30931 22.0114 4.35106 22.2479 4.29913 22.5747ZM11.7502 22.5449H10.5086C10.4028 22.5449 10.3114 22.6223 10.2951 22.7274L10.2402 23.0746L10.1534 22.9488C9.88459 22.5586 9.28529 22.4282 8.68704 22.4282C7.31493 22.4282 6.14317 23.4674 5.91493 24.9251C5.79633 25.6521 5.96493 26.3474 6.37739 26.8323C6.75581 27.2781 7.29721 27.4639 7.94125 27.4639C9.04669 27.4639 9.65985 26.753 9.65985 26.753L9.60441 27.0981C9.58353 27.23 9.68511 27.3483 9.81739 27.3483H10.9358C11.1137 27.3483 11.2637 27.2193 11.2918 27.0439L11.9628 22.7944C11.9841 22.6637 11.8828 22.5449 11.7502 22.5449ZM10.0195 24.9614C9.89967 25.6707 9.33669 26.1468 8.61879 26.1468C8.25827 26.1468 7.97002 26.0312 7.78511 25.8121C7.6016 25.5946 7.53177 25.2847 7.59019 24.9398C7.70213 24.2365 8.27458 23.7449 8.9816 23.7449C9.33406 23.7449 9.62073 23.8619 9.8095 24.083C9.99862 24.3063 10.0737 24.6179 10.0195 24.9614ZM17.115 22.5447H18.3627C18.5374 22.5447 18.6393 22.7407 18.54 22.884L14.3904 28.8739C14.3232 28.9709 14.2125 29.0286 14.0942 29.0286H12.8481C12.6727 29.0286 12.5702 28.8311 12.6718 28.6874L13.9639 26.8635L12.5897 22.8305C12.5421 22.6903 12.6456 22.5447 12.7948 22.5447H14.0207C14.18 22.5447 14.3206 22.6493 14.3665 22.8018L15.0958 25.2375L16.8167 22.7028C16.8841 22.6039 16.996 22.5447 17.115 22.5447Z" fill="#253B80"/>
<path fill-rule="evenodd" clip-rule="evenodd" d="M30.6422 27.0983L31.7063 20.3283C31.7226 20.2232 31.8136 20.1459 31.9194 20.1455H33.1173C33.2496 20.1455 33.3512 20.2641 33.3303 20.3953L32.281 27.0434C32.2536 27.2189 32.1028 27.3478 31.925 27.3478H30.8552C30.7229 27.3478 30.6214 27.2296 30.6422 27.0983ZM22.4933 20.1459H19.9001C19.7231 20.1459 19.5722 20.2748 19.5445 20.4499L18.4959 27.0983C18.475 27.2296 18.5766 27.3478 18.7091 27.3478H20.0396C20.1633 27.3478 20.2691 27.2576 20.2884 27.1348L20.5859 25.2503C20.6133 25.0746 20.7645 24.9459 20.9415 24.9459H21.7619C23.4701 24.9459 24.4556 24.1194 24.7133 22.4817C24.8296 21.7652 24.7178 21.2022 24.3824 20.8078C24.0142 20.375 23.361 20.1459 22.4933 20.1459ZM22.7924 22.5741C22.651 23.5045 21.9401 23.5045 21.2524 23.5045H20.8615L21.1364 21.7669C21.1527 21.662 21.2429 21.5846 21.3494 21.5846H21.5287C21.9966 21.5846 22.4387 21.5846 22.6668 21.8515C22.8029 22.0108 22.8443 22.2473 22.7924 22.5741ZM30.2428 22.5443H29.0021C28.8954 22.5443 28.8049 22.6217 28.7889 22.7267L28.734 23.0739L28.6468 22.9481C28.378 22.558 27.7791 22.4276 27.1808 22.4276C25.8087 22.4276 24.6373 23.4667 24.4091 24.9245C24.2908 25.6515 24.4587 26.3468 24.8712 26.8317C25.2503 27.2775 25.791 27.4632 26.435 27.4632C27.5405 27.4632 28.1535 26.7524 28.1535 26.7524L28.0982 27.0975C28.0773 27.2294 28.1789 27.3476 28.3121 27.3476H29.43C29.607 27.3476 29.7578 27.2187 29.7856 27.0432L30.457 22.7938C30.4775 22.6631 30.3759 22.5443 30.2428 22.5443ZM28.5122 24.9608C28.3931 25.6701 27.8294 26.1462 27.1114 26.1462C26.7515 26.1462 26.4628 26.0306 26.2777 25.8115C26.0942 25.5939 26.0252 25.2841 26.0829 24.9392C26.1954 24.2359 26.7671 23.7443 27.4742 23.7443C27.8268 23.7443 28.1133 23.8613 28.3022 24.0824C28.4921 24.3057 28.5671 24.6173 28.5122 24.9608Z" fill="#179BD7"/>
<path d="M13.5951 17.7681L13.9138 15.7436L13.2038 15.7271H9.81348L12.1696 0.787357C12.1768 0.742252 12.2007 0.700199 12.2354 0.670339C12.2701 0.64048 12.3147 0.624023 12.361 0.624023H18.0777C19.9756 0.624023 21.2853 1.01895 21.9691 1.79845C22.2896 2.16413 22.4939 2.54626 22.5926 2.96678C22.6961 3.40805 22.6981 3.93522 22.5968 4.57821L22.5895 4.62514V5.03712L22.9102 5.21875C23.1802 5.36196 23.3946 5.52591 23.5591 5.71363C23.8335 6.02628 24.0109 6.42365 24.0858 6.89476C24.1632 7.37929 24.1375 7.95583 24.0109 8.60857C23.8646 9.35943 23.6281 10.0134 23.3088 10.5485C23.0149 11.0415 22.6407 11.4504 22.1965 11.7674C21.7723 12.0685 21.2682 12.2971 20.6984 12.4434C20.1461 12.5871 19.5167 12.6597 18.8261 12.6597H18.3812C18.0631 12.6597 17.754 12.7743 17.5116 12.9797C17.2684 13.1894 17.1074 13.4757 17.0581 13.789L17.0245 13.9713L16.4614 17.5395L16.4358 17.6706C16.4291 17.7122 16.4175 17.7329 16.4005 17.7469C16.3852 17.7595 16.3633 17.7681 16.3419 17.7681H13.5951Z" fill="#253B80"/>
<path d="M23.2138 4.67285C23.1968 4.78194 23.1773 4.89347 23.1554 5.00805C22.4013 8.87874 19.8222 10.2159 16.528 10.2159H14.8508C14.448 10.2159 14.1085 10.5084 14.0457 10.9058L13.1869 16.352L12.9438 17.8957C12.9029 18.1566 13.1041 18.3918 13.3673 18.3918H16.3422C16.6945 18.3918 16.9936 18.1359 17.049 17.7885L17.0783 17.6373L17.6385 14.0829L17.6745 13.888C17.7292 13.5394 18.029 13.2834 18.3813 13.2834H18.8262C21.7084 13.2834 23.9647 12.1132 24.6241 8.72698C24.8996 7.31242 24.757 6.13129 24.028 5.30059C23.8075 5.0501 23.5338 4.84227 23.2138 4.67285Z" fill="#179BD7"/>
<path d="M22.4244 4.35849C22.3093 4.32496 22.1904 4.29449 22.0685 4.26707C21.946 4.24026 21.8204 4.21649 21.6913 4.19577C21.239 4.12263 20.7435 4.08789 20.2127 4.08789H15.7319C15.6216 4.08789 15.5169 4.11287 15.423 4.15798C15.2163 4.25731 15.0628 4.45296 15.0256 4.69247L14.0723 10.7298L14.0449 10.9059C14.1077 10.5086 14.4472 10.216 14.85 10.216H16.5272C19.8214 10.216 22.4007 8.87825 23.1546 5.00817C23.1771 4.89359 23.196 4.78207 23.213 4.67298C23.0223 4.5718 22.8156 4.48526 22.5932 4.41151C22.5385 4.39322 22.4818 4.37556 22.4244 4.35849Z" fill="#222D65"/>
<path d="M15.0263 4.69224C15.0635 4.45271 15.2171 4.25708 15.4236 4.15834C15.5182 4.11324 15.6224 4.08825 15.7326 4.08825H20.2135C20.7444 4.08825 21.2398 4.12299 21.6919 4.19613C21.8212 4.21685 21.9468 4.24062 22.0693 4.26743C22.1912 4.29487 22.31 4.32534 22.4252 4.35885C22.4824 4.37592 22.5391 4.39359 22.5945 4.41127C22.817 4.48501 23.0237 4.57217 23.2144 4.67273C23.4387 3.24232 23.2126 2.26841 22.4393 1.38651C21.5866 0.41565 20.0477 0 18.0786 0H12.3617C11.9594 0 11.6164 0.292527 11.5542 0.69051L9.1731 15.7838C9.12608 16.0824 9.35644 16.3519 9.65749 16.3519H13.187L14.0731 10.7296L15.0263 4.69224Z" fill="#253B80"/>
</svg>
