<svg width="20" height="20" viewBox="0 0 20 20" fill="none" xmlns="http://www.w3.org/2000/svg">
  <path d="M16.183 9.79166H13.333C12.9913 9.79166 12.708 9.50832 12.708 9.16666V3.34166C12.708 2.72499 12.9497 2.14999 13.383 1.71666C13.8163 1.28332 14.3913 1.04166 15.008 1.04166H15.0163C16.058 1.04999 17.0413 1.45832 17.7913 2.19999C18.5413 2.95832 18.9497 3.95832 18.9497 4.99999V7.01665C18.958 8.67499 17.8413 9.79166 16.183 9.79166ZM13.958 8.54166H16.183C17.1497 8.54166 17.708 7.98332 17.708 7.01665V4.99999C17.708 4.28332 17.4247 3.59999 16.9163 3.08332C16.408 2.58332 15.7247 2.29999 15.0163 2.29166H15.008C14.733 2.29166 14.4663 2.39999 14.2663 2.59999C14.0663 2.79999 13.958 3.05832 13.958 3.34166V8.54166Z"
        fill="#292D32"/>
  <path d="M7.49981 19.4417C7.10814 19.4417 6.74147 19.2917 6.46647 19.0083L5.08314 17.6167C5.00814 17.5417 4.89147 17.5333 4.80814 17.6L3.38314 18.6667C2.94147 19 2.35814 19.0583 1.85814 18.8083C1.35814 18.5583 1.0498 18.0583 1.0498 17.5V4.99999C1.0498 2.48332 2.49147 1.04166 5.00814 1.04166H15.0081C15.3498 1.04166 15.6331 1.32499 15.6331 1.66666C15.6331 2.00832 15.3498 2.29166 15.0081 2.29166C14.4331 2.29166 13.9665 2.75832 13.9665 3.33332V17.5C13.9665 18.0583 13.6581 18.5583 13.1581 18.8083C12.6581 19.0583 12.0748 19.0083 11.6331 18.675L10.2081 17.6083C10.1248 17.5417 10.0081 17.5583 9.94147 17.625L8.54147 19.025C8.25814 19.2917 7.89147 19.4417 7.49981 19.4417ZM4.92481 16.3083C5.30814 16.3083 5.68314 16.45 5.96647 16.7417L7.34981 18.1333C7.39981 18.1833 7.46647 18.1917 7.49981 18.1917C7.53314 18.1917 7.59981 18.1833 7.64981 18.1333L9.04981 16.7333C9.56647 16.2167 10.3831 16.1667 10.9581 16.6083L12.3748 17.6667C12.4665 17.7333 12.5498 17.7083 12.5915 17.6833C12.6331 17.6583 12.7081 17.6083 12.7081 17.5V3.33332C12.7081 2.95832 12.7998 2.59999 12.9581 2.29166H4.99981C3.14981 2.29166 2.29147 3.14999 2.29147 4.99999V17.5C2.29147 17.6167 2.36647 17.6667 2.40814 17.6917C2.45814 17.7167 2.54147 17.7333 2.62481 17.6667L4.04981 16.6C4.30814 16.4083 4.61647 16.3083 4.92481 16.3083Z"
        fill="#292D32"/>
  <path d="M9.52572 11.7333C9.05905 11.7333 8.69238 11.3583 8.69238 10.9C8.69238 10.4417 9.06738 10.0667 9.52572 10.0667C9.98405 10.0667 10.359 10.4417 10.359 10.9C10.359 11.3583 9.98405 11.7333 9.52572 11.7333Z" fill="#292D32"/>
  <path d="M5.47396 8.35835C5.00729 8.35835 4.64062 7.98335 4.64062 7.52501C4.64062 7.06668 5.01562 6.69168 5.47396 6.69168C5.93229 6.69168 6.30729 7.06668 6.30729 7.52501C6.30729 7.98335 5.93229 8.35835 5.47396 8.35835Z" fill="#292D32"/>
  <path d="M5.22448 12.0666C5.06614 12.0666 4.90781 12.0083 4.78281 11.8833C4.54115 11.6416 4.54115 11.2416 4.78281 11L9.33281 6.44996C9.57448 6.20829 9.97448 6.20829 10.2161 6.44996C10.4578 6.69162 10.4578 7.09162 10.2161 7.33329L5.66614 11.8833C5.54948 12 5.38281 12.0666 5.22448 12.0666Z" fill="#292D32"/>
</svg>
