<svg width="17" height="17" viewBox="0 0 17 17" fill="none" xmlns="http://www.w3.org/2000/svg">
  <g clip-path="url(#clip0_2314_25811)">
    <path d="M9.72266 9.72223L11.4588 11.4583" stroke="#B3B3B3" stroke-width="1.04167" stroke-linejoin="round"/>
    <path d="M11.4112 12.8647C11.0101 12.4636 11.0101 11.8131 11.4112 11.412C11.8124 11.0108 12.4628 11.0108 12.8639 11.412L14.9761 13.5242C15.3773 13.9253 15.3773 14.5758 14.9761 14.9769C14.575 15.3781 13.9246 15.3781 13.5234 14.9769L11.4112 12.8647Z" stroke="#B3B3B3" stroke-width="1.04167" stroke-linecap="round"/>
    <path d="M11.1109 6.25C11.1109 3.56528 8.9345 1.38889 6.24978 1.38889C3.56507 1.38889 1.38867 3.56528 1.38867 6.25C1.38867 8.93471 3.56507 11.1111 6.24978 11.1111C8.9345 11.1111 11.1109 8.93471 11.1109 6.25Z" stroke="#B3B3B3" stroke-width="1.04167" stroke-linejoin="round"/>
  </g>
  <defs>
    <clipPath id="clip0_2314_25811">
      <rect width="16.6667" height="16.6667" fill="white"/>
    </clipPath>
  </defs>
</svg>
