<svg width="20" height="20" viewBox="0 0 20 20" fill="none" xmlns="http://www.w3.org/2000/svg">
  <path d="M7.00781 5.29169H13.0078C14.5474 5.29169 15.306 5.68161 15.7256 6.17157C16.1131 6.62445 16.2876 7.24279 16.4004 8.00751L16.4453 8.34442L17.1943 14.5905V14.5915C17.3519 15.939 17.1034 16.881 16.5674 17.4841C16.0028 18.0999 15.0959 18.4587 13.7412 18.4587H6.25C4.8967 18.4587 3.98665 18.097 3.4502 17.487C2.91022 16.8728 2.65664 15.9353 2.82129 14.5944V14.5925L3.57129 8.34247V8.34149C3.6796 7.42102 3.84197 6.68832 4.28418 6.17157C4.67726 5.71251 5.37002 5.34123 6.72754 5.29657L7.00781 5.29169ZM7 5.54169C5.75947 5.54169 4.9357 5.78253 4.4375 6.37372C4.19571 6.66071 4.06409 6.99328 3.98047 7.32587C3.89835 7.65257 3.85427 8.01384 3.81152 8.36395V8.36591L3.06152 14.6159C2.93069 15.7236 3.06668 16.6811 3.63574 17.3171C4.20266 17.9504 5.13173 18.1999 6.25 18.1999H13.7412C14.8595 18.1999 15.7886 17.9505 16.3555 17.3171C16.8534 16.7605 17.0198 15.9581 16.9658 15.0241L16.9297 14.6159L16.1797 8.36591V8.36493C16.137 8.01329 16.094 7.6508 16.0127 7.32391C15.9299 6.99111 15.7993 6.65787 15.5576 6.37079C15.0598 5.7796 14.2341 5.54169 12.9912 5.54169H7Z" stroke="#DFFF6D"/>
  <path d="M8.74951 1.54169H11.2495C11.9253 1.54169 12.4713 1.77718 12.8472 2.15302C13.2228 2.52878 13.4584 3.07416 13.4585 3.74969V6.66669C13.4585 6.69677 13.4459 6.72799 13.4204 6.7536C13.3949 6.77915 13.3635 6.7916 13.3335 6.79169C13.3034 6.79169 13.2722 6.77913 13.2466 6.7536C13.2209 6.72796 13.2085 6.69683 13.2085 6.66669V3.74969C13.2084 3.19541 13.0342 2.6937 12.6704 2.32977C12.3064 1.96576 11.804 1.79169 11.2495 1.79169H8.74951C8.19514 1.79176 7.69353 1.96583 7.32959 2.32977C6.96565 2.69372 6.79157 3.19532 6.7915 3.74969V6.66669C6.7915 6.69683 6.77906 6.72796 6.75342 6.7536C6.72777 6.77924 6.69665 6.79169 6.6665 6.79169C6.63636 6.79169 6.60523 6.77924 6.57959 6.7536C6.55395 6.72796 6.5415 6.69683 6.5415 6.66669V3.74969C6.54158 3.07406 6.77706 2.52879 7.15283 2.15302C7.52861 1.77724 8.07388 1.54176 8.74951 1.54169Z" stroke="#DFFF6D"/>
  <path d="M6.6665 14.0667H17.0083C17.0384 14.0667 17.0696 14.0792 17.0952 14.1048C17.1208 14.1304 17.1333 14.1616 17.1333 14.1917C17.1333 14.2218 17.1208 14.253 17.0952 14.2786C17.0696 14.3042 17.0384 14.3167 17.0083 14.3167H6.6665C6.63636 14.3167 6.60523 14.3043 6.57959 14.2786C6.55395 14.253 6.5415 14.2219 6.5415 14.1917C6.5415 14.1616 6.55395 14.1304 6.57959 14.1048C6.60523 14.0792 6.63636 14.0667 6.6665 14.0667Z" fill="#DFFF6D" stroke="#DFFF6D"/>
</svg>
