<svg width="24" height="24" viewBox="0 0 24 24" fill="none" xmlns="http://www.w3.org/2000/svg">
  <path 
    d="M7.92967 10.9179C8.5602 9.65683 9.62246 8.65707 10.9233 8.10607C11.6674 7.79364 12.4513 7.62891 13.2523 7.62891C14.0532 7.62891 14.769 7.7766 15.4904 8.0663C18.5294 9.30465 20.0007 12.7811 18.768 15.8201C17.8535 18.0753 15.6835 19.5352 13.2523 19.5352C12.4854 19.5352 11.7356 19.3875 11.0142 19.0978C10.1337 18.7399 9.37251 18.1946 8.75334 17.4845C8.71358 17.4391 8.67382 17.3936 8.63405 17.3482C8.25346 16.871 7.97512 16.3996 7.76494 15.894C7.21394 14.5932 7.15145 13.1333 7.57748 11.7927C7.62861 11.6393 7.67973 11.4916 7.73654 11.3496C7.79334 11.2076 7.85583 11.0656 7.92967 10.9236V10.9179Z" 
    fill="#E8FAFC"
  />
  <path 
    d="M24 4.55574V19.4499C24 21.9664 21.9607 24.0057 19.4443 24.0057H4.55006C2.03361 24.0057 0 21.9664 0 19.4499V4.55574C0 2.03929 2.03929 0 4.55006 0H9.7136L5.72591 9.81586C5.62934 10.0147 5.53846 10.2135 5.45325 10.418C5.36804 10.6225 5.2942 10.8327 5.22603 11.0428L2.43692 17.9049C2.18698 18.524 2.48237 19.2341 3.10722 19.4897C3.62414 19.6999 4.20355 19.5238 4.52734 19.1034C4.60118 18.9955 4.96473 18.507 5.62366 18.3082C6.21443 18.5467 6.38484 18.6149 6.65752 18.8365C6.72 18.9103 6.7768 18.9841 6.84496 19.058C7.69135 20.0521 8.78201 20.8587 10.0772 21.387C11.111 21.8073 12.1846 22.0062 13.2412 22.0062C16.5643 22.0062 19.7112 20.0237 21.0405 16.7574C22.7901 12.4516 20.7167 7.54367 16.4109 5.79408C15.3714 5.37373 14.3034 5.17491 13.2469 5.17491C12.6788 5.17491 12.1108 5.23172 11.5598 5.34533C11.0088 5.45893 10.4748 5.62367 9.95787 5.84521L12.3323 0.00568047H19.4386C21.955 0.00568047 23.9943 2.04497 23.9943 4.56142L24 4.55574Z" 
    fill="#E8FAFC"
  />
</svg>
