<svg width="20" height="20" viewBox="0 0 20 20" fill="none" xmlns="http://www.w3.org/2000/svg">
<path d="M10.4549 8.10165H11.2377C12.1024 8.10165 12.8033 8.80638 12.8033 9.67571M12.8033 9.67571V10.4627M12.8033 9.67571C12.8033 9.24105 13.1538 8.88868 13.5861 8.88868C14.4508 8.88868 15.1517 9.59341 15.1517 10.4627M15.1517 10.4627V11.2498M15.1517 10.4627C15.1517 10.0508 15.5197 9.73737 15.9239 9.8051L16.1919 9.85001C16.9469 9.97651 17.5002 10.6332 17.5002 11.4027L17.4998 11.7746C17.4998 13.4851 17.4998 14.3403 17.2407 15.0212C17.0904 15.4162 16.6937 15.9199 16.3766 16.2839C16.1023 16.5988 15.9342 16.9981 15.9342 17.4166V18.3332M10.4547 9.67571V5.34705C10.4547 4.69505 9.92901 4.1665 9.28051 4.1665C8.63201 4.1665 8.1063 4.69505 8.1063 5.34705L8.10613 11.6137L6.83775 10.3345C6.28123 9.77321 5.36452 9.82441 4.87286 10.4442C4.49666 10.9185 4.48627 11.5894 4.8476 12.0753L7.66547 15.6942C8.2046 16.3866 8.49754 17.4538 8.49754 18.3332" stroke="white" style="stroke:white;stroke-opacity:1;" stroke-width="1.25" stroke-linecap="round" stroke-linejoin="round"/>
<path d="M4.99984 6.66663H4.31356C3.06573 6.66663 2.44181 6.66663 2.05416 6.30051C1.6665 5.93439 1.6665 5.34514 1.6665 4.16663C1.6665 2.98811 1.6665 2.39886 2.05416 2.03274C2.44181 1.66663 3.06573 1.66663 4.31356 1.66663H14.0194C15.2673 1.66663 15.8912 1.66663 16.2789 2.03274C16.6665 2.39886 16.6665 2.98811 16.6665 4.16663C16.6665 5.34514 16.6665 5.93439 16.2789 6.30051C15.8912 6.66663 15.2673 6.66663 14.0194 6.66663H13.3332" stroke="white" style="stroke:white;stroke-opacity:1;" stroke-width="1.25" stroke-linecap="round" stroke-linejoin="round"/>
</svg>
