<svg width="19" height="17" viewBox="0 0 19 17" fill="none" xmlns="http://www.w3.org/2000/svg">
  <path 
    d="M4.91667 0.75H13.25C14.8077 0.75 15.5865 0.75 16.1667 1.08494C16.5467 1.30436 16.8623 1.61995 17.0817 2C17.4167 2.58013 17.4167 3.35897 17.4167 4.91667C17.4167 6.47436 17.4167 7.25321 17.0817 7.83333C16.8623 8.21338 16.5467 8.52898 16.1667 8.7484C15.5865 9.08333 14.8077 9.08333 13.25 9.08333H12.9219C12.3495 9.08333 12.0633 9.08333 11.7955 9.02385C11.437 8.94422 11.1005 8.78659 10.8098 8.56218C10.5927 8.39453 10.4094 8.17466 10.043 7.73491C9.751 7.38454 9.60501 7.20935 9.43745 7.13069C9.21311 7.02538 8.95355 7.02538 8.72922 7.13069C8.56165 7.20935 8.41566 7.38454 8.12369 7.73491C7.75723 8.17466 7.574 8.39453 7.35686 8.56218C7.0662 8.78659 6.72966 8.94422 6.37118 9.02385C6.10339 9.08333 5.81717 9.08333 5.24474 9.08333H4.91667C3.35897 9.08333 2.58013 9.08333 2 8.7484C1.61995 8.52898 1.30436 8.21338 1.08494 7.83333C0.75 7.25321 0.75 6.47436 0.75 4.91667C0.75 3.35897 0.75 2.58013 1.08494 2C1.30436 1.61995 1.61995 1.30436 2 1.08494C2.58013 0.75 3.35897 0.75 4.91667 0.75Z" 
    stroke="#141B34" 
    stroke-width="1.5" 
    stroke-linecap="round" 
    stroke-linejoin="round"
  />
  <path 
    d="M3.25 3.25H4.91667" 
    stroke="#141B34" 
    stroke-width="1.5" 
    stroke-linecap="round" 
    stroke-linejoin="round"
  />
  <path 
    d="M9.16718 14.0833L7.48361 12.4167M9.16718 14.0833L7.48361 15.75M9.16718 14.0833C4.95894 14.0833 1.42409 12.4167 0.75 10.75M11.6925 13.8926C14.5853 13.4429 16.8052 12.241 17.4167 10.75" 
    stroke="#141B34" 
    stroke-width="1.5" 
    stroke-linecap="round" 
    stroke-linejoin="round"
  />
</svg>
