<svg width="7" height="6" viewBox="0 0 7 6" fill="none" xmlns="http://www.w3.org/2000/svg">
<path d="M3.48221 0.0165508C3.69203 -0.0247625 3.90973 0.0118805 4.09447 0.119608L5.63627 1.00421C5.77683 1.08902 5.93193 1.15694 6.04681 1.2779C6.14664 1.38123 6.21984 1.50729 6.2601 1.64521C6.30037 1.78313 6.30648 1.92877 6.27793 2.06958C6.25497 2.18706 6.208 2.29853 6.13998 2.39702C6.07195 2.49552 5.98433 2.5789 5.88259 2.64197C5.2816 2.9891 4.6797 3.33465 4.0769 3.67863C3.94229 3.75268 3.7907 3.79034 3.63708 3.7879C3.48347 3.78545 3.33315 3.74297 3.20097 3.66467C3.06879 3.58637 2.95932 3.47494 2.88337 3.34139C2.80743 3.20784 2.76763 3.0568 2.7679 2.90316C2.76182 2.82646 2.78615 2.73962 2.73749 2.67238C2.71245 2.63611 2.67441 2.61085 2.63126 2.60186C2.58811 2.59286 2.54315 2.60081 2.5057 2.62406C1.96507 2.93538 1.42343 3.24646 0.880776 3.55732C0.843817 3.58114 0.817599 3.61843 0.807694 3.66127C0.797788 3.70411 0.804975 3.74913 0.827727 3.78675C0.851042 3.83203 0.89936 3.85433 0.941597 3.87832L2.46211 4.75042C2.50469 4.77441 2.54861 4.80516 2.59997 4.8011C2.64367 4.79943 2.68513 4.78129 2.71602 4.75034C2.74691 4.71938 2.76496 4.67789 2.76655 4.63418C2.76858 4.5389 2.76452 4.44327 2.76655 4.34799C2.76655 4.21283 2.94293 4.13647 3.04666 4.21925C3.17506 4.29393 3.30448 4.36725 3.43321 4.44159C3.45533 4.45353 3.47458 4.47015 3.48963 4.49028C3.50468 4.51041 3.51518 4.53357 3.52039 4.55816C3.53593 4.74839 3.52039 4.94876 3.42612 5.1194C3.33671 5.28911 3.19484 5.42538 3.02166 5.50789C2.84849 5.5904 2.65328 5.61472 2.46515 5.57724C2.32662 5.55224 2.2043 5.48128 2.08536 5.40829C1.53099 5.09068 0.976962 4.77272 0.423269 4.45443C0.307735 4.38361 0.209973 4.28725 0.13749 4.17275C0.0650078 4.05825 0.0197357 3.92866 0.00515056 3.79394C-0.00943456 3.65921 0.00705589 3.52294 0.0533554 3.39558C0.099655 3.26822 0.174531 3.15317 0.272233 3.05927C0.34289 2.99505 0.421604 2.94031 0.506392 2.89641L2.15767 1.95031C2.2735 1.87621 2.4044 1.82888 2.54084 1.81177C2.69554 1.79433 2.85211 1.81764 2.99502 1.87941C3.13793 1.94117 3.2622 2.03923 3.3555 2.16386C3.47272 2.32305 3.53305 2.51702 3.52681 2.71462C3.52884 2.7822 3.51431 2.85721 3.55384 2.91735C3.57785 2.95492 3.61551 2.9817 3.65888 2.99203C3.70225 3.00237 3.74794 2.99547 3.78631 2.97277C4.32491 2.66439 4.86317 2.35555 5.4011 2.04627C5.43999 2.02433 5.4688 1.9881 5.48142 1.94526C5.49404 1.90243 5.48947 1.85636 5.46868 1.81684C5.44131 1.76176 5.38285 1.73642 5.33352 1.70736L3.83834 0.849793C3.79509 0.825464 3.75185 0.793703 3.70015 0.795393C3.65707 0.795355 3.61553 0.811356 3.58361 0.840277C3.55169 0.869198 3.53168 0.908969 3.52749 0.951837C3.52276 1.0532 3.52749 1.15457 3.52478 1.25594C3.5209 1.298 3.50139 1.33708 3.47012 1.36548C3.43885 1.39387 3.39808 1.40952 3.35584 1.40934C3.31002 1.40847 3.26562 1.39335 3.22879 1.36609C3.10005 1.29074 2.96929 1.21877 2.84156 1.14275C2.81453 1.12309 2.79325 1.09655 2.77994 1.06589C2.76663 1.03523 2.76178 1.00157 2.76588 0.968393C2.75454 0.798374 2.78846 0.628386 2.8642 0.475747C2.92648 0.357987 3.01429 0.255638 3.12122 0.176187C3.22815 0.0967371 3.35149 0.0421945 3.48221 0.0165508Z" fill="black"/>
</svg>
