<svg width="15" height="13" viewBox="0 0 15 13" xmlns="http://www.w3.org/2000/svg">
  <path d="M1.92993 0.736769C3.91725 -0.482251 5.70007 0.00358057 6.77709 0.812405C6.95428 0.945468 7.07588 1.03653 7.16641 1.09803C7.25693 1.03653 7.37854 0.945468 7.55572 0.812405C8.63275 0.00358057 10.4156 -0.482251 12.4029 0.736769C13.777 1.57968 14.5503 3.3404 14.2789 5.36341C14.0063 7.39618 12.6906 9.69527 9.90418 11.7577C8.93659 12.4743 8.22645 13.0002 7.16641 13.0002C6.10637 13.0002 5.39622 12.4743 4.42863 11.7577C1.64223 9.69527 0.326504 7.39618 0.053872 5.36341C-0.217451 3.3404 0.55577 1.57968 1.92993 0.736769Z"
        fill="#FF3838"/>
</svg>
