<svg width="28" height="20" viewBox="0 0 28 20" fill="none" xmlns="http://www.w3.org/2000/svg">
  <rect x="0.6087" y="0.6087" width="26.7826" height="18.2609" rx="2.4348" fill="white" stroke="#D9D9D9" stroke-width="1.21739"/>
  <path fill-rule="evenodd" clip-rule="evenodd" d="M8.5524 13.195H6.8561L5.5841 8.272C5.5238 8.0455 5.3956 7.8453 5.207 7.751C4.7364 7.5138 4.2179 7.3251 3.6522 7.23V7.0404H6.3847C6.7618 7.0404 7.0447 7.3251 7.0918 7.6558L7.7518 11.207L9.4472 7.0404H11.0964L8.5524 13.195ZM12.039 13.195H10.437L11.7561 7.0404H13.3581L12.039 13.195ZM15.4311 8.7453C15.4782 8.4138 15.7611 8.2243 16.091 8.2243C16.6096 8.1767 17.1745 8.2719 17.6459 8.5082L17.9287 7.1831C17.4573 6.9935 16.9388 6.8984 16.4682 6.8984C14.9133 6.8984 13.782 7.7509 13.782 8.934C13.782 9.8341 14.5834 10.3067 15.149 10.5914C15.7611 10.8753 15.9968 11.0649 15.9496 11.3488C15.9496 11.7746 15.4782 11.9641 15.0076 11.9641C14.4419 11.9641 13.8762 11.8222 13.3585 11.5851L13.0757 12.911C13.6414 13.1473 14.2534 13.2425 14.8191 13.2425C16.5625 13.2893 17.6459 12.4376 17.6459 11.1592C17.6459 9.5494 15.4311 9.455 15.4311 8.7453ZM23.2523 13.195L21.9803 7.0404H20.6141C20.3312 7.0404 20.0484 7.22996 19.9541 7.51385L17.5987 13.195H19.2478L19.577 12.2958H21.6032L21.7918 13.195H23.2523ZM20.8499 8.6977L21.3205 11.0173H20.0014L20.8499 8.6977Z" fill="#172B85"/>
</svg>
