<svg width="20" height="20" viewBox="0 0 20 20" fill="none" xmlns="http://www.w3.org/2000/svg">
  <path d="M5.83366 7.5H14.167C15.7247 7.5 16.5035 7.5 17.0837 7.83494C17.4637 8.05436 17.7793 8.36995 17.9987 8.75C18.3337 9.33013 18.3337 10.109 18.3337 11.6667C18.3337 13.2244 18.3337 14.0032 17.9987 14.5833C17.7793 14.9634 17.4637 15.279 17.0837 15.4984C16.5035 15.8333 15.7247 15.8333 14.167 15.8333H13.8389C13.2665 15.8333 12.9803 15.8333 12.7125 15.7738C12.354 15.6942 12.0175 15.5366 11.7268 15.3122C11.5097 15.1445 11.3264 14.9247 10.96 14.4849C10.668 14.1345 10.522 13.9593 10.3544 13.8807C10.1301 13.7754 9.87054 13.7754 9.64621 13.8807C9.47865 13.9593 9.33265 14.1345 9.04068 14.4849C8.67422 14.9247 8.49099 15.1445 8.27385 15.3122C7.98319 15.5366 7.64665 15.6942 7.28817 15.7738C7.02038 15.8333 6.73416 15.8333 6.16174 15.8333H5.83366C4.27597 15.8333 3.49712 15.8333 2.91699 15.4984C2.53694 15.279 2.22135 14.9634 2.00193 14.5833C1.66699 14.0032 1.66699 13.2244 1.66699 11.6667C1.66699 10.109 1.66699 9.33013 2.00193 8.75C2.22135 8.36995 2.53694 8.05436 2.91699 7.83494C3.49712 7.5 4.27597 7.5 5.83366 7.5Z"
        stroke="#141B34" stroke-width="1.25" stroke-linecap="round" stroke-linejoin="round"/>
  <path d="M4.16699 10H5.83366" stroke="#141B34" stroke-width="1.25" stroke-linecap="round" stroke-linejoin="round"/>
  <path d="M18.3337 10.8334V9.85704C18.3337 8.89564 18.3337 8.41493 18.206 7.96698C18.1358 7.7209 18.0376 7.48372 17.9132 7.26012C17.6867 6.85308 17.3468 6.51316 16.667 5.83335C15.9872 5.15354 15.6473 4.81363 15.2402 4.58717C15.0166 4.46276 14.7794 4.36452 14.5334 4.29437C14.0854 4.16669 13.6047 4.16669 12.6433 4.16669H7.35735C6.39594 4.16669 5.91524 4.16669 5.46729 4.29437C5.22121 4.36452 4.98402 4.46276 4.76042 4.58717C4.35338 4.81363 4.01348 5.15354 3.33366 5.83335C2.65384 6.51317 2.31393 6.85308 2.08747 7.26012C1.96307 7.48372 1.86482 7.7209 1.79468 7.96698C1.66699 8.41493 1.66699 8.89564 1.66699 9.85704V10.8334"
        stroke="#141B34" stroke-width="1.25" stroke-linecap="round" stroke-linejoin="round"/>
</svg>
