<svg width="20" height="24" viewBox="0 0 20 24" fill="none" xmlns="http://www.w3.org/2000/svg">
<g clip-path="url(#clip0_2054_9383)">
<path d="M1.05459 23.8511H6.28826H8.00883H12.1764H13.7131H18.933H19.196H19.8645L19.7179 23.246C19.67 23.0485 19.603 22.8597 19.5191 22.6821C19.5149 22.6732 19.5107 22.6643 19.5064 22.6554C19.4897 22.6212 19.4726 22.5873 19.4547 22.554C19.421 22.491 19.3852 22.4297 19.3472 22.3701C19.1803 22.1078 18.9729 21.8786 18.7345 21.6931C18.7237 21.6847 18.7128 21.6763 18.7018 21.6681C18.6251 21.6103 18.5452 21.5571 18.4626 21.5086C18.4508 21.5017 18.4389 21.4949 18.427 21.4881C18.2958 21.4141 18.1579 21.3521 18.0142 21.3035L16.0488 20.6375C16.259 19.9186 16.2179 19.1708 15.8532 18.4658C15.228 17.2574 14.2058 16.8837 12.9934 16.5894C13.6922 16.1283 14.1092 15.7511 14.506 15.1356C14.6274 14.9472 14.7462 14.7234 14.8611 14.4748C14.805 14.7793 14.8683 15.0143 15.2148 15.1331C15.6016 15.2657 15.9533 15.1247 16.267 14.7898C16.5015 14.7819 16.7589 14.7591 16.7992 14.7539C17.275 14.6931 17.7332 14.3635 18.0201 13.96C18.5405 13.2282 18.7924 12.0075 18.5006 11.1251C18.3647 10.7139 18.139 10.4028 17.8441 10.1512C17.8596 8.42295 17.0026 7.00783 16.4502 6.27687C16.1769 5.31521 15.8689 4.65773 15.8689 4.65773L16.6243 5.19011C16.735 5.26816 16.8751 5.15732 16.8431 5.01749C16.6733 4.27459 15.8583 3.01083 15.3013 2.48563C14.2556 1.49961 13.2432 0.90696 11.9205 0.474843C9.16166 -0.42643 7.51551 0.63543 6.96897 1.09447C6.84428 1.19919 6.69206 1.24258 6.53708 1.27133C5.86611 1.39577 5.09226 1.80502 4.3397 2.69326C3.26229 3.96488 2.63592 5.61309 2.60285 5.91972C2.57768 6.1531 2.77111 6.42106 3.04476 6.23252C3.32553 6.03908 3.49038 5.89348 3.64301 5.7556C3.77187 5.6392 3.62813 5.97948 3.45091 6.57152C2.84026 7.41824 1.97183 8.98921 2.19143 10.8602C2.16812 10.9075 2.1461 10.9563 2.12551 11.0068C1.77581 11.8635 1.94576 13.1011 2.41603 13.8724C2.69056 14.3226 3.11155 14.6641 3.60035 14.7655C3.63853 14.7735 3.88328 14.8147 4.10971 14.8403C4.40019 15.1989 4.74137 15.3673 5.13571 15.2659C5.48221 15.1769 5.56473 14.9548 5.53429 14.6558C5.57036 14.7324 5.60725 14.8053 5.64499 14.8737C6.04374 15.5973 6.57113 16.0511 7.36677 16.5894C6.15919 16.8725 5.13172 17.2168 4.4629 18.4263C4.05989 19.1552 3.98096 19.8939 4.13107 20.577L1.98701 21.3035C1.7389 21.3876 1.50772 21.5114 1.29942 21.6681C1.28846 21.6763 1.27755 21.6847 1.26672 21.6931C1.22338 21.7268 1.18106 21.762 1.13983 21.7985C1.10891 21.826 1.07859 21.8541 1.04891 21.8831C1.02912 21.9024 1.00961 21.922 0.990401 21.9419C0.980794 21.9519 0.971258 21.962 0.961791 21.9721C0.952324 21.9822 0.942936 21.9924 0.933617 22.0027C0.924298 22.013 0.915057 22.0234 0.905886 22.0339C0.612479 22.3684 0.395504 22.7832 0.283399 23.2458L0.136719 23.8511H0.805356L1.05459 23.8511ZM3.11021 9.67267C3.07656 9.76263 3.04921 9.86034 3.02774 9.965C3.0002 9.98173 2.97308 9.99888 2.94638 10.0165C2.96221 9.76924 2.9987 9.4996 3.06495 9.21109C3.07282 9.36463 3.08753 9.51881 3.11021 9.67267ZM16.9258 9.00775C16.9047 9.00259 16.8841 8.99842 16.8641 8.99519C16.8643 8.91734 16.8632 8.83959 16.8609 8.76201C16.885 8.84529 16.9066 8.92726 16.9258 9.00775Z" fill="white" style="fill:white;fill-opacity:1;"/>
<path d="M0.136134 24H8.00815H8.00819H8.00823H8.00824H12.1758H19.1954H19.8639C19.9061 24 19.946 23.9785 19.9718 23.9419C19.9975 23.9053 20.0063 23.8576 19.9955 23.8129L19.8489 23.2078C19.7991 23.0025 19.7287 22.8026 19.6395 22.6137C19.635 22.6043 19.6305 22.595 19.626 22.5856C19.6081 22.5486 19.5898 22.5127 19.5716 22.4787C19.5363 22.4128 19.4982 22.3476 19.4583 22.285C19.2818 22.0076 19.0646 21.7676 18.8128 21.5717C18.8014 21.5629 18.79 21.5541 18.7784 21.5454C18.6976 21.4846 18.6128 21.4281 18.5263 21.3773C18.5138 21.37 18.5013 21.3628 18.4888 21.3558C18.3498 21.2774 18.2035 21.2119 18.0539 21.1612L16.2166 20.5387C16.3992 19.7962 16.3156 19.0585 15.971 18.3924C15.6317 17.7365 15.0877 17.1991 14.3541 16.7951C14.0993 16.6548 13.8231 16.5311 13.5271 16.4245C13.5551 16.4014 13.5829 16.3783 13.6103 16.3551C14.0383 15.9923 14.3769 15.6197 14.6166 15.2478C14.6698 15.1653 14.722 15.077 14.7732 14.9839C14.8467 15.1288 14.9812 15.2356 15.1736 15.3016C15.2829 15.3391 15.3918 15.3578 15.4995 15.3578C15.6406 15.3578 15.7798 15.3257 15.9158 15.2615C16.0548 15.1958 16.1909 15.0958 16.3225 14.963C16.3257 14.9629 16.3288 14.9628 16.332 14.9627C16.5534 14.9531 16.777 14.933 16.8144 14.9282C17.0604 14.8968 17.315 14.7967 17.5509 14.6389C17.7719 14.491 17.9711 14.297 18.1269 14.0778C18.3982 13.6963 18.601 13.1908 18.6979 12.6543C18.799 12.0945 18.7742 11.5428 18.628 11.1008C18.4977 10.7067 18.2877 10.3828 17.9796 10.1059C17.9785 9.85936 17.9604 9.61154 17.9251 9.36304C17.8334 8.71727 17.6265 8.06631 17.3102 7.42825C17.0657 6.93529 16.796 6.52928 16.5721 6.23056C16.438 5.76182 16.2966 5.36743 16.1867 5.08561L16.55 5.34167C16.6475 5.41039 16.7713 5.40709 16.8655 5.33327C16.96 5.25916 17.0028 5.13138 16.9746 5.00772C16.7948 4.22113 15.9605 2.93751 15.3896 2.39917C14.3433 1.41257 13.3173 0.802272 11.9588 0.358486C10.7461 -0.0376991 9.61053 -0.105878 8.58364 0.15584C7.72189 0.375465 7.1498 0.78068 6.88548 1.00268C6.7788 1.09227 6.6377 1.12785 6.51373 1.15085C6.13824 1.22048 5.76405 1.36907 5.40157 1.59246C4.99454 1.84331 4.60348 2.18848 4.23926 2.61836C3.6448 3.31998 3.21483 4.0968 2.9588 4.62493C2.66233 5.23647 2.48702 5.74367 2.46707 5.92862C2.4465 6.1193 2.52636 6.31213 2.6658 6.40844C2.79805 6.4998 2.9624 6.49123 3.1167 6.38491C3.2491 6.29369 3.3567 6.21258 3.45056 6.13686C3.41472 6.24846 3.37297 6.37883 3.32896 6.52478C3.12711 6.8067 2.89911 7.16527 2.68968 7.58763C2.3733 8.22569 2.1664 8.87664 2.0747 9.52242C2.01098 9.97114 2.0032 10.4176 2.05081 10.8581C2.03327 10.8955 2.01647 10.9335 2.00062 10.9724C1.82547 11.4015 1.76402 11.9498 1.82757 12.5161C1.88849 13.0589 2.05704 13.5793 2.3022 13.9814C2.60957 14.4855 3.07326 14.8342 3.5744 14.9382C3.61226 14.9461 3.82512 14.9822 4.04272 15.0087C4.04304 15.0087 4.04335 15.0088 4.04367 15.0088C4.16583 15.1513 4.29462 15.2617 4.42869 15.3382C4.58319 15.4262 4.74502 15.4704 4.91214 15.4704C4.9956 15.4704 5.08041 15.4594 5.16627 15.4373C5.37734 15.383 5.52483 15.2764 5.60464 15.1202C5.60568 15.1182 5.60656 15.1161 5.60758 15.1141C5.81339 15.4506 6.0962 15.7914 6.4502 16.1291C6.5659 16.2394 6.68939 16.3492 6.81885 16.4573C6.43438 16.5865 6.09249 16.7384 5.78565 16.916C5.15387 17.2818 4.66945 17.764 4.34582 18.3492C4.33844 18.3626 4.33116 18.3759 4.32397 18.3893C4.05805 18.8844 3.92382 19.4034 3.92292 19.9268C3.9226 20.1094 3.93853 20.2924 3.97071 20.4752L1.94614 21.1612C1.68791 21.2487 1.44418 21.378 1.22173 21.5454C1.21015 21.5541 1.19865 21.5629 1.18724 21.5717C1.14182 21.6071 1.09684 21.6444 1.05353 21.6828C1.02107 21.7116 0.988851 21.7416 0.95776 21.7719C0.936999 21.7921 0.916261 21.813 0.896107 21.8339C0.885979 21.8444 0.87593 21.855 0.865965 21.8657C0.855993 21.8764 0.846083 21.8871 0.836306 21.8979C0.826481 21.9088 0.816735 21.9197 0.807074 21.9307C0.493909 22.2878 0.267125 22.7293 0.151224 23.2076L0.00455166 23.8129C-0.00628388 23.8576 0.00246701 23.9052 0.0282374 23.9419C0.0540155 23.9785 0.0938729 24 0.136134 24ZM5.6663 14.6383C5.64109 14.4302 5.57078 14.1979 5.49485 13.9473C5.46009 13.8325 5.42414 13.7139 5.39175 13.5943C5.1238 12.6054 4.93536 11.649 4.79875 10.5844C4.78934 10.511 4.7815 10.424 4.7732 10.3319C4.77056 10.3025 4.76785 10.2726 4.76503 10.2423C4.78279 10.2203 4.80015 10.1946 4.81673 10.1645C5.55418 8.82474 6.09102 7.6439 6.41152 6.88922C6.59562 6.45571 6.73012 6.11307 6.817 5.88347C6.9638 6.21063 7.23693 6.74613 7.66731 7.3263C8.07049 7.86981 8.5286 8.33901 9.02894 8.72087C9.6553 9.1989 10.3496 9.5404 11.0924 9.73588C11.2201 9.76948 11.3489 9.72303 11.4368 9.61161C11.5312 9.49201 11.5561 9.3258 11.5018 9.17784C11.3383 8.73266 11.0903 8.02284 10.9473 7.44526C10.9816 7.48426 11.0185 7.5246 11.0579 7.56592C11.3441 7.86559 11.8274 8.27609 12.5051 8.52984C12.521 8.53582 12.5372 8.53995 12.5533 8.54254C12.4358 8.58486 12.3149 8.64077 12.1925 8.71395C12.1265 8.75338 12.1023 8.84386 12.1383 8.91605C12.163 8.96557 12.2097 8.99362 12.2579 8.99362C12.2799 8.99362 12.3023 8.98774 12.323 8.97536C12.685 8.75904 13.0739 8.68205 13.479 8.74657C13.7853 8.79533 13.9868 8.91111 13.9888 8.91228C14.0144 8.92728 14.0424 8.93231 14.0692 8.92877C14.8565 9.65512 15.4494 10.1038 15.8319 10.3646C15.8486 10.3759 15.8648 10.3858 15.8806 10.3947C15.8749 10.4286 15.8691 10.4609 15.8632 10.4908C15.6561 11.5416 15.4045 12.4805 15.0714 13.4455C15.0311 13.5622 14.9874 13.6777 14.945 13.7893C14.8547 14.0279 14.7708 14.2494 14.7307 14.4512C14.6175 14.6947 14.5047 14.9045 14.3941 15.0761C14.17 15.4238 13.8502 15.7749 13.4435 16.1197C13.0804 16.4276 12.6489 16.727 12.1959 16.9855C11.3577 17.4639 10.4912 17.7732 10.0393 17.7551C9.01369 17.7142 6.58972 16.3269 5.76097 14.8232C5.72866 14.7646 5.69712 14.7027 5.6663 14.6383ZM3.62513 14.6456C3.19537 14.5564 2.79573 14.2541 2.52868 13.8161C2.30666 13.4519 2.15364 12.9774 2.0978 12.4798C2.04019 11.9665 2.09396 11.4742 2.24921 11.0939C2.37935 10.775 2.57611 10.511 2.84577 10.2946C2.79226 10.8817 2.86617 11.6492 3.06579 12.5776C3.26025 13.482 3.5089 14.1871 3.80529 14.6755C3.71181 14.6612 3.64207 14.6491 3.62513 14.6456ZM2.34297 9.57352C2.42908 8.96259 2.62489 8.34498 2.92494 7.73785C2.98152 7.62337 3.03975 7.51358 3.09859 7.40875C3.05019 7.63418 3.00723 7.87416 2.97569 8.12405C2.9272 8.50835 2.91123 8.87481 2.9276 9.22212C2.87232 9.4672 2.83484 9.71222 2.81547 9.9561C2.61049 10.0994 2.43768 10.2641 2.29514 10.4521C2.28562 10.1611 2.30149 9.8678 2.34297 9.57352ZM17.6561 9.40876C17.6611 9.44363 17.6655 9.47847 17.6698 9.51331C17.657 9.48401 17.6435 9.45565 17.6292 9.4283C17.4973 9.17556 17.3018 9.00327 17.0482 8.91623C17.0441 8.91483 17.0401 8.91354 17.036 8.91219C17.0233 8.86239 17.0099 8.8126 16.9958 8.76282C16.9817 8.31923 16.9298 7.85204 16.8399 7.36483C16.8188 7.25082 16.7963 7.1388 16.7726 7.029C16.8732 7.19469 16.9744 7.37565 17.0709 7.57029C17.3723 8.17826 17.5692 8.79681 17.6561 9.40876ZM18.4308 12.5965C18.342 13.0883 18.1578 13.5494 17.9121 13.8948C17.6259 14.2973 17.1932 14.5799 16.7829 14.6323C16.7464 14.637 16.6721 14.6436 16.5819 14.65C16.9099 14.1865 17.2048 13.5032 17.4589 12.6169C17.7197 11.7072 17.8445 10.9478 17.8303 10.3581C18.087 10.5963 18.2627 10.8716 18.3721 11.2022C18.5016 11.5939 18.5224 12.0891 18.4308 12.5965ZM14.4998 4.05793C14.0629 4.29261 13.5946 4.45645 13.1177 4.56027C12.7822 4.6333 12.4413 4.67604 12.0996 4.6909C11.7147 4.70764 11.4495 4.74056 11.176 4.41134C10.9829 4.179 11.083 3.80535 11.3603 3.72418C12.0122 3.53332 13.0182 3.15716 13.5968 2.5362C13.7339 2.38902 13.9502 2.37782 14.1016 2.50719C14.2776 2.65755 14.502 2.87415 14.6908 3.13594C14.9097 3.43955 14.8171 3.88749 14.4998 4.05793ZM12.8515 8.15212C12.8122 7.99579 12.7669 7.80076 12.7307 7.60359C12.9221 7.80609 13.1964 8.09009 13.521 8.40758C13.5398 8.42591 13.5584 8.44405 13.5769 8.4621C13.5616 8.45919 13.546 8.45637 13.5302 8.45374C13.3276 8.42023 13.0573 8.40858 12.755 8.48184C12.7609 8.47666 12.7667 8.47128 12.7724 8.46548C12.8497 8.38587 12.88 8.26581 12.8515 8.15212ZM8.06027 23.7021C8.05566 23.6976 8.05102 23.6931 8.04642 23.6886C8.03411 23.6765 8.02189 23.6644 8.0097 23.6522C7.99904 23.6417 7.98838 23.6311 7.9778 23.6205C7.96583 23.6085 7.95398 23.5966 7.94213 23.5846C7.93154 23.5739 7.92092 23.5632 7.91043 23.5525C7.89892 23.5408 7.88757 23.5291 7.87618 23.5174C7.86551 23.5065 7.8548 23.4955 7.84424 23.4846C7.83344 23.4734 7.8228 23.4623 7.81211 23.4511C7.80118 23.4397 7.79019 23.4282 7.77937 23.4168C7.76999 23.407 7.76078 23.3971 7.75149 23.3872C7.70541 23.3383 7.66028 23.2894 7.61616 23.2406C7.60961 23.2334 7.60299 23.2261 7.59648 23.2189C7.58384 23.2048 7.57141 23.1908 7.55894 23.1768C7.55169 23.1686 7.54437 23.1604 7.53718 23.1523C7.52509 23.1386 7.51318 23.1249 7.50125 23.1112C7.49386 23.1027 7.48643 23.0942 7.4791 23.0857C7.46742 23.0722 7.45589 23.0588 7.44437 23.0453C7.43698 23.0366 7.42958 23.028 7.42225 23.0194C7.41093 23.006 7.39972 22.9927 7.38855 22.9793C7.3812 22.9705 7.37387 22.9618 7.36659 22.953C7.35563 22.9398 7.34476 22.9266 7.33395 22.9135C7.32662 22.9045 7.31932 22.8956 7.31206 22.8867C7.3015 22.8737 7.291 22.8607 7.28059 22.8478C7.27323 22.8386 7.26593 22.8295 7.25865 22.8203C7.24849 22.8075 7.23837 22.7948 7.22836 22.782C7.221 22.7727 7.21372 22.7633 7.20644 22.754C7.1967 22.7415 7.18697 22.729 7.17736 22.7165C7.16989 22.7068 7.16253 22.6971 7.15514 22.6874C7.14593 22.6753 7.13669 22.6631 7.1276 22.651C7.11982 22.6407 7.11218 22.6304 7.1045 22.62C7.096 22.6086 7.08746 22.5972 7.07908 22.5857C7.07046 22.574 7.06199 22.5623 7.05348 22.5505C7.04624 22.5405 7.03892 22.5305 7.03178 22.5206C7.0191 22.5028 7.00661 22.4852 6.99421 22.4675C6.99138 22.4635 6.98848 22.4594 6.98567 22.4554C6.97029 22.4334 6.95515 22.4115 6.94021 22.3895C6.93709 22.3849 6.93406 22.3804 6.93097 22.3758C6.91914 22.3583 6.90738 22.3409 6.89582 22.3234C6.89201 22.3177 6.8883 22.3119 6.88452 22.3062C6.87382 22.2899 6.86315 22.2737 6.85268 22.2574C6.84876 22.2513 6.84492 22.2452 6.84103 22.2391C6.83085 22.2232 6.82073 22.2073 6.81077 22.1914C6.80694 22.1853 6.80316 22.1792 6.79937 22.173C6.7895 22.1571 6.7797 22.1413 6.77007 22.1254C6.76643 22.1194 6.76284 22.1134 6.75923 22.1074C6.74958 22.0914 6.74003 22.0754 6.73061 22.0594C6.7272 22.0536 6.72381 22.0478 6.72042 22.042C6.71096 22.0258 6.70162 22.0096 6.6924 21.9934C6.68925 21.9879 6.6861 21.9824 6.68297 21.9769C6.67365 21.9604 6.66447 21.9439 6.65541 21.9274C6.65254 21.9222 6.64965 21.917 6.64681 21.9118C6.63762 21.895 6.6286 21.8782 6.61968 21.8614C6.6171 21.8565 6.61449 21.8517 6.61193 21.8468C6.60286 21.8296 6.59397 21.8124 6.58519 21.7953C6.58291 21.7908 6.58059 21.7864 6.57832 21.7819C6.56936 21.7643 6.56061 21.7467 6.55194 21.7291C6.54997 21.7251 6.54793 21.7211 6.54598 21.7171C6.53594 21.6965 6.52611 21.676 6.51648 21.6556C6.51504 21.6525 6.51365 21.6494 6.51221 21.6464C6.50452 21.6299 6.49698 21.6135 6.48955 21.597C6.48665 21.5906 6.48378 21.5842 6.48092 21.5778C6.47475 21.564 6.4687 21.5502 6.46272 21.5365C6.45979 21.5297 6.45682 21.523 6.45395 21.5162C6.45227 21.5123 6.45065 21.5084 6.44898 21.5045C6.44361 21.4918 6.43828 21.4792 6.43307 21.4666C6.43213 21.4643 6.43122 21.462 6.43027 21.4597C6.42444 21.4455 6.41866 21.4312 6.41303 21.417C6.41271 21.4162 6.41242 21.4154 6.4121 21.4147C6.33538 21.221 6.27732 21.0302 6.23814 20.8429C6.23807 20.8426 6.23802 20.8424 6.23797 20.8421C6.23479 20.8269 6.23175 20.8118 6.22883 20.7967C6.22857 20.7953 6.22834 20.794 6.22807 20.7926C6.22538 20.7786 6.22278 20.7646 6.2203 20.7506C6.21986 20.7482 6.21947 20.7457 6.21903 20.7432C6.21678 20.7304 6.21461 20.7176 6.21255 20.7047C6.21196 20.7011 6.21143 20.6975 6.21087 20.6939C6.20904 20.6823 6.20724 20.6707 6.20556 20.6591C6.20488 20.6543 6.20425 20.6496 6.20358 20.6448C6.20212 20.6344 6.20068 20.6239 6.19935 20.6135C6.1986 20.6077 6.19792 20.6018 6.19721 20.596C6.19608 20.5867 6.19494 20.5774 6.19391 20.5681C6.19314 20.5612 6.19245 20.5544 6.19174 20.5475C6.19088 20.5393 6.19001 20.5311 6.18923 20.5229C6.18849 20.515 6.18782 20.5072 6.18715 20.4993C6.18653 20.4922 6.18588 20.485 6.18532 20.4778C6.18464 20.4691 6.18405 20.4603 6.18345 20.4516C6.18303 20.4454 6.18257 20.4391 6.18218 20.4328C6.1816 20.4234 6.18113 20.414 6.18065 20.4046C6.18037 20.399 6.18005 20.3934 6.17981 20.3878C6.17938 20.3779 6.17904 20.368 6.17872 20.3581C6.17855 20.3531 6.17835 20.348 6.17822 20.3429C6.17795 20.3327 6.17777 20.3226 6.17763 20.3124C6.17756 20.3076 6.17746 20.3028 6.17741 20.298C6.17732 20.2878 6.17732 20.2776 6.17736 20.2674C6.17737 20.2626 6.17735 20.2579 6.17739 20.2532C6.17747 20.2432 6.17766 20.2332 6.17787 20.2232C6.17797 20.2182 6.17804 20.2132 6.17817 20.2082C6.1785 20.1958 6.17892 20.1834 6.17942 20.1711C6.17949 20.1696 6.17953 20.1682 6.17959 20.1667C6.18149 20.1226 6.18456 20.0788 6.18881 20.0352C6.24204 20.0158 6.2954 19.997 6.34882 19.9784C6.50112 20.5932 6.92605 21.196 7.5352 21.6537C8.23071 22.1762 9.09772 22.464 9.97654 22.464C10.8572 22.464 11.7256 22.1752 12.4218 21.6507C13.0326 21.1906 13.4571 20.5849 13.6069 19.9678C13.6685 19.9878 13.7302 20.008 13.7919 20.0289C13.792 20.0304 13.792 20.032 13.7921 20.0335C13.7924 20.0466 13.7927 20.0598 13.7928 20.0729C13.7929 20.0744 13.7929 20.076 13.7929 20.0775C13.7932 20.1037 13.7932 20.1299 13.7929 20.1562C13.7928 20.1624 13.7928 20.1686 13.7927 20.1747C13.7925 20.1834 13.7923 20.1922 13.7921 20.2009C13.792 20.2084 13.7918 20.216 13.7916 20.2235C13.7913 20.231 13.7911 20.2386 13.7908 20.2462C13.7905 20.2549 13.7901 20.2636 13.7898 20.2724C13.7895 20.2789 13.7891 20.2855 13.7888 20.2921C13.7883 20.3018 13.7879 20.3116 13.7873 20.3213C13.787 20.327 13.7866 20.3327 13.7863 20.3384C13.7856 20.3491 13.7849 20.3598 13.7842 20.3704C13.7838 20.3753 13.7834 20.3802 13.7831 20.3851C13.7822 20.3966 13.7813 20.4081 13.7803 20.4196C13.78 20.4238 13.7796 20.428 13.7792 20.4323C13.7782 20.4445 13.777 20.4567 13.7758 20.4689C13.7755 20.4725 13.7751 20.4761 13.7748 20.4797C13.7735 20.4925 13.7721 20.5054 13.7707 20.5182C13.7703 20.5213 13.77 20.5243 13.7696 20.5274C13.7681 20.5408 13.7665 20.5541 13.7649 20.5675C13.7645 20.5702 13.7642 20.5728 13.7638 20.5755C13.7621 20.5893 13.7603 20.6031 13.7584 20.6168C13.7581 20.6192 13.7577 20.6215 13.7574 20.6238C13.7554 20.638 13.7534 20.6521 13.7512 20.6663C13.7509 20.6683 13.7506 20.6703 13.7503 20.6723C13.7481 20.6867 13.7458 20.7012 13.7434 20.7157C13.7431 20.7175 13.7429 20.7193 13.7426 20.7211C13.7401 20.7357 13.7376 20.7503 13.735 20.765C13.7347 20.7667 13.7344 20.7684 13.7341 20.7701C13.7315 20.7848 13.7288 20.7995 13.7259 20.8143C13.7256 20.8159 13.7253 20.8176 13.725 20.8192C13.7222 20.834 13.7192 20.8488 13.7162 20.8636C13.7159 20.8652 13.7156 20.8668 13.7152 20.8684C13.7122 20.8832 13.7091 20.8981 13.7059 20.9129C13.7055 20.9145 13.7052 20.9162 13.7048 20.9179C13.7016 20.9326 13.6983 20.9473 13.6949 20.962C13.6945 20.9638 13.6941 20.9656 13.6937 20.9675C13.6903 20.982 13.6869 20.9965 13.6834 21.0111C13.6829 21.0131 13.6824 21.0151 13.6819 21.0171C13.6784 21.0315 13.6749 21.0458 13.6712 21.0601C13.6706 21.0624 13.6701 21.0646 13.6695 21.0668C13.6659 21.0809 13.6622 21.095 13.6584 21.1091C13.6578 21.1116 13.6571 21.1141 13.6564 21.1167C13.6527 21.1304 13.649 21.144 13.6451 21.1577C13.6443 21.1607 13.6435 21.1637 13.6427 21.1666C13.6389 21.1799 13.6351 21.1932 13.6312 21.2064C13.6302 21.2098 13.6293 21.2132 13.6283 21.2165C13.6245 21.2293 13.6206 21.2421 13.6167 21.2549C13.6156 21.2588 13.6144 21.2627 13.6132 21.2665C13.6095 21.2787 13.6056 21.2909 13.6018 21.3031C13.6003 21.3076 13.5989 21.3121 13.5975 21.3166C13.5938 21.3281 13.59 21.3397 13.5862 21.3513C13.5845 21.3564 13.5829 21.3614 13.5812 21.3665C13.5776 21.3774 13.5738 21.3883 13.5701 21.3992C13.5682 21.405 13.5662 21.4108 13.5642 21.4165C13.5607 21.4266 13.5572 21.4367 13.5536 21.4468C13.5513 21.4534 13.549 21.4599 13.5466 21.4665C13.5433 21.4757 13.5399 21.4849 13.5366 21.4942C13.5339 21.5016 13.5312 21.509 13.5284 21.5164C13.5254 21.5246 13.5223 21.5328 13.5192 21.541C13.516 21.5494 13.5128 21.5579 13.5096 21.5663C13.5087 21.5687 13.5077 21.5711 13.5068 21.5734C13.4999 21.5915 13.4928 21.6096 13.4856 21.6276C13.4835 21.6328 13.4814 21.6379 13.4794 21.6431C13.4726 21.6599 13.4657 21.6768 13.4587 21.6936C13.4572 21.6972 13.4557 21.7008 13.4542 21.7043C13.4471 21.7213 13.4398 21.7383 13.4325 21.7553C13.4304 21.7602 13.4283 21.7651 13.4262 21.7701C13.4176 21.7899 13.4088 21.8097 13.3999 21.8295C13.3991 21.8313 13.3983 21.8331 13.3975 21.8349C13.3575 21.9234 13.3146 22.012 13.2686 22.1007C13.2679 22.1022 13.267 22.1037 13.2662 22.1052C13.2558 22.1254 13.2452 22.1455 13.2344 22.1657C13.2319 22.1704 13.2293 22.1752 13.2267 22.1799C13.2177 22.1968 13.2085 22.2137 13.1992 22.2307C13.1956 22.2372 13.1919 22.2438 13.1882 22.2504C13.1798 22.2655 13.1715 22.2805 13.1629 22.2956C13.1585 22.3034 13.154 22.3112 13.1495 22.319C13.1416 22.3328 13.1337 22.3466 13.1256 22.3604C13.1205 22.3692 13.1154 22.378 13.1102 22.3867C13.1026 22.3995 13.0951 22.4124 13.0874 22.4252C13.0817 22.4347 13.0759 22.4442 13.0702 22.4537C13.0629 22.4658 13.0555 22.4779 13.0481 22.49C13.0419 22.5 13.0356 22.5101 13.0294 22.5202C13.0222 22.5317 13.015 22.5432 13.0078 22.5547C13.0011 22.5652 12.9944 22.5758 12.9877 22.5864C12.9806 22.5974 12.9736 22.6084 12.9664 22.6194C12.9593 22.6303 12.9522 22.6413 12.945 22.6523C12.9381 22.6628 12.9311 22.6734 12.9241 22.684C12.9166 22.6954 12.909 22.7067 12.9014 22.718C12.8946 22.7282 12.8877 22.7384 12.8808 22.7485C12.8729 22.7602 12.8649 22.7719 12.8569 22.7835C12.8501 22.7934 12.8433 22.8033 12.8364 22.8132C12.8281 22.8251 12.8198 22.837 12.8115 22.8489C12.8047 22.8585 12.7979 22.8681 12.791 22.8777C12.7824 22.8899 12.7738 22.902 12.765 22.9142C12.7583 22.9235 12.7514 22.9329 12.7446 22.9422C12.7356 22.9546 12.7267 22.967 12.7176 22.9793C12.7109 22.9884 12.7041 22.9975 12.6973 23.0066C12.6879 23.0192 12.6786 23.0318 12.6691 23.0444C12.6625 23.0532 12.6558 23.062 12.6491 23.0708C12.6393 23.0837 12.6296 23.0965 12.6197 23.1093C12.6132 23.1179 12.6065 23.1264 12.5998 23.135C12.5897 23.1481 12.5796 23.1612 12.5693 23.1743C12.5632 23.182 12.5571 23.1897 12.5509 23.1974C12.5139 23.2443 12.4761 23.291 12.4375 23.3378C12.4294 23.3476 12.4214 23.3573 12.4133 23.3671C12.4044 23.3778 12.3953 23.3885 12.3863 23.3992C12.377 23.4102 12.3678 23.4212 12.3585 23.4322C12.3497 23.4425 12.3408 23.4528 12.332 23.4631C12.3222 23.4745 12.3125 23.4859 12.3026 23.4974C12.2939 23.5074 12.2851 23.5174 12.2763 23.5274C12.2661 23.5391 12.2559 23.5508 12.2456 23.5625C12.2369 23.5724 12.228 23.5823 12.2192 23.5922C12.2087 23.6039 12.1983 23.6157 12.1877 23.6274C12.1788 23.6373 12.1699 23.6472 12.1609 23.6571C12.1502 23.6688 12.1396 23.6805 12.1289 23.6923C12.1259 23.6956 12.1228 23.6988 12.1198 23.7021L8.06027 23.7021ZM12.2109 17.3119C12.2114 18.0664 12.2287 18.8327 12.3343 19.574C12.3448 19.6476 12.4027 19.7001 12.4687 19.7001C12.4756 19.7001 12.4827 19.6995 12.4898 19.6983C12.5111 19.6946 12.5304 19.6857 12.5469 19.673C12.8125 19.7348 13.0787 19.8057 13.3451 19.8859C13.2137 20.4363 12.8272 20.9837 12.2674 21.4053C11.6162 21.8959 10.8026 22.1661 9.97653 22.1661C9.15219 22.1661 8.3399 21.8969 7.68931 21.4081C7.12959 20.9876 6.74209 20.441 6.60921 19.8911C6.87737 19.8049 7.14735 19.7292 7.4187 19.664C7.43602 19.677 7.4563 19.686 7.4786 19.6892C7.53338 19.6969 7.58462 19.6677 7.61182 19.6194C7.61722 19.6182 7.62262 19.617 7.62802 19.6158C7.62467 19.6129 7.62136 19.61 7.61803 19.6071C7.62447 19.5928 7.62901 19.5771 7.63097 19.5604C7.72842 18.731 7.74554 17.9215 7.74847 17.1335C8.61096 17.6799 9.48019 18.0309 10.0294 18.0528C10.0445 18.0534 10.06 18.0537 10.0758 18.0537C10.5642 18.0537 11.3845 17.7683 12.2109 17.3119Z" fill="black" style="fill:black;fill-opacity:1;"/>
<path d="M11.1936 14.8499C10.892 15.1094 10.4547 15.2206 10.1551 15.2157C9.84243 15.2106 9.42831 15.0478 9.14801 14.8198C9.08766 14.7707 9.0024 14.7845 8.95755 14.8505C8.9127 14.9165 8.92525 15.0098 8.98558 15.0589C9.31251 15.3248 9.78086 15.5075 10.151 15.5136C10.1594 15.5137 10.1678 15.5138 10.1762 15.5138C10.594 15.5138 11.0567 15.3466 11.3619 15.084C11.421 15.0332 11.4312 14.9396 11.3848 14.8749C11.3383 14.8102 11.2527 14.799 11.1936 14.8499Z" fill="black" style="fill:black;fill-opacity:1;"/>
<path d="M9.72484 13.4936C9.86185 13.6051 10.0591 13.6817 10.2157 13.6842C10.2193 13.6843 10.2228 13.6843 10.2263 13.6843C10.4026 13.6843 10.5985 13.6132 10.7282 13.5016C10.7873 13.4508 10.7975 13.3572 10.7511 13.2925C10.7046 13.2278 10.619 13.2166 10.5599 13.2675C10.4779 13.338 10.3417 13.3864 10.2264 13.3864C10.2242 13.3864 10.222 13.3864 10.2198 13.3864C10.1333 13.385 9.99135 13.3392 9.88726 13.2546C9.82692 13.2055 9.74166 13.2192 9.6968 13.2852C9.65196 13.3512 9.66451 13.4445 9.72484 13.4936Z" fill="black" style="fill:black;fill-opacity:1;"/>
<path d="M6.56053 8.81218C6.56251 8.81096 6.76275 8.69001 7.06749 8.64416C7.47068 8.5835 7.85887 8.67614 8.22132 8.91949C8.24353 8.9344 8.26812 8.94151 8.2924 8.94151C8.33816 8.94151 8.38285 8.91626 8.40855 8.87045C8.44787 8.80034 8.42781 8.70863 8.36373 8.66561C7.83863 8.31306 7.3419 8.29995 7.01768 8.35103C6.66527 8.40655 6.4361 8.54695 6.42652 8.5529C6.36113 8.59349 6.33803 8.6845 6.37514 8.75604C6.41222 8.82758 6.49514 8.85277 6.56053 8.81218Z" fill="black" style="fill:black;fill-opacity:1;"/>
<path d="M12.9624 11.3945L12.9625 11.394C13.1209 11.4361 13.3007 11.3928 13.4283 11.2878L13.4293 11.2892C13.571 11.1761 13.6657 10.9863 13.667 10.7931C13.6699 10.715 13.6563 10.6372 13.6339 10.5634L13.6338 10.5635C13.5829 10.3975 13.4521 10.2509 13.3026 10.1885L13.3027 10.1884C12.53 9.88317 12.1708 11.1733 12.9624 11.3945Z" fill="black" style="fill:black;fill-opacity:1;"/>
<path d="M6.88499 10.6118C6.91151 11.075 7.43681 11.3473 7.78198 11.0786L7.78175 11.0782C7.91636 10.9796 8.01166 10.821 8.03403 10.636L8.03419 10.636C8.03671 10.6154 8.03802 10.5945 8.03864 10.5735C8.04104 10.4939 8.02883 10.4141 8.00522 10.3388L8.00478 10.339C7.94759 10.1637 7.82474 10.0295 7.67393 9.96387L7.67397 9.96374C7.29011 9.78312 6.8325 10.1575 6.88499 10.6118Z" fill="black" style="fill:black;fill-opacity:1;"/>
</g>
<defs>
<clipPath id="clip0_2054_9383">
<rect width="20" height="24" fill="white" style="fill:white;fill-opacity:1;"/>
</clipPath>
</defs>
</svg>
